<svg xmlns="http://www.w3.org/2000/svg" viewBox="0 0 852 1053">
  <g id="bg-dishes" transform="translate(203 34.835)">
    <g id="Group_518" data-name="Group 518" transform="translate(-203 -35)">
      <circle id="Ellipse_1" data-name="Ellipse 1" cx="169.5" cy="169.5" r="169.5" transform="translate(0 0.165)" fill="#74b084" opacity="0.43"/>
      <circle id="Ellipse_2" data-name="Ellipse 2" cx="231.5" cy="231.5" r="231.5" transform="translate(389 64.165)" fill="#74b084" opacity="0.43"/>
      <circle id="Ellipse_3" data-name="Ellipse 3" cx="220.5" cy="220.5" r="220.5" transform="translate(0 450.165)" fill="#74b084" opacity="0.43"/>
      <circle id="Ellipse_4" data-name="Ellipse 4" cx="197" cy="197" r="197" transform="translate(436 659.165)" fill="#74b084" opacity="0.43"/>
    </g>
    <g id="dishes" transform="translate(-191.757 26.122)" opacity="0.67">
      <g id="Orange" transform="translate(185.335 0)" opacity="0.28">
        <g id="Group_394" data-name="Group 394" transform="translate(0 19.486)">
          <g id="Group_393" data-name="Group 393">
            <path id="Path_221" data-name="Path 221" d="M1106.3,387.028c-20.224-15.957-20.966-44.532-7.052-64.942,15.216-22.08,46.387-38.038,69.951-18.555,21.525,17.813,19.854,49.356,7.052,71.807-15.957,28.574-53.067,23.936-76.446,7.051-2.226-1.484-4.267,2.041-2.04,3.525,18.555,13.359,49.541,21.152,69.58,6.494,17.442-12.8,25.049-40.821,21.9-61.416-3.34-20.967-20.6-40.264-42.861-41.377-22.08-.928-44.531,17.256-54.366,36-11.318,21.152-8.164,48.614,11.318,63.829,2.228,2.226,5.2-.742,2.97-2.412Z" transform="translate(-1085.48 -289.582)" fill="#161616"/>
          </g>
        </g>
        <g id="Group_396" data-name="Group 396" transform="translate(70.673 0.961)">
          <g id="Group_395" data-name="Group 395">
            <path id="Path_222" data-name="Path 222" d="M1127.894,303.723c-.557-5.01-1.113-11.875,1.114-16.513,2.783-5.567,12.8-3.34,18-2.6-.371-1.113-.556-2.412-.928-3.525a65.861,65.861,0,0,0-13.359,22.08c-.927,2.6,3.155,3.525,4.082,1.113a58.494,58.494,0,0,1,12.432-20.225c.927-1.113.742-3.34-.928-3.525a91.157,91.157,0,0,0-12.431-.928c-2.97,0-6.495-.185-8.536,2.041-2.226,2.227-2.6,6.309-3.154,9.277a49.348,49.348,0,0,0-.37,12.8c.185,2.6,4.452,2.6,4.081,0Z" transform="translate(-1123.569 -279.598)" fill="#161616"/>
          </g>
        </g>
        <g id="Group_398" data-name="Group 398" transform="translate(31.395 92.692)">
          <g id="Group_397" data-name="Group 397">
            <path id="Path_223" data-name="Path 223" d="M1104.441,329.711h.371c.557.186.928.371,1.484.557a1.4,1.4,0,0,1,.186,1.856l-.742.742h0c-.371.185-.743.185-1.114.371h-.37a2.116,2.116,0,1,0,1.113-4.082c-1.485-.557-2.969.928-2.969,2.412s1.485,2.969,2.969,2.412a2.112,2.112,0,0,0,1.485-2.6,1.969,1.969,0,0,0-2.413-1.67Z" transform="translate(-1102.4 -329.035)" fill="#161616"/>
          </g>
        </g>
        <g id="Group_400" data-name="Group 400" transform="translate(42.899 72.238)">
          <g id="Group_399" data-name="Group 399">
            <path id="Path_224" data-name="Path 224" d="M1112.867,320.587v-.557c0-2.6-4.268-2.783-4.268,0v.557c0,2.6,4.268,2.6,4.268,0v-.557c0-2.6-4.268-2.783-4.268,0v.557c0,2.6,4.268,2.6,4.268,0Z" transform="translate(-1108.6 -318.012)" fill="#161616"/>
          </g>
        </g>
        <g id="Group_402" data-name="Group 402" transform="translate(47.004 96.522)">
          <g id="Group_401" data-name="Group 401">
            <path id="Path_225" data-name="Path 225" d="M1113.758,331.1h-.928c-2.6,0-2.782,4.268,0,4.268h.928c2.784-.186,2.784-4.268,0-4.268Z" transform="translate(-1110.812 -331.1)" fill="#161616"/>
          </g>
        </g>
        <g id="Group_404" data-name="Group 404" transform="translate(62.753 73.722)">
          <g id="Group_403" data-name="Group 403">
            <path id="Path_226" data-name="Path 226" d="M1123.568,321.758v-.928c0-2.6-4.268-2.783-4.268,0v.928a2.134,2.134,0,0,0,4.268,0Z" transform="translate(-1119.3 -318.812)" fill="#161616"/>
          </g>
        </g>
        <g id="Group_406" data-name="Group 406" transform="translate(71.659 96.545)">
          <g id="Group_405" data-name="Group 405">
            <path id="Path_227" data-name="Path 227" d="M1128.367,334.058v-.927c0-2.6-4.267-2.783-4.267,0v.927a2.134,2.134,0,0,0,4.267,0Z" transform="translate(-1124.1 -331.112)" fill="#161616"/>
          </g>
        </g>
        <g id="Group_408" data-name="Group 408" transform="translate(61.639 49.972)">
          <g id="Group_407" data-name="Group 407">
            <path id="Path_228" data-name="Path 228" d="M1122.968,308.958v-.928c0-2.6-4.268-2.783-4.268,0v.928c.187,2.6,4.268,2.6,4.268,0Z" transform="translate(-1118.7 -306.012)" fill="#161616"/>
          </g>
        </g>
        <g id="Group_410" data-name="Group 410" transform="translate(80.704 74.628)">
          <g id="Group_409" data-name="Group 409">
            <path id="Path_229" data-name="Path 229" d="M1131.062,323.568c2.6,0,2.784-4.268,0-4.268a2.134,2.134,0,0,0,0,4.268Z" transform="translate(-1128.975 -319.3)" fill="#161616"/>
          </g>
        </g>
        <g id="Group_412" data-name="Group 412" transform="translate(82.943)">
          <g id="Group_411" data-name="Group 411">
            <path id="Path_230" data-name="Path 230" d="M1133,296.558a41.847,41.847,0,0,0,30.429-13.916,20.421,20.421,0,0,0-3.339-.371c2.782,6.308.371,14.287-5.753,17.627-7.05,3.9-15.4-.185-21.151-4.453-2.227-1.67-4.268,2.041-2.042,3.525,7.794,5.937,19.3,9.834,27.832,2.783,6.5-5.2,8.164-14.1,4.825-21.709a2.206,2.206,0,0,0-3.34-.371A37.2,37.2,0,0,1,1133,292.291c-2.783.185-2.783,4.267,0,4.267Z" transform="translate(-1130.182 -279.08)" fill="#161616"/>
          </g>
        </g>
        <path id="Path_245" data-name="Path 245" d="M1154.59,294.9a63.865,63.865,0,0,1,3.9,26.348,65.428,65.428,0,0,1-14.1,36.182c-17.07,21.895-42.119,25.606-47.685,26.348,4.453,3.154,15.4,10.205,30.615,10.576,4.268.186,22.08.557,35.255-12.246,7.792-7.608,10.2-16.143,12.8-24.678,2.6-8.721,5.938-20.6,1.669-34.512C1172.031,306.4,1159.044,297.683,1154.59,294.9Z" transform="translate(-1075.881 -265.546)" fill="#3d3d3d" opacity="0.15"/>
      </g>
      <g id="grape" transform="translate(510.454 702.544)" opacity="0.28">
        <path id="Path_177" data-name="Path 177" d="M1082.475,184.232c-.285.569.855,1.708.285,2.562-.57,1.139-3.417-.569-5.695.285-1.993.854-1.993,2.847-3.415,4.84-3.132,4.555-9.679,1.139-16.8,4.555-4.555,1.993-9.68,6.833-10.534,12.242-.285,1.993,1.425,5.978,4.556,14.234,2.277,5.978,3.416,7.971,3.132,11.387-.286,4.84-2.278,5.409-1.708,7.971,1.422,5.409,10.818,4.555,13.38,10.818,1.139,3.132-.854,3.986.569,8.541.284.854,1.994,5.694,6.264,8.256,3.984,2.277,6.831.569,8.54,2.847s-.284,4.555,1.138,8.541a12.6,12.6,0,0,0,5.978,6.263,17.054,17.054,0,0,0,8.255,1.993c3.7-.285,5.7-1.423,5.979-.854.569.854-5.409,3.986-6.262,9.395a11,11,0,0,0,.57,5.694c2.561,5.694,10.248,4.84,11.385,8.825.856,3.416-3.983,5.409-2.845,8.825.853,2.277,3.131,1.993,8.54,5.978,3.415,2.562,3.133,3.131,5.978,5.124,3.7,2.562,6.833,4.555,10.249,3.7,4.839-1.424,7.4-9.11,7.97-10.818a19.4,19.4,0,0,1,1.141-3.7c2.276-3.7,5.409-3.131,7.117-5.978,1.139-2.278.285-4.84-.285-7.4-1.423-4.84-3.7-4.84-4.839-8.825-.855-3.132-.286-7.687,2.276-9.395,2.277-1.423,4.271.57,7.116-.854,2.564-1.423,3.7-5.409,3.418-8.256-.283-5.124-3.986-5.409-3.986-10.249,0-1.139,1.138-4.27,3.7-10.818,1.137-3.132,1.707-3.986,1.707-5.409,0-2.847-1.424-4.27-2.847-7.687,0,0-1.14-2.847-2.563-7.971-1.993-7.971,1.138-9.964,0-17.081s-4.27-5.978-5.977-13.949c-1.71-7.687.852-10.534-2.278-14.8a14.443,14.443,0,0,0-9.112-5.409c-4.838-.569-5.977,2.277-9.11,1.139-4.839-1.423-3.7-7.971-8.825-10.818-3.984-2.278-9.393-1.423-13.095.854-4.555,3.132-3.7,7.971-7.4,9.11C1089.593,189.926,1083.615,183.094,1082.475,184.232Z" transform="translate(-1043.334 -127.543)" fill="none"/>
        <g id="Group_346" data-name="Group 346" transform="translate(0 65.842)">
          <g id="Group_345" data-name="Group 345">
            <path id="Path_197" data-name="Path 197" d="M1057.347,211.511a13.155,13.155,0,0,1-4.84-17.081c3.418-6.263,12.527-7.117,17.936-3.416,5.7,3.986,5.7,12.242,1.709,17.65-4.84,6.263-14.521,5.125-19.076-.854-2.561-3.132-7.969,0-5.409,3.132,6.549,8.541,19.645,11.387,27.9,3.7,7.688-7.4,8.258-21.067,0-27.9-7.969-6.548-21.066-5.409-27.043,2.847-6.265,8.825-3.131,21.921,5.977,27.33,3.131,1.993,6.263-3.416,2.847-5.409Z" transform="translate(-1045.251 -182.515)" fill="#161616"/>
          </g>
        </g>
        <g id="Group_348" data-name="Group 348" transform="translate(28.883 74.065)">
          <g id="Group_347" data-name="Group 347">
            <path id="Path_198" data-name="Path 198" d="M1063.377,204.184a7.837,7.837,0,0,1,5.98-12.242,10.1,10.1,0,0,1,10.531,9.394c.286,4.555-2.277,9.68-7.116,10.534s-10.533-2.847-10.818-7.971c-.286-3.986-6.833-3.986-6.548,0a15.747,15.747,0,0,0,17.935,14.234c9.11-1.139,14.234-10.534,12.81-19.074-1.422-9.11-11.1-15.658-20.212-13.1-9.11,2.277-13.38,13.665-8.257,21.352,2.279,3.7,7.972.569,5.694-3.131Z" transform="translate(-1055.397 -185.403)" fill="#161616"/>
          </g>
        </g>
        <g id="Group_350" data-name="Group 350" transform="translate(25.969 54.325)">
          <g id="Group_349" data-name="Group 349">
            <path id="Path_199" data-name="Path 199" d="M1063.561,197.346c-6.265-3.986-1.994-12.811,4.838-12.526,8.541.285,10.248,10.249,6.262,16.227-2.277,3.416,3.132,6.548,5.409,3.132,7.118-10.818.285-27.046-13.664-25.622-12.526,1.139-16.511,17.651-5.978,24.483,3.417,2.277,6.832-3.416,3.133-5.694Z" transform="translate(-1054.373 -178.469)" fill="#161616"/>
          </g>
        </g>
        <g id="Group_352" data-name="Group 352" transform="translate(51.493 67.99)">
          <g id="Group_351" data-name="Group 351">
            <path id="Path_200" data-name="Path 200" d="M1071.77,201.577c-4.27-5.979.854-12.242,7.4-11.957a11.805,11.805,0,0,1,11.1,8.825c3.985,13.1-17.366,19.074-18.791,4.84-.284-3.986-6.831-3.986-6.548,0,.855,9.11,9.395,16.8,19.074,14.519,9.11-2.278,14.8-12.242,12.242-21.067s-12.242-15.089-21.352-13.1c-9.395,1.993-15.089,12.811-9.11,21.352,2.846,3.131,8.255-.285,5.978-3.416Z" transform="translate(-1063.34 -183.27)" fill="#161616"/>
          </g>
        </g>
        <g id="Group_354" data-name="Group 354" transform="translate(5.644 99.29)">
          <g id="Group_353" data-name="Group 353">
            <path id="Path_201" data-name="Path 201" d="M1057.673,214.3c-5.695-3.132-4.556-10.818,1.138-13.381s11.388.569,13.38,6.263c1.709,4.555,0,9.68-4.839,11.1-4.271,1.139-9.11-.854-10.249-5.124-1.138-3.986-7.117-2.278-6.263,1.708,2.276,8.256,11.671,11.957,19.358,9.395,8.826-3.131,10.818-13.38,6.832-21.067a16.327,16.327,0,0,0-23.914-5.979c-8.256,5.694-7.687,18.22.855,23.344,4.271,1.424,7.4-3.985,3.7-6.263Z" transform="translate(-1047.234 -194.264)" fill="#161616"/>
          </g>
        </g>
        <g id="Group_356" data-name="Group 356" transform="translate(38.282 100.291)">
          <g id="Group_355" data-name="Group 355">
            <path id="Path_202" data-name="Path 202" d="M1072.369,218.77c-5.41-1.139-9.679-7.4-6.832-12.811,2.277-4.555,9.678-6.263,13.665-2.847,3.7,3.416,3.986,10.534,0,13.665-4.269,3.416-10.818,1.708-13.665-2.847-2.279-3.416-7.686-.285-5.412,3.132,4.842,7.971,16.514,10.534,23.631,3.986,6.833-5.978,6.263-17.935-.568-23.344-7.118-5.694-18.505-3.132-22.776,4.555-4.839,8.825,1.139,20.213,10.819,22.206,3.415,1.139,5.123-4.84,1.138-5.694Z" transform="translate(-1058.698 -194.615)" fill="#161616"/>
          </g>
        </g>
        <g id="Group_358" data-name="Group 358" transform="translate(60.44 91.548)">
          <g id="Group_357" data-name="Group 357">
            <path id="Path_203" data-name="Path 203" d="M1086.746,197.965c3.417-1.423,4.555,4.84,4.555,6.833a12.66,12.66,0,0,1-3.986,8.256c-4.554,4.27-11.388,3.7-16.226.285-3.417-2.562-6.55,3.132-3.132,5.409,9.679,6.832,23.344,3.7,28.183-7.4,1.993-4.84,2.278-10.818-.569-15.089s-7.4-5.978-11.956-3.7c-3.988,1.708-.569,7.117,3.13,5.409Z" transform="translate(-1066.481 -191.545)" fill="#161616"/>
          </g>
        </g>
        <g id="Group_360" data-name="Group 360" transform="translate(48.871 46.94)">
          <g id="Group_359" data-name="Group 359">
            <path id="Path_204" data-name="Path 204" d="M1069.485,197.582a10.584,10.584,0,0,1,12.241-14.8c8.825,2.562,9.68,13.381,3.133,18.79-3.133,2.562,1.424,7.117,4.554,4.555,11.1-8.825,6.832-27.045-7.116-29.892-14.235-2.847-23.914,11.957-18.22,24.483,1.708,3.7,7.118.569,5.409-3.132Z" transform="translate(-1062.418 -175.875)" fill="#161616"/>
          </g>
        </g>
        <g id="Group_362" data-name="Group 362" transform="translate(74.627 55.596)">
          <g id="Group_361" data-name="Group 361">
            <path id="Path_205" data-name="Path 205" d="M1079.821,196.236c-4.27-4.27-1.139-10.818,4.555-11.1,5.694-.569,9.964,4.27,11.1,9.395,1.139,4.84,0,10.818-3.416,14.519-3.7,3.7-10.818,3.7-12.527-1.993-1.139-3.986-7.4-2.278-6.262,1.708a13.569,13.569,0,0,0,19.929,7.4c8.825-5.124,11.1-17.366,7.4-26.476-3.417-8.256-13.1-13.38-21.921-9.395-7.971,3.7-9.68,14.519-3.417,20.782,2.848,2.562,7.4-1.708,4.555-4.84Z" transform="translate(-1071.465 -178.916)" fill="#161616"/>
          </g>
        </g>
        <g id="Group_364" data-name="Group 364" transform="translate(84.142 86.476)">
          <g id="Group_363" data-name="Group 363">
            <path id="Path_206" data-name="Path 206" d="M1085.605,203.249c-1.992-5.979,5.125-10.533,8.826-4.555,1.992,3.132,1.707,7.687.854,11.1-.854,3.131-2.848,7.4-6.549,7.971-3.7.854-8.54-2.847-7.117-6.833s-4.839-5.694-6.263-1.708c-2.562,7.4,4.271,14.519,11.388,15.089,8.541.285,13.666-7.687,14.8-15.089,1.141-7.687-1.423-17.935-10.248-19.359-8.828-1.139-15.089,7.117-12.243,15.373,1.708,3.7,7.971,1.993,6.548-1.993Z" transform="translate(-1074.807 -189.763)" fill="#161616"/>
          </g>
        </g>
        <g id="Group_366" data-name="Group 366" transform="translate(19.533 121.283)">
          <g id="Group_365" data-name="Group 365">
            <path id="Path_207" data-name="Path 207" d="M1063.18,205.152c-.567-2.847-3.416-3.7-5.976-2.847-2.848,1.139-4.271,3.986-4.841,6.832a16.916,16.916,0,0,0,6.549,16.227c11.957,8.541,27.615-5.694,22.49-18.789-1.423-3.7-7.686-1.993-6.263,1.708,2.279,5.694-1.992,13.95-8.823,13.38a8.3,8.3,0,0,1-6.549-4.839,12.193,12.193,0,0,1-1.423-4.555c0-1.423,1.138-3.416-.285-4.27a11.969,11.969,0,0,1-1.424-1.993v.57c.853,4.555,7.116,2.847,6.546-1.423Z" transform="translate(-1052.113 -201.989)" fill="#161616"/>
          </g>
        </g>
        <g id="Group_368" data-name="Group 368" transform="translate(60.572 115.825)">
          <g id="Group_367" data-name="Group 367">
            <path id="Path_208" data-name="Path 208" d="M1067.3,203.568c-3.7,13.38,6.263,28.184,21.066,25.053a15.609,15.609,0,0,0,5.98-27.9c-3.132-2.562-6.549,3.132-3.132,5.409,7.4,5.694,1.992,16.227-6.263,16.512-9.4.285-13.666-9.395-11.673-17.366,1.423-3.986-4.841-5.694-5.978-1.708Z" transform="translate(-1066.528 -200.072)" fill="#161616"/>
          </g>
        </g>
        <g id="Group_370" data-name="Group 370" transform="translate(42.648 128.802)">
          <g id="Group_369" data-name="Group 369">
            <path id="Path_209" data-name="Path 209" d="M1062.7,205.683a12.375,12.375,0,0,0,5.123,18.789c8.825,3.7,17.936-4.27,19.075-12.811.568-3.986-5.693-5.694-6.263-1.708-.569,4.27-4.27,9.964-9.68,8.825-3.131-.854-6.262-5.694-3.985-8.541,2.848-3.132-1.708-7.687-4.269-4.555Z" transform="translate(-1060.232 -204.63)" fill="#161616"/>
          </g>
        </g>
        <g id="Group_372" data-name="Group 372" transform="translate(56.605 139.854)">
          <g id="Group_371" data-name="Group 371">
            <path id="Path_210" data-name="Path 210" d="M1075.571,230.4c-4.271-2.847-4.839-9.679-1.138-13.38s11.1-2.563,13.95,1.708c3.13,4.555,1.138,11.388-3.416,14.234-5.124,2.847-11.1.569-14.519-3.7-2.563-3.132-7.117,1.424-4.556,4.555,5.693,7.4,17.082,9.395,24.483,3.416,6.833-5.694,8.258-17.081,1.994-23.914-5.979-6.263-17.082-6.548-22.776,0-5.979,6.833-3.986,17.651,3.131,22.49,3.132,2.562,6.263-3.132,2.847-5.409Z" transform="translate(-1065.135 -208.512)" fill="#161616"/>
          </g>
        </g>
        <g id="Group_374" data-name="Group 374" transform="translate(88.403 113.212)">
          <g id="Group_373" data-name="Group 373">
            <path id="Path_211" data-name="Path 211" d="M1085.687,216.366c-3.416-1.423-4.271-6.548-1.706-9.11a7.213,7.213,0,0,1,10.249.569c2.561,2.847,2.845,7.971,0,10.818-2.278,2.278-5.979,3.131-7.973.569-2.562-3.132-7.117,1.424-4.555,4.555,4.555,5.694,13.095,3.7,17.649-1.139,5.125-5.694,3.987-15.658-1.708-20.5s-15.657-3.7-19.644,2.847-.569,14.8,6.264,17.651c3.7,1.423,5.409-4.84,1.423-6.263Z" transform="translate(-1076.303 -199.154)" fill="#161616"/>
          </g>
        </g>
        <g id="Group_376" data-name="Group 376" transform="translate(36.218 140.954)">
          <g id="Group_375" data-name="Group 375">
            <path id="Path_212" data-name="Path 212" d="M1070.577,212.319c-1.993-4.555-7.4-4.27-10.249-.854-3.132,3.7-2.847,9.964-.854,14.234,5.123,9.964,19.073,9.395,24.482,0,1.992-3.7-3.417-6.833-5.41-3.132s-7.4,5.694-11.1,2.847c-1.708-1.139-2.562-3.132-3.132-5.124a4.87,4.87,0,0,1,0-2.847,7.227,7.227,0,0,1,.57-1.993c1.139-.569.854-1.139-.57-1.708,1.424,3.986,7.688,2.278,6.265-1.423Z" transform="translate(-1057.973 -208.899)" fill="#161616"/>
          </g>
        </g>
        <g id="Group_378" data-name="Group 378" transform="translate(80.634 134.211)">
          <g id="Group_377" data-name="Group 377">
            <path id="Path_213" data-name="Path 213" d="M1086.741,212.138c6.834,6.833-.853,17.081-9.395,13.665-3.7-1.423-5.409,4.555-1.708,6.263a14.912,14.912,0,0,0,17.937-5.694,15.524,15.524,0,0,0-2.278-18.789c-2.845-3.132-7.4,1.423-4.556,4.555Z" transform="translate(-1073.574 -206.53)" fill="#161616"/>
          </g>
        </g>
        <g id="Group_380" data-name="Group 380" transform="translate(50.107 163.822)">
          <g id="Group_379" data-name="Group 379">
            <path id="Path_214" data-name="Path 214" d="M1066.406,217.98c-6.549,7.117-3.7,20.213,5.694,23.06,10.248,3.132,20.5-8.825,16.512-18.5-1.709-3.7-7.687-1.993-6.263,1.708,1.993,5.124-2.562,12.811-8.541,10.818-4.84-1.708-6.263-8.825-2.847-12.242,2.847-3.416-1.709-7.971-4.555-4.84Z" transform="translate(-1062.852 -216.932)" fill="#161616"/>
          </g>
        </g>
        <g id="Group_382" data-name="Group 382" transform="translate(73.726 151.748)">
          <g id="Group_381" data-name="Group 381">
            <path id="Path_215" data-name="Path 215" d="M1071.864,230.368c-2.278,5.694,1.139,11.672,6.548,13.95,5.977,2.847,12.526-.285,16.228-5.409,5.977-7.687,6.547-27.045-7.4-26.191-3.986.285-3.986,6.548,0,6.548,6.264-.285,5.978,9.11,3.986,12.811-1.425,2.847-3.7,5.978-7.117,6.833-3.986.854-7.971-2.847-6.549-6.833,1.994-3.986-4.268-5.694-5.693-1.708Z" transform="translate(-1071.148 -212.69)" fill="#161616"/>
          </g>
        </g>
        <g id="Group_384" data-name="Group 384" transform="translate(94.603 136.225)">
          <g id="Group_383" data-name="Group 383">
            <path id="Path_216" data-name="Path 216" d="M1091.629,213.109h0a31.7,31.7,0,0,1-4.839-.57c1.994,3.986,5.125,8.825,3.986,13.38-.855,3.132-4.556,6.263-7.687,3.986-3.416-2.277-6.548,3.132-3.13,5.409,5.124,3.7,11.957.854,15.372-3.986,4.84-7.117.568-15.658-2.847-22.49a3.211,3.211,0,0,0-5.125-.569c-2.846,3.416-2.276,7.4,1.14,9.964,3.416,2.847,6.548-2.562,3.13-5.124Z" transform="translate(-1078.482 -207.238)" fill="#161616"/>
          </g>
        </g>
        <g id="Group_386" data-name="Group 386" transform="translate(59.934 180.823)">
          <g id="Group_385" data-name="Group 385">
            <path id="Path_217" data-name="Path 217" d="M1070.848,226.6c-8.255,5.693-4.553,18.789,5.409,19.644,11.958,1.423,17.367-11.1,15.944-21.067-.57-3.986-6.832-2.277-6.263,1.708.855,5.124-.853,11.957-7.117,13.1-2.276.285-4.839-.285-5.694-2.562-.854-1.708-.568-4.27.855-5.409,3.416-2.278.284-7.687-3.133-5.409Z" transform="translate(-1066.304 -222.903)" fill="#161616"/>
          </g>
        </g>
        <g id="Group_388" data-name="Group 388" transform="translate(82.256 168.724)">
          <g id="Group_387" data-name="Group 387">
            <path id="Path_218" data-name="Path 218" d="M1074.3,234.16c-1.708,10.818,10.818,18.22,19.358,11.1,9.395-7.971,4.84-21.352-5.123-26.191-3.7-1.993-6.834,3.7-3.133,5.409,4.554,2.278,8.824,7.4,6.265,12.811-1.14,2.278-3.132,4.27-5.7,4.27-2.847,0-5.978-2.562-5.411-5.694.571-3.986-5.692-5.694-6.261-1.708Z" transform="translate(-1074.144 -218.653)" fill="#161616"/>
          </g>
        </g>
        <g id="Group_390" data-name="Group 390" transform="translate(73.608 191.072)">
          <g id="Group_389" data-name="Group 389">
            <path id="Path_219" data-name="Path 219" d="M1071.942,235.035c-3.417,7.4,4.269,15.089,11.956,13.38,8.825-1.708,10.818-11.957,9.68-19.643-.571-3.986-6.834-2.278-6.264,1.708.57,3.7,0,8.541-3.13,10.818a3.837,3.837,0,0,1-4.557.285c-1.138-.569-2.847-1.993-2.276-3.416,1.707-3.7-3.7-6.833-5.41-3.132Z" transform="translate(-1071.107 -226.503)" fill="#161616"/>
          </g>
        </g>
        <g id="Group_392" data-name="Group 392" transform="translate(37.101)">
          <g id="Group_391" data-name="Group 391">
            <path id="Path_220" data-name="Path 220" d="M1070.856,218.07c-5.694-16.227-13.665-50.39,13.381-52.383a21.786,21.786,0,0,0-3.131-2.278c2.846,7.687-5.125,20.213-5.979,28.184a72.354,72.354,0,0,0,.854,20.782c.855,3.986,6.831,2.278,6.264-1.708-2.562-12.526-.284-22.775,3.985-34.447,1.994-5.124,3.133-9.11,1.14-14.519-.571-1.139-1.709-2.562-3.132-2.277-11.1.854-19.645,7.971-23.63,18.22-5.409,13.949-.283,28.753,4.271,42.134,1.14,3.7,7.4,1.993,5.979-1.708Z" transform="translate(-1058.282 -159.387)" fill="#161616"/>
          </g>
        </g>
      </g>
      <g id="milkshake" transform="translate(0 209.707) rotate(-13)" opacity="0.26">
        <path id="Path_294" data-name="Path 294" d="M73.09,39.648c-.461-3.962-4.6-6.735-8.333-9.256a41.3,41.3,0,0,1-4.79-3.539c-3.563-3.23-4.961-6.693-.42-11.455A30.635,30.635,0,0,0,49.037,15a23.179,23.179,0,0,0-9.6,3.568,16.906,16.906,0,0,0-6.133,7.2,19.2,19.2,0,0,0-.81,12.335,2.154,2.154,0,0,1-2.038,2.492h-.083A19.866,19.866,0,0,0,24.848,42a13.553,13.553,0,0,0-6.777,5.953A13.4,13.4,0,0,0,16.84,56.9a19.223,19.223,0,0,0,2.609,6.462,2,2,0,0,1-1.073,2.922,1.872,1.872,0,0,1-.577.162,17.849,17.849,0,0,0-8.764,4.382,9.764,9.764,0,0,0-2.69,4.647,10.094,10.094,0,0,0,.348,5.567,19.435,19.435,0,0,0,5.621,7.907l.993.013.144.975c.334.267.668.534,1.019.8L94.3,91.78c.658-.3,1.283-.617,1.858-.949l.106-.787,1.125.015a13.573,13.573,0,0,0,4.229-4.6,13.074,13.074,0,0,0,1.282-8.93,16.944,16.944,0,0,0-4.619-8.512,18.671,18.671,0,0,0-10.022-5.276.419.419,0,0,1-.133-.033,103.857,103.857,0,0,0-11.04,3.6c-11.644,4.236-24.935,9.069-37.608,3.48a2.072,2.072,0,0,1-1.161-2.951,2.773,2.773,0,0,1,3.446-.913c10.494,4.649,22.583.233,33.189-3.631a106.7,106.7,0,0,1,11.633-3.773c.89-4.408.287-7.753-1.5-10.248-1.733-2.418-4.665-4.156-8.485-5.4a35.52,35.52,0,0,1-13.093,6.18,23.221,23.221,0,0,1-13.557-.764A2.107,2.107,0,0,1,48.611,45.4a2.714,2.714,0,0,1,3.378-1.053,17.316,17.316,0,0,0,10.1.5,29.286,29.286,0,0,0,11-5.2Zm-37.9,115.9a2.375,2.375,0,0,1,2.134-2.738,2.644,2.644,0,0,1,2.986,2.063l.639,3.562a2.383,2.383,0,0,1-2.134,2.738,2.654,2.654,0,0,1-2.986-2.063l-.639-3.562ZM32,131.682a2.407,2.407,0,0,1,2.167-2.722,2.661,2.661,0,0,1,2.97,2.094l2.249,13.658a2.407,2.407,0,0,1-2.167,2.722,2.674,2.674,0,0,1-2.97-2.094L32,131.682ZM18.027,116.836c-.165,0-.347,0-.513-.022l6.38,41.988.863,5.667,1.329,8.717c.017.077.018.155.036.232h0c.263,3.944,1.39,6.848,3.4,8.651,1.957,1.772,4.928,2.645,8.98,2.574h.1v-.015l25.479.333c.563.007,1.853.055,3.177.088,5.379.194,11.651.415,14.959-2.37,2.915-2.45,3.353-7.249,3.763-11.632.1-1.08.206-2.145.342-3.163l.332-2.638.726-5.646,8.116-63.477a2.756,2.756,0,0,1-.513.024L14.241,95.093l2.588,17.03a2.629,2.629,0,0,1,.875-.174,10.409,10.409,0,0,0,2.345-.34,7.906,7.906,0,0,0,1.663-.643c6.988-3.494,13.144-1.976,18.7-.59,5.027,1.24,9.441,2.333,12.807-2.475a2.691,2.691,0,0,1,3.582-.649,2.369,2.369,0,0,1,.785,3.363c-5.366,7.687-11.455,6.186-18.374,4.457-4.646-1.158-9.773-2.414-14.968.191a13.269,13.269,0,0,1-2.684,1.016,14.061,14.061,0,0,1-3.533.557ZM77.28,35.979,82.86,14.5a4.9,4.9,0,0,1,2.706-3.271l18.051-9.283a5.66,5.66,0,0,1,3.982-.35,5.518,5.518,0,0,1,3.272,2.422l.051.093a4.787,4.787,0,0,1,.492,3.746,4.968,4.968,0,0,1-2.511,3L92.824,19.108,86.546,43.023a16.005,16.005,0,0,1,2.949,3.1c2.406,3.353,3.284,7.6,2.241,12.993A24.087,24.087,0,0,1,102.2,65.322a21.436,21.436,0,0,1,5.786,10.629A16.63,16.63,0,0,1,106.3,87.425a17.31,17.31,0,0,1-4.273,5.059L92.267,168.7c-.121.941-.208,1.944-.312,2.963-.514,5.417-1.054,11.359-5.655,15.254-5.06,4.276-12.639,4.007-19.143,3.783-.811-.026-1.622-.068-3.045-.086l-25.479-.333v-.015c-5.706.08-10.14-1.353-13.3-4.237l-.151-.141-.151-.141-.151-.141-.151-.141-.134-.141-.134-.141c-.05-.062-.084-.094-.134-.156l-.134-.141-.134-.156-.134-.141-.134-.156-.117-.141-.118-.156-.118-.156-.118-.156-.118-.156-.118-.156-.118-.156h0l-.1-.156-.1-.171-.1-.171h0l-.1-.171-.1-.171-.1-.171-.1-.171L22.173,182h0l-.085-.187L22,181.63l-.085-.186-.085-.187h0l-.085-.187-.085-.187-.068-.186-.069-.2-.069-.2-.069-.2h0l-.069-.2-.069-.2-.069-.2-.052-.2h0l-.052-.217-.069-.217h0l-.052-.217h0l-.052-.217h0l-.069-.217-.052-.217h0l-.052-.217h0l-.052-.217-.052-.232h0l-.052-.232h0l-.052-.232-.052-.232h0l-.052-.232h0l-.036-.232h0l-.036-.232h0l-.02-.263h0l-.036-.248-.036-.248h0l-.036-.248-.036-.248-.036-.248-.02-.247-.02-.263-.02-.247-1.794-11.55a2.262,2.262,0,0,1-.072-.464L7.507,90.895a22.847,22.847,0,0,1-5.779-8.728,13.845,13.845,0,0,1-.456-7.608,13.761,13.761,0,0,1,3.775-6.564,21.154,21.154,0,0,1,8.558-4.972,23.873,23.873,0,0,1-1.887-5.541,16.87,16.87,0,0,1,1.649-11.413,18.294,18.294,0,0,1,9.052-7.948A25.337,25.337,0,0,1,27,36.683,22.262,22.262,0,0,1,28.437,24.14a21.267,21.267,0,0,1,7.715-9.016,28.5,28.5,0,0,1,11.89-4.4,37.047,37.047,0,0,1,17.042,1.644,2.77,2.77,0,0,1,.95.553,1.975,1.975,0,0,1-.078,3.089c-4.817,3.8-4.41,6.015-2.319,7.927a47.918,47.918,0,0,0,4.239,3.084h0c3.669,2.443,7.621,5.09,9.405,8.961ZM39.762,31.843a1.922,1.922,0,0,1,2.022,1.726A1.81,1.81,0,0,1,39.8,35.243a1.922,1.922,0,0,1-2.022-1.726,1.8,1.8,0,0,1,1.981-1.674ZM52.8,77.332a2.18,2.18,0,0,1,2.29,1.946,2.052,2.052,0,0,1-2.243,1.887,2.18,2.18,0,0,1-2.29-1.946A2.042,2.042,0,0,1,52.8,77.332ZM24.137,73.544a2.18,2.18,0,0,1,2.29,1.946,2.052,2.052,0,0,1-2.243,1.887,2.18,2.18,0,0,1-2.29-1.946,2.042,2.042,0,0,1,2.243-1.887Zm64.58,2.682a2.2,2.2,0,0,1,2.307,1.962,2.058,2.058,0,0,1-2.26,1.886,2.18,2.18,0,0,1-2.29-1.946,2.064,2.064,0,0,1,2.243-1.9ZM42.148,82.818a.968.968,0,0,1,.131-1.513,1.423,1.423,0,0,1,1.789.162l2.947,2.974a.968.968,0,0,1-.131,1.513,1.423,1.423,0,0,1-1.789-.162l-2.947-2.974Zm-28.68-3.789a.958.958,0,0,1,.131-1.513,1.423,1.423,0,0,1,1.789.162l2.947,2.974a.968.968,0,0,1-.131,1.513A1.423,1.423,0,0,1,16.415,82l-2.947-2.974Zm64.6,2.7a.968.968,0,0,1,.131-1.513,1.423,1.423,0,0,1,1.789.162l2.947,2.974a.967.967,0,0,1-.131,1.513,1.423,1.423,0,0,1-1.789-.162l-2.947-2.974Z" transform="translate(532.438 6.414)" fill-rule="evenodd"/>
        <g id="sandwich" transform="translate(67.037 428.897) rotate(30)">
          <path id="Path_295" data-name="Path 295" d="M117.211,75.312c1.964,1.533,3.405,3.491,5.865,4.944h.014l.128.083.1.055.128.069.071.042.142.083.1.055.142.069.085.042.142.069.1.055.17.069.057.028c.057.028.114.055.185.083l.085.028.185.069.057.028a1.144,1.144,0,0,0,.2.07l.057.028a1.287,1.287,0,0,0,.213.07l.057.028a1.1,1.1,0,0,0,.227.07l.043.014a2.256,2.256,0,0,0,.241.07l.057.014c.071.028.156.042.227.07l.057.014c.085.028.184.042.27.07l.043.014c.085.028.17.042.27.07l.043.014c.1.028.184.042.284.07l.043.014c.085.014.184.042.284.056l.043.014c.1.014.2.042.3.056h.043l.3.042.057.014c.1.014.2.028.312.043h.043l.326.043h.043l.34.043h.014a3.083,3.083,0,0,0,.355.029h.043c.113.014.241.015.369.029h.028a3.31,3.31,0,0,0,.369.015h.043c.128,0,.255.015.4.015l.439,0h.014c.142,0,.283-.013.425-.026h.014l.411-.039h0c.142-.013.269-.04.411-.067h.014c.127-.027.255-.054.4-.081h.028c.127-.027.255-.068.382-.095l.028-.014c.127-.041.255-.081.368-.122l.042-.014.34-.122.042-.014c.113-.041.226-.1.325-.136l.057-.027c.113-.054.212-.1.325-.15l.014-.041c.1-.055.2-.1.3-.15l.071-.041c.1-.055.2-.109.283-.15l.113-.054c.085-.055.17-.1.254-.15l.127-.068.254-.164.127-.082c2.289-1.46,4.5-3.5,7.218-5.039l-26.606-.113Zm43.117-.146c.185.069.369.153.568.236l.071.028c.256.111.526.236.8.361l.1.042c.27.125.54.25.824.388l.085.042c.284.139.568.277.853.43l.085.042c.313.166.611.332.938.5.028.014.071.042.1.055h0a.711.711,0,0,0,.1.042h.014c.028.014.071.028.1.042h0a1.286,1.286,0,0,0,.213.07h0c.028.014.071.014.1.028h0c.028,0,.057.014.1.014h.014c.028,0,.057.014.1.014h.028l.085.014h.553l.085-.013h.028l.071-.013h.057l.071-.013h.028l.1-.013c1.841-.349,3.86-1.866,5.334-1.9a48.284,48.284,0,0,0-3.72-4.055l-7.877,3.662ZM57.735,75.059c-1.948,1.517-3.37,3.462-5.815,4.894h-.014l-.127.082-.1.055-.127.068-.071.041-.141.082-.1.055L51.1,80.4l-.085.041-.141.068-.1.055-.17.068-.057.027c-.057.027-.113.054-.184.082l-.085.027-.184.068-.057.027a1.125,1.125,0,0,1-.2.068l-.057.027a1.266,1.266,0,0,1-.212.068l-.057.027a1.078,1.078,0,0,1-.226.068l-.042.014a2.222,2.222,0,0,1-.241.068l-.057.014c-.071.027-.156.041-.226.068l-.057.013c-.085.027-.184.04-.269.068l-.042.014c-.085.027-.17.04-.269.068l-.042.014c-.1.027-.184.04-.283.067l-.042.014c-.085.013-.184.04-.283.054l-.042.014c-.1.013-.2.04-.3.054h-.043l-.3.04-.057.013c-.1.013-.2.027-.312.04h-.043l-.326.04h-.043l-.34.04h-.014a3.068,3.068,0,0,1-.354.026h-.043c-.113.013-.241.013-.368.026h-.028a3.3,3.3,0,0,1-.368.012h-.043c-.128,0-.255.013-.4.012l-.439,0h-.014c-.142,0-.284-.015-.425-.029h-.014l-.411-.043h0c-.142-.014-.27-.042-.411-.07H42.29c-.128-.028-.255-.056-.4-.084h-.028c-.128-.028-.255-.07-.383-.1l.042-.027c-.128-.042-.256-.084-.369-.125l-.043-.014-.341-.125-.043-.014c-.114-.042-.227-.1-.327-.139l-.057-.028c-.114-.055-.213-.1-.327-.153l-.071-.028c-.1-.055-.2-.1-.3-.152l-.071-.042c-.1-.055-.2-.111-.284-.152l-.114-.055c-.085-.055-.171-.1-.256-.152l-.128-.069-.256-.166-.128-.083c-2.3-1.48-4.539-3.537-7.269-5.1l26.592.113Zm-43.121-.513c-.184.068-.368.15-.566.231l-.071.027c-.255.109-.523.231-.792.354l-.1.055c-.269.122-.537.245-.82.381l-.085.041c-.283.136-.566.272-.848.422l-.085.041c-.311.164-.608.327-.933.491-.028.014-.071.041-.1.055h0a.7.7,0,0,1-.1.041H10.1c-.028.014-.071.027-.1.041h0a1.264,1.264,0,0,1-.212.068h0c-.028.014-.071.013-.1.027h0c-.028,0-.057.013-.1.013H9.579c-.028,0-.057.013-.1.013H9.452l-.085.013H8.814l-.085-.014H8.573L8.5,76.827H8.474l-.1-.014c-1.844-.365-3.879-1.9-5.353-1.946A46.967,46.967,0,0,1,6.7,70.843l7.914,3.7ZM5.257,68.556a39.09,39.09,0,0,0-3.581,3.832c-.958,1.109.409-.465-.69.808a2.5,2.5,0,0,0,.344,3.6,2.643,2.643,0,0,0,1.619.6h0a9.342,9.342,0,0,1,1.648.68,23.776,23.776,0,0,0,2.188.944,10.1,10.1,0,0,0-.869,1.892,6.944,6.944,0,0,0,.311,5.524,8.494,8.494,0,0,0,4.1,3.727C12.913,91.4,16.6,92,21.093,91.816h0l66.493.283,66.493.283h0c4.494.211,8.177-.364,10.75-1.562a8.27,8.27,0,0,0,4.064-3.692,6.92,6.92,0,0,0,.256-5.522,10.321,10.321,0,0,0-.888-1.9,23.3,23.3,0,0,0,2.178-.925,7.856,7.856,0,0,1,1.641-.666h0a2.749,2.749,0,0,0,1.613-.584,2.5,2.5,0,0,0,.308-3.6c-1.112-1.282.271.3-.7-.814a42.048,42.048,0,0,0-3.62-3.862,7.557,7.557,0,0,0,.015-5.413,17.455,17.455,0,0,0-5.251-7c-.114-.11-.228-.207-.342-.3L95.59,3.68h0A12.844,12.844,0,0,0,87.111.374h-.028a12.587,12.587,0,0,0-8.432,3.234h0L10.707,55.9a2.344,2.344,0,0,0-.339.3,17.007,17.007,0,0,0-5.181,6.957,7.6,7.6,0,0,0,.07,5.4Zm90.778-32.6c.661,1.734-.591,3.762-2.784,4.536s-4.522-.006-5.182-1.739.591-3.762,2.784-4.536,4.522.019,5.182,1.739ZM90.479,21.78a1.385,1.385,0,0,1-1.026,1.672,1.487,1.487,0,0,1-1.917-.64,1.385,1.385,0,0,1,1.026-1.672,1.468,1.468,0,0,1,1.917.64Zm-13.2,8.448c.474,1.252-.426,2.719-2.01,3.289s-3.274,0-3.748-1.252.426-2.719,2.01-3.289,3.274,0,3.748,1.252Zm16.522,21.6c.474,1.252-.426,2.719-2.01,3.289s-3.274,0-3.748-1.252.426-2.719,2.01-3.289a2.87,2.87,0,0,1,3.748,1.252Zm16.564-1.139c.5,1.294-.439,2.828-2.095,3.4s-3.388,0-3.89-1.308.439-2.828,2.095-3.4,3.388,0,3.89,1.308Zm2.9-12.738c.5,1.294-.439,2.828-2.095,3.4s-3.388,0-3.89-1.308.439-2.828,2.095-3.4,3.4,0,3.89,1.308ZM74.121,75.128l26.7.114C93.1,82.9,86.38,86.048,74.121,75.128ZM87.4,60.841l-71-.3,66.786-51.4h0c.028-.027.071-.055.1-.082a5.769,5.769,0,0,1,3.663-1.647.835.835,0,0,1,.184.015c.057,0,.128-.013.184-.013A5.882,5.882,0,0,1,91,9.088c.028.028.071.055.1.083h0L158.4,61.144l-71-.3ZM156.935,76.7c-7.751-2.3-11.987.828-15.7,3.629l20.2.086c-.4-.414-.855-.855-1.367-1.3l-.014-.014-3.116-2.4Zm-38.168,3.533c-.441-.4-.869-.814-1.3-1.215a20.242,20.242,0,0,0-2.434-2.112,8.5,8.5,0,0,0-2.345-1.164,5.86,5.86,0,0,0-2.156-.27c-3.557.2-6.947,2.54-10.04,4.684l18.271.078ZM18.024,76.112c7.728-2.234,12,.93,15.738,3.763l-20.2-.086c.395-.41.846-.848,1.354-1.286l.014-.014,3.092-2.377Zm38.2,3.859c.437-.4.861-.807,1.284-1.2a19.7,19.7,0,0,1,2.413-2.092,8.312,8.312,0,0,1,2.333-1.144,5.822,5.822,0,0,1,2.153-.252c3.559.235,6.973,2.6,10.088,4.769l-18.271-.078Z" transform="translate(2.415 0)" fill-rule="evenodd"/>
        </g>
      </g>
    </g>
  </g>
</svg>
