<svg xmlns="http://www.w3.org/2000/svg" viewBox="0 0 767 947.534">
  <g id="bg-dishes" transform="translate(203 34.835)">
    <g id="Group_518" data-name="Group 518" transform="translate(-203 -34.835)">
      <circle id="Ellipse_1" data-name="Ellipse 1" cx="152.5" cy="152.5" r="152.5" transform="translate(0 0)" fill="#74b084" opacity="0.43"/>
      <ellipse id="Ellipse_2" data-name="Ellipse 2" cx="208.5" cy="208" rx="208.5" ry="208" transform="translate(350 58)" fill="#74b084" opacity="0.43"/>
      <path id="Path_307" data-name="Path 307" d="M198.415,0C308,0,396.83,88.834,396.83,198.415S308,396.83,198.415,396.83,0,308,0,198.415,88.834,0,198.415,0Z" transform="translate(0 404.929)" fill="#74b084" opacity="0.43"/>
      <path id="Path_308" data-name="Path 308" d="M177.269,0A177.269,177.269,0,1,1,0,177.269,177.269,177.269,0,0,1,177.269,0Z" transform="translate(392.331 592.996)" fill="#74b084" opacity="0.43"/>
    </g>
    <g id="dishes" data-name="dishes" transform="translate(-69.203 26.601)" opacity="0.2">
      <g id="Orange" transform="translate(67.766 0)">
        <g id="Group_394" data-name="Group 394" transform="translate(0 17.534)">
          <g id="Group_393" data-name="Group 393">
            <path id="Path_221" data-name="Path 221" d="M1104.214,377.268c-18.2-14.359-18.866-40.071-6.345-58.437,13.692-19.869,41.741-34.228,62.945-16.7,19.369,16.029,17.866,44.412,6.345,64.615-14.359,25.712-47.752,21.538-68.79,6.344-2-1.336-3.84,1.837-1.836,3.172,16.7,12.021,44.579,19.034,62.611,5.844,15.7-11.521,22.541-36.732,19.7-55.265-3.005-18.867-18.533-36.231-38.568-37.233-19.869-.835-40.071,15.528-48.921,32.391-10.184,19.034-7.347,43.745,10.184,57.436,2,2,4.676-.668,2.672-2.17Z" transform="translate(-1085.48 -289.582)" fill="#161616"/>
          </g>
        </g>
        <g id="Group_396" data-name="Group 396" transform="translate(63.594 0.865)">
          <g id="Group_395" data-name="Group 395">
            <path id="Path_222" data-name="Path 222" d="M1127.461,301.306c-.5-4.508-1-10.686,1-14.859,2.5-5.009,11.52-3.006,16.195-2.338-.334-1-.5-2.171-.835-3.172a59.264,59.264,0,0,0-12.021,19.869c-.834,2.338,2.839,3.172,3.673,1a52.637,52.637,0,0,1,11.187-18.2c.834-1,.668-3.005-.835-3.172a82.029,82.029,0,0,0-11.186-.835c-2.672,0-5.844-.167-7.681,1.837-2,2-2.338,5.677-2.838,8.348a44.408,44.408,0,0,0-.333,11.52c.167,2.338,4.006,2.338,3.672,0Z" transform="translate(-1123.569 -279.598)" fill="#161616"/>
          </g>
        </g>
        <g id="Group_398" data-name="Group 398" transform="translate(28.251 83.408)">
          <g id="Group_397" data-name="Group 397">
            <path id="Path_223" data-name="Path 223" d="M1104.237,329.644h.334c.5.167.835.334,1.335.5a1.264,1.264,0,0,1,.167,1.67l-.668.668h0c-.334.167-.668.167-1,.334h-.333a1.9,1.9,0,1,0,1-3.673c-1.336-.5-2.672.835-2.672,2.171s1.336,2.671,2.672,2.17a1.9,1.9,0,0,0,1.336-2.337,1.772,1.772,0,0,0-2.171-1.5Z" transform="translate(-1102.4 -329.035)" fill="#161616"/>
          </g>
        </g>
        <g id="Group_400" data-name="Group 400" transform="translate(38.602 65.003)">
          <g id="Group_399" data-name="Group 399">
            <path id="Path_224" data-name="Path 224" d="M1112.44,320.329v-.5c0-2.338-3.84-2.5-3.84,0v.5c0,2.337,3.84,2.337,3.84,0v-.5c0-2.338-3.84-2.5-3.84,0v.5c0,2.337,3.84,2.337,3.84,0Z" transform="translate(-1108.6 -318.012)" fill="#161616"/>
          </g>
        </g>
        <g id="Group_402" data-name="Group 402" transform="translate(42.296 86.855)">
          <g id="Group_401" data-name="Group 401">
            <path id="Path_225" data-name="Path 225" d="M1113.463,331.1h-.835c-2.338,0-2.5,3.84,0,3.84h.835c2.505-.167,2.505-3.84,0-3.84Z" transform="translate(-1110.812 -331.1)" fill="#161616"/>
          </g>
        </g>
        <g id="Group_404" data-name="Group 404" transform="translate(56.467 66.339)">
          <g id="Group_403" data-name="Group 403">
            <path id="Path_226" data-name="Path 226" d="M1123.14,321.463v-.835c0-2.338-3.84-2.5-3.84,0v.835a1.921,1.921,0,0,0,3.84,0Z" transform="translate(-1119.3 -318.812)" fill="#161616"/>
          </g>
        </g>
        <g id="Group_406" data-name="Group 406" transform="translate(64.482 86.875)">
          <g id="Group_405" data-name="Group 405">
            <path id="Path_227" data-name="Path 227" d="M1127.94,333.763v-.835c0-2.337-3.84-2.5-3.84,0v.835a1.92,1.92,0,0,0,3.84,0Z" transform="translate(-1124.1 -331.112)" fill="#161616"/>
          </g>
        </g>
        <g id="Group_408" data-name="Group 408" transform="translate(55.466 44.967)">
          <g id="Group_407" data-name="Group 407">
            <path id="Path_228" data-name="Path 228" d="M1122.541,308.663v-.835c0-2.338-3.841-2.5-3.841,0v.835c.168,2.337,3.841,2.337,3.841,0Z" transform="translate(-1118.7 -306.012)" fill="#161616"/>
          </g>
        </g>
        <g id="Group_410" data-name="Group 410" transform="translate(72.621 67.153)">
          <g id="Group_409" data-name="Group 409">
            <path id="Path_229" data-name="Path 229" d="M1130.853,323.14c2.338,0,2.5-3.84,0-3.84a1.921,1.921,0,0,0,0,3.84Z" transform="translate(-1128.975 -319.3)" fill="#161616"/>
          </g>
        </g>
        <g id="Group_412" data-name="Group 412" transform="translate(74.635)">
          <g id="Group_411" data-name="Group 411">
            <path id="Path_230" data-name="Path 230" d="M1132.717,294.808a37.656,37.656,0,0,0,27.382-12.522,18.375,18.375,0,0,0-3-.334,12.569,12.569,0,0,1-5.177,15.861c-6.344,3.506-13.856-.167-19.032-4.007-2-1.5-3.84,1.837-1.837,3.172,7.013,5.343,17.364,8.849,25.044,2.5,5.844-4.675,7.346-12.689,4.342-19.535a1.985,1.985,0,0,0-3.006-.334,33.473,33.473,0,0,1-24.711,11.354c-2.5.167-2.5,3.84,0,3.84Z" transform="translate(-1130.182 -279.08)" fill="#161616"/>
          </g>
        </g>
        <path id="Path_245" data-name="Path 245" d="M1148.792,294.9a57.47,57.47,0,0,1,3.505,23.709,58.875,58.875,0,0,1-12.688,32.558c-15.361,19.7-37.9,23.041-42.909,23.709a49.99,49.99,0,0,0,27.549,9.517c3.84.167,19.869.5,31.724-11.019,7.012-6.846,9.183-14.526,11.52-22.206,2.338-7.847,5.343-18.533,1.5-31.055C1164.486,305.252,1152.8,297.4,1148.792,294.9Z" transform="translate(-1077.966 -268.486)" fill="#3d3d3d" opacity="0.15"/>
      </g>
      <g id="grape" transform="translate(335.647 625.593)">
        <path id="Path_177" data-name="Path 177" d="M1078.851,183.471c-.256.512.769,1.537.257,2.306-.513,1.025-3.074-.512-5.124.256-1.794.768-1.794,2.562-3.073,4.355-2.818,4.1-8.709,1.025-15.114,4.1-4.1,1.793-8.711,6.148-9.479,11.015-.257,1.793,1.282,5.38,4.1,12.809,2.049,5.38,3.073,7.173,2.818,10.247-.257,4.355-2.05,4.867-1.537,7.173,1.28,4.867,9.735,4.1,12.04,9.735,1.025,2.818-.768,3.586.512,7.685.256.768,1.794,5.124,5.637,7.429,3.585,2.049,6.147.512,7.685,2.562s-.256,4.1,1.024,7.685a11.339,11.339,0,0,0,5.38,5.636,15.346,15.346,0,0,0,7.428,1.793c3.332-.256,5.125-1.281,5.38-.769.512.769-4.867,3.586-5.634,8.454a9.894,9.894,0,0,0,.513,5.124c2.3,5.123,9.221,4.355,10.245,7.941.77,3.074-3.584,4.867-2.56,7.941.768,2.049,2.818,1.793,7.685,5.38,3.073,2.305,2.819,2.818,5.379,4.611,3.33,2.306,6.149,4.1,9.222,3.33,4.354-1.281,6.662-8.2,7.172-9.735a17.449,17.449,0,0,1,1.027-3.33c2.048-3.33,4.867-2.818,6.4-5.38,1.025-2.049.257-4.355-.256-6.661-1.281-4.355-3.331-4.355-4.354-7.941-.769-2.818-.257-6.917,2.048-8.454,2.049-1.281,3.843.513,6.4-.769,2.307-1.281,3.33-4.867,3.075-7.429-.255-4.611-3.587-4.867-3.587-9.222,0-1.025,1.024-3.843,3.332-9.735,1.023-2.818,1.536-3.586,1.536-4.867,0-2.562-1.281-3.843-2.562-6.917,0,0-1.025-2.562-2.307-7.173-1.793-7.173,1.024-8.966,0-15.371s-3.842-5.38-5.378-12.552c-1.539-6.917.767-9.479-2.05-13.321a13,13,0,0,0-8.2-4.867c-4.354-.512-5.379,2.049-8.2,1.025-4.354-1.281-3.33-7.173-7.941-9.734-3.585-2.05-8.452-1.281-11.783.768-4.1,2.818-3.33,7.173-6.661,8.2C1085.256,188.594,1079.877,182.446,1078.851,183.471Z" transform="translate(-1043.63 -132.459)" fill="none"/>
        <g id="Group_346" data-name="Group 346" transform="translate(0 59.247)">
          <g id="Group_345" data-name="Group 345">
            <path id="Path_197" data-name="Path 197" d="M1056.136,208.607a11.838,11.838,0,0,1-4.356-15.37c3.076-5.636,11.272-6.4,16.14-3.074,5.125,3.586,5.125,11.016,1.538,15.883-4.355,5.636-13.066,4.611-17.166-.768-2.3-2.818-7.171,0-4.867,2.818,5.893,7.685,17.677,10.247,25.1,3.33,6.917-6.661,7.431-18.957,0-25.105-7.171-5.892-18.956-4.867-24.335,2.562-5.637,7.941-2.818,19.725,5.378,24.593,2.818,1.793,5.635-3.074,2.562-4.867Z" transform="translate(-1045.251 -182.515)" fill="#161616"/>
          </g>
        </g>
        <g id="Group_348" data-name="Group 348" transform="translate(25.99 66.647)">
          <g id="Group_347" data-name="Group 347">
            <path id="Path_198" data-name="Path 198" d="M1062.577,202.3a7.052,7.052,0,0,1,5.381-11.016,9.091,9.091,0,0,1,9.477,8.454c.258,4.1-2.049,8.71-6.4,9.479s-9.478-2.562-9.734-7.173c-.257-3.586-6.149-3.586-5.892,0a14.17,14.17,0,0,0,16.138,12.809c8.2-1.025,12.808-9.479,11.527-17.164-1.28-8.2-9.991-14.09-18.188-11.784-8.2,2.049-12.04,12.3-7.43,19.213,2.051,3.33,7.174.512,5.124-2.818Z" transform="translate(-1055.397 -185.403)" fill="#161616"/>
          </g>
        </g>
        <g id="Group_350" data-name="Group 350" transform="translate(23.368 48.884)">
          <g id="Group_349" data-name="Group 349">
            <path id="Path_199" data-name="Path 199" d="M1062.641,195.456c-5.637-3.586-1.794-11.528,4.354-11.272,7.685.256,9.221,9.222,5.635,14.6-2.049,3.074,2.818,5.892,4.867,2.818,6.4-9.735.257-24.337-12.3-23.056-11.272,1.025-14.858,15.883-5.38,22.031,3.074,2.049,6.148-3.074,2.82-5.124Z" transform="translate(-1054.373 -178.469)" fill="#161616"/>
          </g>
        </g>
        <g id="Group_352" data-name="Group 352" transform="translate(46.336 61.181)">
          <g id="Group_351" data-name="Group 351">
            <path id="Path_200" data-name="Path 200" d="M1070.926,199.743c-3.842-5.38.768-11.016,6.661-10.76a10.623,10.623,0,0,1,9.992,7.941c3.586,11.784-15.627,17.164-16.909,4.355-.256-3.586-6.147-3.586-5.892,0,.769,8.2,8.454,15.114,17.164,13.065a15.565,15.565,0,0,0,11.016-18.957c-2.305-7.942-11.016-13.577-19.213-11.784-8.454,1.793-13.578,11.528-8.2,19.213,2.561,2.818,7.428-.256,5.38-3.074Z" transform="translate(-1063.34 -183.27)" fill="#161616"/>
          </g>
        </g>
        <g id="Group_354" data-name="Group 354" transform="translate(5.079 89.346)">
          <g id="Group_353" data-name="Group 353">
            <path id="Path_201" data-name="Path 201" d="M1056.627,212.289c-5.125-2.818-4.1-9.735,1.024-12.04s10.247.512,12.04,5.636c1.538,4.1,0,8.71-4.354,9.991-3.843,1.025-8.2-.769-9.222-4.611-1.024-3.586-6.4-2.05-5.635,1.537,2.048,7.429,10.5,10.759,17.419,8.454,7.942-2.818,9.735-12.04,6.148-18.957a14.692,14.692,0,0,0-21.519-5.38,12.574,12.574,0,0,0,.769,21.006c3.843,1.281,6.66-3.586,3.33-5.636Z" transform="translate(-1047.234 -194.264)" fill="#161616"/>
          </g>
        </g>
        <g id="Group_356" data-name="Group 356" transform="translate(34.448 90.246)">
          <g id="Group_355" data-name="Group 355">
            <path id="Path_202" data-name="Path 202" d="M1071,216.351c-4.868-1.025-8.71-6.66-6.148-11.528,2.049-4.1,8.709-5.636,12.3-2.562,3.331,3.074,3.587,9.478,0,12.3-3.842,3.074-9.735,1.537-12.3-2.562-2.051-3.074-6.916-.256-4.87,2.818,4.357,7.173,14.86,9.478,21.264,3.586,6.149-5.38,5.635-16.139-.511-21.006-6.4-5.123-16.652-2.818-20.495,4.1-4.354,7.941,1.025,18.188,9.736,19.981,3.073,1.025,4.61-4.355,1.024-5.123Z" transform="translate(-1058.698 -194.615)" fill="#161616"/>
          </g>
        </g>
        <g id="Group_358" data-name="Group 358" transform="translate(54.387 82.379)">
          <g id="Group_357" data-name="Group 357">
            <path id="Path_203" data-name="Path 203" d="M1084.717,197.322c3.074-1.28,4.1,4.355,4.1,6.148a11.392,11.392,0,0,1-3.587,7.429c-4.1,3.843-10.247,3.33-14.6.256-3.074-2.306-5.894,2.818-2.818,4.867,8.709,6.148,21.006,3.33,25.361-6.66,1.793-4.355,2.05-9.735-.512-13.577s-6.66-5.38-10.759-3.33c-3.588,1.537-.512,6.4,2.817,4.867Z" transform="translate(-1066.481 -191.545)" fill="#161616"/>
          </g>
        </g>
        <g id="Group_360" data-name="Group 360" transform="translate(43.976 42.238)">
          <g id="Group_359" data-name="Group 359">
            <path id="Path_204" data-name="Path 204" d="M1068.777,195.408a9.524,9.524,0,0,1,11.015-13.321c7.941,2.306,8.711,12.04,2.819,16.908-2.819,2.305,1.281,6.4,4.1,4.1,9.991-7.941,6.148-24.337-6.4-26.9-12.809-2.562-21.519,10.759-16.4,22.031,1.537,3.33,6.4.512,4.867-2.818Z" transform="translate(-1062.418 -175.875)" fill="#161616"/>
          </g>
        </g>
        <g id="Group_362" data-name="Group 362" transform="translate(67.153 50.028)">
          <g id="Group_361" data-name="Group 361">
            <path id="Path_205" data-name="Path 205" d="M1078.984,194.5c-3.843-3.843-1.025-9.735,4.1-9.991,5.123-.512,8.966,3.843,9.991,8.454,1.025,4.355,0,9.735-3.074,13.065-3.331,3.33-9.735,3.33-11.272-1.793-1.025-3.587-6.659-2.05-5.635,1.537a12.209,12.209,0,0,0,17.933,6.661c7.941-4.611,9.99-15.627,6.661-23.824-3.074-7.429-11.785-12.04-19.725-8.454-7.173,3.33-8.711,13.065-3.075,18.7,2.563,2.306,6.66-1.537,4.1-4.355Z" transform="translate(-1071.465 -178.916)" fill="#161616"/>
          </g>
        </g>
        <g id="Group_364" data-name="Group 364" transform="translate(75.714 77.815)">
          <g id="Group_363" data-name="Group 363">
            <path id="Path_206" data-name="Path 206" d="M1084.524,201.9c-1.792-5.38,4.612-9.478,7.942-4.1,1.792,2.818,1.536,6.917.768,9.991-.768,2.818-2.563,6.66-5.893,7.173-3.329.768-7.684-2.562-6.4-6.148s-4.354-5.123-5.636-1.537c-2.305,6.66,3.844,13.065,10.247,13.577,7.686.256,12.3-6.917,13.321-13.577,1.026-6.917-1.28-16.139-9.221-17.42-7.943-1.025-13.578,6.4-11.017,13.833,1.537,3.33,7.173,1.793,5.892-1.793Z" transform="translate(-1074.807 -189.763)" fill="#161616"/>
          </g>
        </g>
        <g id="Group_366" data-name="Group 366" transform="translate(17.576 109.135)">
          <g id="Group_365" data-name="Group 365">
            <path id="Path_207" data-name="Path 207" d="M1062.071,204.835c-.51-2.562-3.074-3.33-5.378-2.562-2.563,1.025-3.844,3.586-4.356,6.148a15.221,15.221,0,0,0,5.893,14.6c10.759,7.685,24.849-5.123,20.237-16.907-1.281-3.33-6.916-1.793-5.635,1.537,2.05,5.124-1.793,12.553-7.94,12.04a7.465,7.465,0,0,1-5.893-4.355,10.974,10.974,0,0,1-1.281-4.1c0-1.281,1.024-3.074-.257-3.843a10.778,10.778,0,0,1-1.281-1.793v.513c.767,4.1,6.4,2.562,5.89-1.281Z" transform="translate(-1052.113 -201.989)" fill="#161616"/>
          </g>
        </g>
        <g id="Group_368" data-name="Group 368" transform="translate(54.505 104.224)">
          <g id="Group_367" data-name="Group 367">
            <path id="Path_208" data-name="Path 208" d="M1067.226,203.218c-3.332,12.04,5.636,25.361,18.956,22.543a14.046,14.046,0,0,0,5.381-25.105c-2.819-2.306-5.893,2.818-2.819,4.867,6.66,5.123,1.793,14.6-5.635,14.858-8.455.256-12.3-8.454-10.5-15.627,1.28-3.586-4.356-5.123-5.379-1.537Z" transform="translate(-1066.528 -200.072)" fill="#161616"/>
          </g>
        </g>
        <g id="Group_370" data-name="Group 370" transform="translate(38.377 115.901)">
          <g id="Group_369" data-name="Group 369">
            <path id="Path_209" data-name="Path 209" d="M1062.457,205.578a11.136,11.136,0,0,0,4.61,16.907c7.941,3.33,16.139-3.843,17.164-11.528.511-3.586-5.122-5.124-5.636-1.537-.512,3.843-3.843,8.966-8.71,7.941-2.818-.769-5.635-5.124-3.586-7.685,2.563-2.818-1.537-6.917-3.842-4.1Z" transform="translate(-1060.232 -204.63)" fill="#161616"/>
          </g>
        </g>
        <g id="Group_372" data-name="Group 372" transform="translate(50.935 125.846)">
          <g id="Group_371" data-name="Group 371">
            <path id="Path_210" data-name="Path 210" d="M1074.526,228.206c-3.843-2.562-4.354-8.71-1.024-12.04s9.99-2.306,12.552,1.537c2.817,4.1,1.024,10.247-3.074,12.809-4.61,2.562-9.991.512-13.064-3.33-2.306-2.818-6.4,1.281-4.1,4.1,5.123,6.661,15.371,8.454,22.031,3.074,6.149-5.123,7.431-15.37,1.794-21.519-5.381-5.636-15.371-5.892-20.495,0-5.381,6.148-3.587,15.883,2.818,20.238,2.819,2.306,5.636-2.818,2.562-4.867Z" transform="translate(-1065.135 -208.512)" fill="#161616"/>
          </g>
        </g>
        <g id="Group_374" data-name="Group 374" transform="translate(79.549 101.873)">
          <g id="Group_373" data-name="Group 373">
            <path id="Path_211" data-name="Path 211" d="M1084.747,214.642c-3.073-1.281-3.844-5.892-1.536-8.2a6.491,6.491,0,0,1,9.222.512c2.3,2.562,2.56,7.173,0,9.735-2.05,2.049-5.38,2.818-7.174.512-2.306-2.818-6.4,1.281-4.1,4.1,4.1,5.123,11.783,3.33,15.882-1.025,4.612-5.124,3.588-14.09-1.537-18.445s-14.089-3.33-17.676,2.562-.512,13.321,5.636,15.883c3.331,1.281,4.868-4.355,1.281-5.636Z" transform="translate(-1076.303 -199.154)" fill="#161616"/>
          </g>
        </g>
        <g id="Group_376" data-name="Group 376" transform="translate(32.59 126.836)">
          <g id="Group_375" data-name="Group 375">
            <path id="Path_212" data-name="Path 212" d="M1069.315,211.976c-1.794-4.1-6.661-3.842-9.222-.769-2.818,3.33-2.562,8.966-.768,12.809,4.61,8.966,17.163,8.454,22.03,0,1.793-3.33-3.074-6.148-4.868-2.818s-6.66,5.123-9.991,2.562a7.877,7.877,0,0,1-2.818-4.611,4.381,4.381,0,0,1,0-2.562,6.5,6.5,0,0,1,.513-1.793c1.025-.512.768-1.025-.513-1.537,1.281,3.586,6.918,2.049,5.637-1.281Z" transform="translate(-1057.973 -208.899)" fill="#161616"/>
          </g>
        </g>
        <g id="Group_378" data-name="Group 378" transform="translate(72.558 120.769)">
          <g id="Group_377" data-name="Group 377">
            <path id="Path_213" data-name="Path 213" d="M1085.422,211.576c6.15,6.148-.767,15.37-8.454,12.3-3.328-1.281-4.867,4.1-1.537,5.636a13.419,13.419,0,0,0,16.14-5.123,13.969,13.969,0,0,0-2.05-16.907c-2.56-2.818-6.66,1.281-4.1,4.1Z" transform="translate(-1073.574 -206.53)" fill="#161616"/>
          </g>
        </g>
        <g id="Group_380" data-name="Group 380" transform="translate(45.088 147.414)">
          <g id="Group_379" data-name="Group 379">
            <path id="Path_214" data-name="Path 214" d="M1066.05,217.875c-5.893,6.4-3.33,18.188,5.124,20.75,9.221,2.818,18.444-7.941,14.858-16.651-1.537-3.33-6.917-1.793-5.636,1.537,1.793,4.611-2.305,11.528-7.686,9.735-4.355-1.537-5.636-7.941-2.562-11.015,2.562-3.074-1.537-7.173-4.1-4.355Z" transform="translate(-1062.852 -216.932)" fill="#161616"/>
          </g>
        </g>
        <g id="Group_382" data-name="Group 382" transform="translate(66.342 136.549)">
          <g id="Group_381" data-name="Group 381">
            <path id="Path_215" data-name="Path 215" d="M1071.793,228.6c-2.05,5.124,1.025,10.5,5.892,12.553,5.379,2.562,11.271-.256,14.6-4.867,5.379-6.917,5.891-24.337-6.661-23.568-3.587.256-3.587,5.892,0,5.892,5.636-.256,5.38,8.2,3.587,11.528-1.282,2.562-3.331,5.38-6.4,6.148-3.587.768-7.173-2.562-5.893-6.148,1.794-3.587-3.841-5.123-5.123-1.537Z" transform="translate(-1071.148 -212.69)" fill="#161616"/>
          </g>
        </g>
        <g id="Group_384" data-name="Group 384" transform="translate(85.128 122.581)">
          <g id="Group_383" data-name="Group 383">
            <path id="Path_216" data-name="Path 216" d="M1090.312,212.521h0a28.52,28.52,0,0,1-4.354-.513c1.794,3.587,4.612,7.941,3.587,12.04-.77,2.818-4.1,5.636-6.917,3.586-3.074-2.049-5.892,2.818-2.817,4.867,4.61,3.33,10.759.768,13.833-3.586,4.355-6.4.511-14.09-2.562-20.238a2.889,2.889,0,0,0-4.612-.512c-2.561,3.074-2.048,6.66,1.026,8.966,3.074,2.561,5.892-2.306,2.817-4.611Z" transform="translate(-1078.482 -207.238)" fill="#161616"/>
          </g>
        </g>
        <g id="Group_386" data-name="Group 386" transform="translate(53.931 162.712)">
          <g id="Group_385" data-name="Group 385">
            <path id="Path_217" data-name="Path 217" d="M1070.393,226.225c-7.428,5.123-4.1,16.907,4.867,17.676,10.761,1.28,15.628-9.991,14.347-18.957-.513-3.586-6.148-2.049-5.636,1.537.769,4.611-.768,10.759-6.4,11.784-2.048.256-4.354-.256-5.123-2.306a4.24,4.24,0,0,1,.769-4.867c3.074-2.05.256-6.917-2.819-4.867Z" transform="translate(-1066.304 -222.903)" fill="#161616"/>
          </g>
        </g>
        <g id="Group_388" data-name="Group 388" transform="translate(74.017 151.825)">
          <g id="Group_387" data-name="Group 387">
            <path id="Path_218" data-name="Path 218" d="M1074.286,232.606c-1.537,9.735,9.735,16.395,17.419,9.991,8.454-7.173,4.355-19.213-4.61-23.568-3.332-1.793-6.15,3.33-2.819,4.867,4.1,2.05,7.941,6.661,5.637,11.528-1.026,2.05-2.818,3.843-5.125,3.843-2.562,0-5.379-2.306-4.869-5.123.513-3.586-5.122-5.123-5.634-1.537Z" transform="translate(-1074.144 -218.653)" fill="#161616"/>
          </g>
        </g>
        <g id="Group_390" data-name="Group 390" transform="translate(66.236 171.934)">
          <g id="Group_389" data-name="Group 389">
            <path id="Path_219" data-name="Path 219" d="M1071.858,234.18c-3.074,6.66,3.842,13.577,10.759,12.04,7.942-1.537,9.735-10.759,8.711-17.676-.513-3.587-6.15-2.05-5.636,1.537.513,3.33,0,7.685-2.817,9.735a3.453,3.453,0,0,1-4.1.256c-1.024-.512-2.562-1.793-2.048-3.074,1.536-3.331-3.333-6.149-4.868-2.818Z" transform="translate(-1071.107 -226.503)" fill="#161616"/>
          </g>
        </g>
        <g id="Group_392" data-name="Group 392" transform="translate(33.385)">
          <g id="Group_391" data-name="Group 391">
            <path id="Path_220" data-name="Path 220" d="M1069.6,212.192c-5.124-14.6-12.3-45.343,12.041-47.136a19.6,19.6,0,0,0-2.818-2.05c2.561,6.917-4.612,18.189-5.38,25.361a65.109,65.109,0,0,0,.768,18.7c.769,3.587,6.147,2.049,5.636-1.537-2.305-11.272-.256-20.494,3.586-31,1.794-4.611,2.819-8.2,1.025-13.065-.514-1.025-1.538-2.306-2.818-2.049-9.991.768-17.677,7.173-21.264,16.4-4.867,12.552-.255,25.873,3.843,37.914,1.026,3.33,6.661,1.793,5.38-1.537Z" transform="translate(-1058.282 -159.387)" fill="#161616"/>
          </g>
        </g>
      </g>
      <g id="milkshake" transform="translate(345.551 80.99) rotate(-13)">
        <path id="Path_294" data-name="Path 294" d="M64.925,34.431c-.415-3.565-4.137-6.06-7.5-8.329a37.167,37.167,0,0,1-4.311-3.185c-3.206-2.906-4.464-6.023-.378-10.308a27.567,27.567,0,0,0-9.457-.36,20.857,20.857,0,0,0-8.639,3.21,15.213,15.213,0,0,0-5.519,6.477,17.274,17.274,0,0,0-.729,11.1,1.938,1.938,0,0,1-1.834,2.242h-.074a17.876,17.876,0,0,0-4.971,1.27,12.2,12.2,0,0,0-6.1,5.357,12.054,12.054,0,0,0-1.108,8.05,17.3,17.3,0,0,0,2.348,5.815,1.8,1.8,0,0,1-.966,2.629,1.685,1.685,0,0,1-.519.146,16.061,16.061,0,0,0-7.886,3.943,8.786,8.786,0,0,0-2.42,4.181,9.083,9.083,0,0,0,.314,5.009,17.488,17.488,0,0,0,5.058,7.115l.893.012.13.878c.3.24.6.481.917.721l71.833.938c.592-.27,1.154-.555,1.672-.854l.1-.708,1.012.013a12.213,12.213,0,0,0,3.805-4.135,11.764,11.764,0,0,0,1.153-8.035,15.247,15.247,0,0,0-4.156-7.66,16.8,16.8,0,0,0-9.018-4.748.377.377,0,0,1-.119-.029,93.456,93.456,0,0,0-9.934,3.235c-10.478,3.812-22.438,8.161-33.841,3.132A1.864,1.864,0,0,1,33.634,58.9a2.5,2.5,0,0,1,3.1-.822c9.443,4.183,20.321.21,29.865-3.267a96.009,96.009,0,0,1,10.468-3.395c.8-3.966.258-6.976-1.347-9.222-1.559-2.175-4.2-3.739-7.635-4.855A31.963,31.963,0,0,1,56.3,42.9a20.9,20.9,0,0,1-12.2-.688,1.9,1.9,0,0,1-1.207-2.6,2.442,2.442,0,0,1,3.04-.947,15.582,15.582,0,0,0,9.086.452,26.353,26.353,0,0,0,9.9-4.681ZM30.818,138.724a2.137,2.137,0,0,1,1.92-2.464,2.379,2.379,0,0,1,2.687,1.856L36,141.322a2.144,2.144,0,0,1-1.92,2.464,2.388,2.388,0,0,1-2.687-1.856l-.575-3.205Zm-2.864-21.477A2.166,2.166,0,0,1,29.9,114.8a2.4,2.4,0,0,1,2.672,1.884l2.024,12.29a2.166,2.166,0,0,1-1.95,2.449,2.406,2.406,0,0,1-2.672-1.884l-2.024-12.29ZM15.378,103.888c-.149,0-.313,0-.462-.02l5.741,37.782.776,5.1,1.2,7.843c.016.07.017.139.032.209h0c.236,3.549,1.25,6.162,3.056,7.784,1.761,1.594,4.435,2.38,8.081,2.316h.089v-.014l22.927.3c.506.007,1.668.05,2.859.079,4.84.174,10.484.373,13.46-2.132,2.623-2.2,3.017-6.523,3.386-10.467.092-.972.185-1.93.308-2.846l.3-2.374.653-5.08,7.3-57.119a2.48,2.48,0,0,1-.461.022l-72.652-.948L14.3,99.647a2.366,2.366,0,0,1,.787-.157,9.366,9.366,0,0,0,2.11-.306,7.114,7.114,0,0,0,1.5-.578c6.288-3.144,11.827-1.778,16.829-.531,4.524,1.116,8.5,2.1,11.524-2.227a2.422,2.422,0,0,1,3.223-.584,2.132,2.132,0,0,1,.706,3.026c-4.829,6.917-10.308,5.566-16.534,4.011-4.18-1.042-8.794-2.173-13.469.172a11.94,11.94,0,0,1-2.415.914,12.653,12.653,0,0,1-3.179.5ZM68.7,31.13,73.717,11.8a4.412,4.412,0,0,1,2.435-2.944L92.4.5A5.093,5.093,0,0,1,95.979.188a4.965,4.965,0,0,1,2.944,2.18l.046.084a4.307,4.307,0,0,1,.443,3.371,4.47,4.47,0,0,1-2.26,2.7l-14.468,7.43L77.034,37.467a14.4,14.4,0,0,1,2.654,2.788c2.165,3.018,2.956,6.838,2.017,11.692a21.675,21.675,0,0,1,9.416,5.587A19.289,19.289,0,0,1,96.326,67.1a14.965,14.965,0,0,1-1.513,10.325,15.577,15.577,0,0,1-3.845,4.552l-8.787,68.584c-.109.847-.187,1.749-.28,2.666-.462,4.874-.948,10.221-5.089,13.726-4.553,3.848-11.373,3.606-17.226,3.4-.73-.023-1.46-.061-2.74-.077l-22.927-.3v-.014c-5.135.072-9.125-1.217-11.969-3.813l-.136-.127-.136-.127-.136-.127-.135-.127-.121-.127-.121-.127c-.045-.056-.075-.084-.121-.141l-.121-.127-.121-.141-.121-.127-.121-.141-.106-.127-.106-.14-.106-.14-.106-.14-.106-.14-.106-.14-.106-.14h0l-.091-.14-.091-.154-.091-.154h0l-.091-.154-.091-.154-.091-.154-.091-.154-.076-.154h0l-.076-.168-.076-.168-.076-.168-.076-.168h0l-.076-.168-.076-.168-.062-.168-.062-.182-.062-.182-.062-.182h0l-.062-.182-.062-.182-.062-.182-.047-.181h0l-.047-.2-.062-.2h0l-.047-.2h0l-.047-.2h0l-.062-.2-.047-.2h0l-.047-.2h0l-.047-.2-.047-.209h0l-.047-.209h0l-.047-.209-.047-.209h0l-.047-.209h0l-.032-.209h0l-.032-.209h0l-.018-.237h0l-.032-.223-.032-.223h0l-.032-.223-.032-.223-.032-.223-.018-.223-.018-.237-.018-.223-1.614-10.393a2.036,2.036,0,0,1-.065-.418L5.911,80.545a20.558,20.558,0,0,1-5.2-7.854A12.458,12.458,0,0,1,.3,65.845a12.383,12.383,0,0,1,3.4-5.907,19.035,19.035,0,0,1,7.7-4.474,21.482,21.482,0,0,1-1.7-4.986,15.181,15.181,0,0,1,1.484-10.27,16.462,16.462,0,0,1,8.145-7.152,22.8,22.8,0,0,1,4.122-1.295,20.032,20.032,0,0,1,1.293-11.287,19.137,19.137,0,0,1,6.943-8.113A25.642,25.642,0,0,1,42.387,8.4,33.336,33.336,0,0,1,57.722,9.88a2.493,2.493,0,0,1,.854.5,1.777,1.777,0,0,1-.071,2.78c-4.335,3.419-3.969,5.412-2.087,7.133a43.119,43.119,0,0,0,3.814,2.775h0c3.3,2.2,6.858,4.58,8.463,8.063Zm-33.76-3.722a1.73,1.73,0,0,1,1.82,1.553,1.629,1.629,0,0,1-1.783,1.506,1.73,1.73,0,0,1-1.82-1.553,1.62,1.62,0,0,1,1.783-1.506ZM46.669,68.341a1.962,1.962,0,0,1,2.06,1.751,1.847,1.847,0,0,1-2.019,1.7,1.962,1.962,0,0,1-2.06-1.751,1.838,1.838,0,0,1,2.019-1.7ZM20.876,64.932a1.962,1.962,0,0,1,2.06,1.751,1.847,1.847,0,0,1-2.019,1.7,1.962,1.962,0,0,1-2.06-1.751,1.838,1.838,0,0,1,2.019-1.7Zm58.112,2.413a1.978,1.978,0,0,1,2.076,1.765,1.852,1.852,0,0,1-2.034,1.7,1.962,1.962,0,0,1-2.06-1.751,1.857,1.857,0,0,1,2.019-1.712Zm-41.9,5.932a.871.871,0,0,1,.118-1.361,1.281,1.281,0,0,1,1.609.146l2.652,2.676a.871.871,0,0,1-.118,1.361,1.281,1.281,0,0,1-1.609-.146l-2.652-2.676Zm-25.808-3.41a.862.862,0,0,1,.118-1.361A1.281,1.281,0,0,1,13,68.652l2.652,2.676a.871.871,0,0,1-.118,1.361,1.281,1.281,0,0,1-1.609-.146l-2.652-2.676ZM69.4,72.294a.871.871,0,0,1,.118-1.361,1.281,1.281,0,0,1,1.609.146l2.652,2.676a.87.87,0,0,1-.118,1.361,1.281,1.281,0,0,1-1.609-.146L69.4,72.294Z" transform="translate(0 0)" fill-rule="evenodd"/>
      </g>
      <g id="sandwich" transform="translate(24.219 545.65) rotate(17)">
        <path id="Path_295" data-name="Path 295" d="M105.133,67.436c1.767,1.38,3.064,3.141,5.277,4.448h.013l.115.075.09.05.115.062.064.037.128.075.09.05.128.062.077.037.128.062.09.05.153.062.051.025c.051.025.1.05.166.075l.077.025.166.063.051.025a1.028,1.028,0,0,0,.179.063l.051.025a1.158,1.158,0,0,0,.192.063l.051.025a.986.986,0,0,0,.2.063l.038.013a2.03,2.03,0,0,0,.217.063l.051.013c.064.025.14.038.2.063l.051.013c.077.025.166.038.243.063l.038.013c.077.025.153.038.243.063l.038.013c.089.025.166.038.255.063l.038.013c.077.013.166.038.255.051l.038.013c.089.013.179.038.268.051h.038l.268.038.051.013c.089.013.179.025.281.038h.038l.294.038h.038l.306.038h.013a2.775,2.775,0,0,0,.319.026h.038c.1.013.217.013.332.026h.026a2.98,2.98,0,0,0,.332.014h.038c.115,0,.23.013.357.014l.4,0h.013c.128,0,.255-.011.383-.023h.013l.37-.036h0c.127-.012.242-.036.37-.06h.013c.115-.024.229-.048.357-.073h.026c.115-.024.229-.061.344-.085l.025-.012c.115-.037.229-.073.331-.11l.038-.012.306-.11.038-.012c.1-.037.2-.086.293-.122l.051-.025c.1-.049.191-.086.293-.135l.013-.037c.089-.049.178-.086.267-.135l.064-.037c.089-.049.178-.1.254-.135l.1-.049c.076-.049.153-.086.229-.135l.114-.061.229-.147.114-.074c2.06-1.314,4.053-3.148,6.495-4.534l-23.941-.1Zm38.8-.131c.166.063.332.137.511.212l.064.025c.23.1.473.212.716.324l.089.037c.243.112.486.225.742.349l.077.037c.256.125.511.249.767.387l.077.037c.281.15.55.3.844.449.026.012.064.037.09.05h0a.639.639,0,0,0,.089.037h.013c.026.012.064.025.089.037h0a1.156,1.156,0,0,0,.192.063h0c.026.012.064.013.089.025h0c.025,0,.051.013.089.013h.013c.026,0,.051.013.089.013h.025l.077.013h.5l.076-.012h.025l.064-.012h.051l.064-.012h.026l.089-.012c1.657-.314,3.474-1.679,4.8-1.71a43.446,43.446,0,0,0-3.347-3.649l-7.088,3.3Zm-92.318-.1c-1.753,1.365-3.033,3.115-5.233,4.4h-.013l-.114.074-.089.049-.114.061-.064.037-.127.074-.089.049-.127.061-.076.037-.127.061-.089.049-.153.061-.051.025c-.051.025-.1.049-.165.073l-.076.024-.166.061-.051.025a1.012,1.012,0,0,1-.178.061l-.051.025a1.139,1.139,0,0,1-.191.061l-.051.024a.97.97,0,0,1-.2.061l-.038.012a2,2,0,0,1-.217.061l-.051.012c-.064.024-.14.036-.2.061l-.051.012c-.076.024-.166.036-.242.061l-.038.012c-.076.024-.153.036-.242.061l-.038.012c-.089.024-.166.036-.255.061l-.038.012c-.076.012-.166.036-.255.048l-.038.012c-.089.012-.178.036-.268.048H42l-.268.036-.051.012c-.089.012-.178.024-.28.036h-.038l-.293.036h-.038l-.306.036h-.013a2.76,2.76,0,0,1-.319.023h-.038c-.1.012-.217.011-.332.023H40a2.97,2.97,0,0,1-.332.011H39.63c-.115,0-.23.011-.357.011l-.4,0h-.013c-.128,0-.255-.013-.383-.026h-.013l-.37-.039h0c-.128-.013-.243-.038-.37-.063h-.013c-.115-.025-.23-.05-.358-.076h-.026c-.115-.025-.23-.063-.345-.088l.038-.025c-.115-.038-.23-.075-.332-.113l-.038-.013-.307-.113-.038-.013c-.1-.038-.2-.087-.294-.125l-.051-.025c-.1-.05-.192-.087-.294-.137l-.064-.025c-.09-.05-.179-.087-.269-.137l-.064-.037c-.09-.05-.179-.1-.256-.137l-.1-.05c-.077-.05-.153-.087-.23-.137l-.115-.062-.23-.149-.115-.075c-2.073-1.332-4.085-3.182-6.541-4.59l23.928.1Zm-38.8-.462c-.166.061-.331.135-.509.208l-.064.024c-.229.1-.471.208-.713.318l-.089.049c-.242.11-.484.22-.738.343l-.076.037c-.254.123-.509.245-.763.38l-.076.037c-.28.147-.547.294-.84.441-.025.012-.064.037-.089.049h0a.626.626,0,0,1-.089.037H8.753c-.025.012-.064.024-.089.037h0a1.137,1.137,0,0,1-.191.061h0c-.025.012-.064.012-.089.024h0c-.026,0-.051.012-.089.012H8.281c-.026,0-.051.012-.089.012H8.167l-.076.012h-.5l-.077-.013h-.14L7.312,68.8H7.287L7.2,68.787c-1.66-.329-3.491-1.709-4.817-1.751a42.265,42.265,0,0,1,3.311-3.621l7.121,3.331Zm-8.42-5.389A35.174,35.174,0,0,0,1.17,64.805c-.862,1,.368-.419-.621.727a2.253,2.253,0,0,0,.31,3.24,2.378,2.378,0,0,0,1.457.538h0a8.406,8.406,0,0,1,1.483.612,21.4,21.4,0,0,0,1.968.849,9.092,9.092,0,0,0-.782,1.7,6.248,6.248,0,0,0,.28,4.971A7.643,7.643,0,0,0,8.954,80.8a21.029,21.029,0,0,0,9.688,1.488h0l59.833.255,59.833.255h0a21.181,21.181,0,0,0,9.674-1.405,7.442,7.442,0,0,0,3.657-3.322,6.226,6.226,0,0,0,.23-4.969,9.286,9.286,0,0,0-.8-1.71,20.969,20.969,0,0,0,1.96-.832,7.07,7.07,0,0,1,1.477-.6h0a2.474,2.474,0,0,0,1.451-.525,2.254,2.254,0,0,0,.277-3.238c-1-1.154.244.273-.629-.732a37.838,37.838,0,0,0-3.257-3.476,6.8,6.8,0,0,0,.014-4.871,15.707,15.707,0,0,0-4.725-6.3c-.1-.1-.205-.186-.307-.273L85.677,2.979h0A11.558,11.558,0,0,0,78.048,0h-.026a11.326,11.326,0,0,0-7.587,2.91h0L9.3,49.967a2.109,2.109,0,0,0-.3.271A15.3,15.3,0,0,0,4.329,56.5a6.842,6.842,0,0,0,.063,4.859ZM86.078,32.022c.595,1.56-.531,3.385-2.5,4.082s-4.069,0-4.663-1.565.531-3.385,2.5-4.082,4.069.017,4.663,1.565Zm-5-12.755a1.246,1.246,0,0,1-.924,1.5,1.338,1.338,0,0,1-1.725-.576,1.246,1.246,0,0,1,.924-1.5,1.321,1.321,0,0,1,1.725.576ZM69.2,26.868a2.453,2.453,0,0,1-1.809,2.959A2.6,2.6,0,0,1,64.022,28.7a2.453,2.453,0,0,1,1.809-2.959A2.6,2.6,0,0,1,69.2,26.868ZM84.071,46.3a2.453,2.453,0,0,1-1.809,2.959,2.6,2.6,0,0,1-3.373-1.127A2.453,2.453,0,0,1,80.7,45.178,2.583,2.583,0,0,1,84.071,46.3ZM98.976,45.28c.452,1.164-.4,2.545-1.885,3.058a2.69,2.69,0,0,1-3.5-1.177c-.452-1.176.4-2.545,1.885-3.058a2.7,2.7,0,0,1,3.5,1.177Zm2.608-11.462c.452,1.164-.4,2.545-1.885,3.058A2.69,2.69,0,0,1,96.2,35.7c-.452-1.164.4-2.545,1.885-3.058a2.685,2.685,0,0,1,3.5,1.177ZM66.358,67.271l24.03.1c-6.955,6.894-13,9.724-24.03-.1Zm11.95-12.856-63.889-.272,60.1-46.254h0c.025-.025.064-.049.089-.074a5.191,5.191,0,0,1,3.3-1.482.751.751,0,0,1,.166.013c.051,0,.115-.012.166-.012a5.293,5.293,0,0,1,3.311,1.51c.026.025.064.05.09.075h0L142.2,54.687l-63.889-.272Zm62.57,14.274c-6.974-2.07-10.787.745-14.128,3.265l18.176.077c-.359-.372-.769-.77-1.23-1.167l-.013-.012-2.8-2.163Zm-34.345,3.179c-.4-.36-.782-.733-1.166-1.093a18.216,18.216,0,0,0-2.191-1.9,7.645,7.645,0,0,0-2.11-1.047,5.273,5.273,0,0,0-1.94-.243c-3.2.184-6.251,2.285-9.035,4.214l16.441.07ZM15.88,68.156c6.954-2.01,10.795.837,14.162,3.386l-18.176-.077c.355-.369.761-.763,1.219-1.157L13.1,70.3l2.783-2.139Zm34.378,3.472c.394-.357.774-.726,1.155-1.083a17.722,17.722,0,0,1,2.172-1.882,7.48,7.48,0,0,1,2.1-1.03,5.239,5.239,0,0,1,1.938-.227c3.2.211,6.274,2.339,9.077,4.292l-16.441-.07Z" transform="translate(0 0)" fill-rule="evenodd"/>
      </g>
    </g>
  </g>
</svg>
