<svg xmlns="http://www.w3.org/2000/svg" viewBox="0 0 369.761 314.5"><g data-name="Group 2"><g data-name="Group 1"><path fill="#e8e8e8" d="M39.821 251.2h272.451a.458.458 0 0 0 0-.914H39.821a.458.458 0 0 0 0 .914Z" data-name="Path 1"/></g></g><g data-name="Group 4"><g data-name="Group 3"><path fill="#e8e8e8" d="M226.035 256.866h92.3a.458.458 0 0 0 0-.914h-92.3a.458.458 0 0 0 0 .914Z" data-name="Path 2"/></g></g><g data-name="Group 6"><g data-name="Group 5"><path fill="#e8e8e8" d="M21.209 259.303h82.156a.458.458 0 0 0 0-.914H21.209a.457.457 0 1 0 0 .914Z" data-name="Path 3"/></g></g><g data-name="Group 8"><g data-name="Group 7"><path fill="#e8e8e8" d="M63.703 264.146h86.6a.458.458 0 0 0 0-.914h-86.6a.458.458 0 0 0 0 .914Z" data-name="Path 4"/></g></g><g data-name="Group 10"><g data-name="Group 9"><path fill="#e8e8e8" d="M6.222 271.853H76.65a.458.458 0 0 0 0-.914H6.222a.458.458 0 0 0 0 .914Z" data-name="Path 5"/></g></g><g data-name="Group 12"><g data-name="Group 11"><path fill="#e8e8e8" d="M308.617 273.467h60.711a.458.458 0 0 0 0-.914h-60.711a.458.458 0 0 0 0 .914Z" data-name="Path 6"/></g></g><g data-name="Group 14"><g data-name="Group 13"><path fill="#e8e8e8" d="M171.112 300.487h93.061a.458.458 0 0 0 0-.914h-93.061a.458.458 0 0 0 0 .914Z" data-name="Path 7"/></g></g><g data-name="Group 16"><g data-name="Group 15"><path fill="#e8e8e8" d="M217.658 306.975h82.734a.458.458 0 0 0 0-.914h-82.734a.458.458 0 0 0 0 .914Z" data-name="Path 8"/></g></g><g data-name="Group 18"><g data-name="Group 17"><path d="M36.989 255.769h108.779a.914.914 0 0 0 0-1.828H36.989a.915.915 0 0 0 0 1.828Z" data-name="Path 9"/></g></g><g data-name="Group 20"><g data-name="Group 19"><path d="M193.44 254.307h93.883a.914.914 0 0 0 0-1.828H193.44a.914.914 0 0 0 0 1.828Z" data-name="Path 10"/></g></g><g data-name="Group 22"><g data-name="Group 21"><path d="M31.688 304.874h102.535a.914.914 0 0 0 0-1.828H31.688a.915.915 0 0 0 0 1.828Z" data-name="Path 11"/></g></g><g data-name="Group 24"><g data-name="Group 23"><path d="M.891 305.331h22.634a.914.914 0 0 0 0-1.828H.891a.914.914 0 0 0 0 1.828Z" data-name="Path 12"/></g></g><g data-name="Group 26"><g data-name="Group 25"><path d="M121.703 311.606h25.527a.914.914 0 0 0 0-1.828h-25.527a.915.915 0 0 0 0 1.828Z" data-name="Path 13"/></g></g><g data-name="Group 28"><g data-name="Group 27"><path d="M192.953 308.224h17.333a.914.914 0 0 0 0-1.828h-17.333a.915.915 0 0 0 0 1.828Z" data-name="Path 14"/></g></g><g data-name="Group 30"><g data-name="Group 29"><path d="M205.96 314.5h84.258a.914.914 0 0 0 0-1.828H205.96a.914.914 0 0 0 0 1.828Z" data-name="Path 15"/></g></g><g data-name="Group 32"><g data-name="Group 31"><path d="M241.113 307.28h68.356a.914.914 0 0 0 0-1.828h-68.356a.914.914 0 0 0 0 1.828Z" data-name="Path 16"/></g></g><g data-name="Group 34"><g data-name="Group 33"><path d="M319.552 305.331h12.033a.914.914 0 0 0 0-1.828h-12.033a.915.915 0 0 0 0 1.828Z" data-name="Path 17"/></g></g><g data-name="Group 36"><g data-name="Group 35"><path d="M283.455 260.095h23.121a.914.914 0 0 0 0-1.828h-23.121a.915.915 0 0 0 0 1.828Z" data-name="Path 18"/></g></g><g data-name="Group 38"><g data-name="Group 37"><path fill="#e8e8e8" d="M40.612 250.106a53.422 53.422 0 0 1-5.422-20.988c-.03-.579-.944-.579-.914 0a54.686 54.686 0 0 0 5.544 21.445c.274.518 1.036.061.792-.457Z" data-name="Path 19"/></g></g><g data-name="Group 40"><g data-name="Group 39"><path fill="#e8e8e8" d="M35.344 229.145c4.447.548 8.956 1.4 13.434 1.523 4.326.091 8.59-.853 12.794-1.767.579-.122.335-1.005-.244-.883-4.326.944-8.682 1.919-13.129 1.706-4.3-.183-8.59-.975-12.824-1.493-.609-.061-.609.853-.03.914Z" data-name="Path 20"/></g></g><g data-name="Group 42"><g data-name="Group 41"><path fill="#e8e8e8" d="M60.931 228.719a59.215 59.215 0 0 1-4.417 21.11c-.213.548.67.792.883.244a59.107 59.107 0 0 0 4.447-21.354c.03-.579-.883-.579-.914 0Z" data-name="Path 21"/></g></g><g data-name="Group 44"><g data-name="Group 43"><path fill="#e8e8e8" d="M40.278 228.811a28.861 28.861 0 0 1-3.595-5.148 31.682 31.682 0 0 1-1.4-2.894c-.366-.883-1.675-4.6.975-4.051.3.061.7-.213.548-.548a65.1 65.1 0 0 1-2.132-7.951 71.3 71.3 0 0 1-1.614-8.377 24.85 24.85 0 0 1-.152-3.991c.03-.914.244-4.935 2.376-2.8a15.7 15.7 0 0 1 2.041 3.29c.67 1.158 1.279 2.346 1.889 3.534a69.641 69.641 0 0 1 7.25 30.4.458.458 0 0 0 .914 0 69.935 69.935 0 0 0-9.139-34.148c-.792-1.371-1.767-3.869-3.351-4.508-3.747-1.493-2.924 6.732-2.742 8.255a113.576 113.576 0 0 0 3.747 16.571l.548-.548a2.195 2.195 0 0 0-2.5 1.188c-.609 1.188-.152 2.589.3 3.747a30.223 30.223 0 0 0 5.3 8.682.511.511 0 0 0 .731-.7Z" data-name="Path 22"/></g></g><g data-name="Group 46"><g data-name="Group 45"><path fill="#e8e8e8" d="M45.639 216.442c-.152-1.158-.366-7.8 2.01-7.311a.463.463 0 0 0 .579-.426c.518-4.356 1.036-8.8 2.8-12.855a16.71 16.71 0 0 1 1.675-3.077c.579-.822 1.675-1.158 2.315-.183a4.632 4.632 0 0 1 .487 1.279 37.006 37.006 0 0 1 .975 7.311c.426 9.717-2.071 19.282-4.508 28.634a.458.458 0 0 0 .883.244c2.955-11.24 6-23.06 3.9-34.726-.244-1.4-.518-3.747-2.132-4.356-1.858-.7-3.046 1.828-3.716 3.107-2.376 4.508-2.985 9.656-3.564 14.622a7.028 7.028 0 0 1 .579-.426c-3.5-.731-3.412 6.214-3.168 8.194.061.548.975.579.883-.03Z" data-name="Path 23"/></g></g><g data-name="Group 48"><g data-name="Group 47"><path fill="#e8e8e8" d="M34.186 229.998a63.108 63.108 0 0 0 16.6 20.836c.457.366 1.1-.274.64-.64a61.92 61.92 0 0 1-16.449-20.653c-.244-.518-1.036-.061-.792.457Z" data-name="Path 24"/></g></g><g data-name="Group 50"><g data-name="Group 49"><path fill="#e8e8e8" d="m41.132 229.725 8.712 9.534c2.437 2.681 4.813 5.635 8.042 7.4.518.274.975-.518.457-.792-3.32-1.8-5.757-4.935-8.255-7.676-2.772-3.046-5.544-6.062-8.316-9.108-.4-.426-1.036.213-.64.64Z" data-name="Path 25"/></g></g><g data-name="Group 52"><g data-name="Group 51"><path fill="#e8e8e8" d="M50.209 230.577a53.517 53.517 0 0 0 9.321 9.961c.457.366 1.1-.274.64-.64a55.769 55.769 0 0 1-9.169-9.778c-.335-.457-1.127 0-.792.457Z" data-name="Path 26"/></g></g><g data-name="Group 54"><g data-name="Group 53"><path fill="#e8e8e8" d="m57.55 229.481 3.381 3.838c.4.457 1.036-.213.64-.64l-3.381-3.838c-.4-.426-1.036.213-.64.64Z" data-name="Path 27"/></g></g><path fill="#fff" d="m153.809 207.791.548 5.361q33.4-.229 66.833-.426c-.244-1.706-.487-3.381-.731-5.087a87.812 87.812 0 0 0-66.651.152Z" data-name="Path 101"/><g data-name="Group 202"><g data-name="Group 201"><path fill="#161616" d="M154.266 213.488h66.772a.914.914 0 0 0 0-1.828h-66.772a.914.914 0 0 0 0 1.828Z" data-name="Path 102"/></g></g><g data-name="Group 204"><g data-name="Group 203"><path fill="#161616" d="M155.119 208.218a75.445 75.445 0 0 1 52.608-4.508 76.969 76.969 0 0 1 12 4.508c1.066.518 1.98-1.066.914-1.584a77.242 77.242 0 0 0-55.928-4.112 82.079 82.079 0 0 0-10.54 4.112c-1.036.518-.091 2.1.944 1.584Z" data-name="Path 103"/></g></g><g data-name="Group 206"><g data-name="Group 205"><path fill="#161616" d="M152.926 207.761v3.869a.914.914 0 0 0 1.828 0v-3.869a.914.914 0 0 0-1.828 0Z" data-name="Path 104"/></g></g><g data-name="Group 208"><g data-name="Group 207"><path fill="#161616" d="M220.094 207.761v5.148a.914.914 0 0 0 1.828 0v-5.148a.914.914 0 0 0-1.828 0Z" data-name="Path 105"/></g></g><g data-name="Group 210"><g data-name="Group 209"><path fill="#161616" d="M187.531 213.214v64.975a.914.914 0 0 0 1.828 0v-64.975a.915.915 0 0 0-1.828 0Z" data-name="Path 106"/></g></g><g data-name="Group 212"><g data-name="Group 211"><path fill="#161616" d="M187.196 278.098c-5 2.315-9.961 4.6-14.957 6.915-1.066.487-.152 2.071.914 1.584 5-2.315 9.961-4.6 14.957-6.915 1.066-.518.152-2.071-.914-1.584Z" data-name="Path 107"/></g></g><g data-name="Group 214"><g data-name="Group 213"><path fill="#161616" d="m187.987 279.319 16.906 7.4c1.066.457 2.01-1.1.914-1.584l-16.906-7.4c-1.066-.457-1.98 1.127-.914 1.584Z" data-name="Path 108"/></g></g><g data-name="Group 216"><g data-name="Group 215"><path fill="#161616" d="M172.818 287.358c10.723-.091 21.415-.335 32.137-.762 1.158-.061 1.188-1.889 0-1.828q-16.038.64-32.137.761a.914.914 0 0 0 0 1.828Z" data-name="Path 109"/></g></g><g data-name="Group 218"><g data-name="Group 217"><path fill="#161616" d="M174.981 214.128a144.847 144.847 0 0 1 11.728 14.9c.67.975 2.254.061 1.584-.914a145.086 145.086 0 0 0-12.032-15.292c-.762-.853-2.041.427-1.279 1.31Z" data-name="Path 110"/></g></g><g data-name="Group 220"><g data-name="Group 219"><path fill="#161616" d="M204.01 212.451a78.894 78.894 0 0 0-16.267 16.054c-.7.944.883 1.858 1.584.914a75.412 75.412 0 0 1 15.6-15.383c.944-.7.061-2.285-.914-1.584Z" data-name="Path 111"/></g></g><path fill="#161616" stroke="#161616" stroke-miterlimit="10" stroke-width="3" d="M119.51 257.78c.731 6.488 1.432 12.977 2.163 19.465q-16.084 13.3-14.622 15.627c1.157 1.828 10.3-1.279 27.477-9.413q-1.325-12.52-2.681-25.04Z" data-name="Path 112"/><path fill="#74b0a6" d="M171.387 167.978a33.973 33.973 0 0 1 1.706 19.465c-.944 4.326-2.833 8.56-8.712 16.449a153.008 153.008 0 0 1-23.76 25.1 53.2 53.2 0 0 0-4.112 15.353 51.822 51.822 0 0 0 1.706 19.892 21.742 21.742 0 0 1-24.034-.883 110.744 110.744 0 0 1-1.4-22.694 112.166 112.166 0 0 1 3.381-22.938 172.545 172.545 0 0 1 14.53-13.83c9.474-8.011 13.677-9.9 17.7-15.353 3.046-4.173 6.366-10.936 6.062-21.841 5.601.401 11.267.854 16.933 1.28Z" data-name="Path 113"/><path fill="#3d3d3d" d="M167.395 168.101c-3.655 2.041-1.675 9.748-2.346 17.15-.822 8.956-5.3 14.987-11.575 23.456a74.185 74.185 0 0 1-22.877 20.227l-4.386 38.564a23.91 23.91 0 0 0 4.691-.579 24.261 24.261 0 0 0 7.189-2.924 35.432 35.432 0 0 1-1.615-6.61 42.886 42.886 0 0 1-.3-8.347 52.982 52.982 0 0 1 1.188-11 46.52 46.52 0 0 1 2.924-8.8c2.132-1.919 4.3-3.93 6.458-6a172.574 172.574 0 0 0 12.154-12.459 89.8 89.8 0 0 0 10.57-14.5 32.321 32.321 0 0 0 2.924-6.153 31.2 31.2 0 0 0 .883-15.109 34.459 34.459 0 0 0-1.919-7.037 5.127 5.127 0 0 0-3.963.121Z" data-name="Path 114" opacity=".12"/><path fill="#3d3d3d" d="M140.133 229.39a42.452 42.452 0 0 0-6.306 13.495c-.518 1.95-.762 3.564-1.767 11.728-.609 5.057-1.1 9.321-1.462 12.459 2.437-.914 4.874-1.858 7.341-2.772a53.334 53.334 0 0 1-1.919-14.073 56.8 56.8 0 0 1 4.112-20.836Z" data-name="Path 115" opacity=".16"/><path fill="#161616" stroke="#161616" stroke-miterlimit="10" stroke-width="3" d="M147.474 259.577c.731 6.488 1.432 12.977 2.163 19.465q-16.084 13.3-14.622 15.627c1.157 1.828 10.3-1.279 27.477-9.413q-1.325-12.52-2.681-25.04Z" data-name="Path 116"/><path fill="#74b0a6" d="M188.11 172.791a58.928 58.928 0 0 1 2.01 17.577 60.855 60.855 0 0 1-2.01 12.977c-4.691 15.2-22.6 24.126-27.659 26.471.426 3.625.914 7.25 1.432 10.936 1.127 8.012 2.346 15.81 3.716 23.425a17.986 17.986 0 0 1-11.971 5.361 18.4 18.4 0 0 1-12.55-4.082 60.7 60.7 0 0 1-5.422-26.989 59.866 59.866 0 0 1 3.138-17.059 1243.462 1243.462 0 0 1 16.267-21.9c7.128-9.382 8.925-11.423 10.54-16.053 2.559-7.219 1.432-11.3 4.843-13.495 2.435-1.56 7.217-2.16 17.666 2.831Z" data-name="Path 117"/><path fill="#410046" d="M179.763 175.898c-3.808 5.057-2.315 10.052-3.99 16.48-2.346 9.078-7.8 15.2-15.536 23.882a103.4 103.4 0 0 1-9.656 9.474q3.107 21.613 6.245 43.2a13.3 13.3 0 0 0 4.2-1.34 13.073 13.073 0 0 0 4.326-3.594c-.3-1.98-.609-3.991-.883-5.971q-2.1-14.119-4.052-28.3a104.857 104.857 0 0 0 7.189-3.838 57.578 57.578 0 0 0 9.474-6.549 37.521 37.521 0 0 0 6.153-6.671 35.424 35.424 0 0 0 6.153-14.348c.274-1.614.426-3.564.518-4.569.061-.579.365-4.3.3-7.494a52.258 52.258 0 0 0-2.063-13.347 4.126 4.126 0 0 0-2.193-1.066c-2.834-.366-5.267 2.833-6.185 4.051Z" data-name="Path 118" opacity=".18"/><path fill="#3d3d3d" d="M160.329 230.09a419.731 419.731 0 0 0-1.493 38.412 19.808 19.808 0 0 0 3.442-1.706 20.536 20.536 0 0 0 3.2-2.528q-2.56-17.135-5.149-34.178Z" data-name="Path 119" opacity=".16"/><path fill="#fff" d="M153.322 109.796a17.686 17.686 0 0 0-6.824 4.691c-.731.853-2.772 3.32-4.569 11.971-1.828 8.773-2.863 16.937-2.863 16.937-.365 2.924-.7 5.818-2.863 7.067a5.766 5.766 0 0 1-4.9.091c-1.462-.609-2.163-1.736-3.625-3.96-1.066-1.645-1.767-2.742-1.919-4.265-.122-1.249.213-2.01.853-3.838 1.31-3.838 2.071-6.153 2.01-8.834-.03-1.066-.091-3.9-1.706-4.691a1.784 1.784 0 0 0-1.706 0c-.487.366-.366 1.036-.427 2.5-.061 2.01-.122 3.016-.64 3.534-.853.853-2.589.457-3.625.213-.792-.183-3.716-.883-5.118-3.32-.457-.822-.274-.944-1.066-6.031-.3-2.01-.609-3.594-1.371-3.747-.64-.122-1.188.762-1.8.518s-.427-1.279-.944-1.462c-.548-.183-.975.822-1.919.822-.761 0-.975-.609-1.493-.518-.731.152-1.036 1.493-1.279 2.589a14.257 14.257 0 0 0-.3 3.625 1.827 1.827 0 0 0-1.371.823c-.3.579.061 1.127.426 2.406.518 1.706.213 1.8.64 3.016a10.1 10.1 0 0 0 1.706 2.924 17.256 17.256 0 0 0 4.569 4.478 16.087 16.087 0 0 0 7.555 2.406 25.459 25.459 0 0 1 1.279 3.016 29.513 29.513 0 0 1 1.279 6.639 19.6 19.6 0 0 0 5.635 10.509 13.359 13.359 0 0 0 6.823 3.96 11.949 11.949 0 0 0 8.712-1.554c1.158-.762 2.346-1.919 4.265-5.6a49.432 49.432 0 0 0 4.143-11.027 94.921 94.921 0 0 0 2.863-17.15 97.631 97.631 0 0 0-.43-18.738Z" data-name="Path 120"/><g data-name="Group 222"><g data-name="Group 221"><path fill="#161616" d="M150.946 110.13c-4.691 2.528-7.433 7.28-8.834 12.307-1.767 6.306-2.315 13.038-3.29 19.5-.427 2.772-.792 7.372-3.93 8.56-2.955 1.127-6.123-2.711-7.25-5.026-1.462-2.985-1.127-6.031-.152-9.108.823-2.589 1.828-5.209 1.523-8.011-.152-1.218-1.157-4.9-3.016-4.508-.914.183-1.34 1.584-1.523 2.346-.274 1.066 0 5.757-1.98 5.209a.458.458 0 0 0-.244.883c2.315.67 2.742-1.98 2.863-3.655a10.663 10.663 0 0 1 .366-2.62c.457-1.34 1.432-.762 1.95.183a7.825 7.825 0 0 1 .64 4.783c-.427 3.107-2.01 5.91-2.315 9.017a11.3 11.3 0 0 0 1.645 6.915 10.84 10.84 0 0 0 5.331 4.63c2.285.792 4.356-1.127 5.392-3.016 1.462-2.65 1.584-5.971 2.01-8.895.518-3.442 1.005-6.884 1.554-10.327 1.1-6.976 3.016-14.713 9.748-18.338.518-.3.031-1.1-.487-.822Z" data-name="Path 121"/></g></g><g data-name="Group 224"><g data-name="Group 223"><path fill="#161616" d="M152.439 135.14a77.739 77.739 0 0 1-4.173 17.577c-1.858 5.026-5.27 10.448-11.18 10.905-5.635.426-10.3-3.564-12.824-8.286a33.1 33.1 0 0 1-2.863-8.072c-.609-2.589-.853-5.392-2.224-7.707a.457.457 0 0 0-.792.457c1.31 2.224 1.523 5 2.132 7.494a37.309 37.309 0 0 0 2.193 6.763c1.736 3.9 4.6 7.494 8.621 9.2a11.473 11.473 0 0 0 11.271-.975c3.5-2.467 5.422-6.366 6.823-10.3a79.977 79.977 0 0 0 3.93-17.089c.061-.548-.853-.548-.914.03Z" data-name="Path 122"/></g></g><g data-name="Group 226"><g data-name="Group 225"><path fill="#161616" d="M122.982 131.424a9.832 9.832 0 0 1-6.641-2.894c-1.919-2.071-1.158-4.447-1.31-6.976-.152-2.193-1.919-6.275-4.052-3.077-.335.487.457.944.792.457 1.1-1.645 1.8.4 1.98.883.091.3.183.609.244.914a15.408 15.408 0 0 1 .03 3.351 6.856 6.856 0 0 0 1.036 4.3 8.082 8.082 0 0 0 3.077 2.559 9.81 9.81 0 0 0 4.844 1.4c.579-.03.579-.944 0-.914Z" data-name="Path 123"/></g></g><g data-name="Group 228"><g data-name="Group 227"><path fill="#161616" d="M114.152 129.291a13.43 13.43 0 0 1-2.193-4.9c-.3-1.736 0-3.5-.366-5.209-.183-.853-.548-2.163-1.493-2.406-.914-.213-1.645.7-1.95 1.432-.244.548.548 1.005.792.457q.183-.914 1.371-.457a3.7 3.7 0 0 1 .335.975 8.789 8.789 0 0 1 .213 1.8c.03 1.036 0 2.1.122 3.138a13.782 13.782 0 0 0 2.369 5.622c.3.487 1.1.03.792-.457Z" data-name="Path 124"/></g></g><g data-name="Group 230"><g data-name="Group 229"><path fill="#161616" d="M111.377 130.784a14.018 14.018 0 0 1-1.919-5.757c-.335-1.919-.152-3.96-.579-5.879-.183-.853-.64-2.193-1.736-2.193-1.371-.031-1.767 1.614-1.95 2.65-.091.579.792.822.883.244a7.629 7.629 0 0 1 .152-.883q1.371-1.6 1.645 0a7.6 7.6 0 0 1 .274 2.193 30.57 30.57 0 0 0 .3 3.32c.335 2.224.792 4.935 2.132 6.763.335.487 1.127.03.792-.457Z" data-name="Path 125"/></g></g><g data-name="Group 232"><g data-name="Group 231"><path fill="#161616" d="M119.479 138.948a14.644 14.644 0 0 1-14.744-11.7c-.122-.579-1.005-.335-.883.244a15.578 15.578 0 0 0 15.627 12.37.458.458 0 0 0 0-.914Z" data-name="Path 126"/></g></g><g data-name="Group 234"><g data-name="Group 233"><path fill="#161616" d="M109.975 131.602a31.337 31.337 0 0 1-2.437-4.843c-.457-1.036-.975-2.772-2.071-3.32a1.229 1.229 0 0 0-1.8.883 4.769 4.769 0 0 0 .518 3.747c.274.518 1.066.061.792-.457-.335-.579-1.188-4.051.487-2.955.518.335.944 1.8 1.188 2.315a34.226 34.226 0 0 0 2.559 5.057c.3.518 1.1.061.762-.426Z" data-name="Path 127"/></g></g><g data-name="Group 236"><g data-name="Group 235"><path fill="#161616" d="M105.192 119.391c-.122 1.523-.213 3.016-.335 4.539-.03.579.883.579.914 0 .122-1.523.213-3.016.335-4.539.061-.579-.853-.579-.914 0Z" data-name="Path 128"/></g></g><path fill="#3d3d3d" d="M104.34 124.783c.426-.152 1.158 2.742 3.534 5.818a17.221 17.221 0 0 0 8.956 6.367 16.012 16.012 0 0 0 6.092.426c-.244 1.371-1.919 11.728 4.661 17.759.762.7 5.727 5.087 10.2 3.534a7.965 7.965 0 0 0 3.96-3.595c4.569-7.25 5.27-14.743 7.494-25.161 1.371-6.4 2.528-11.88 3.412-11.789 1.1.091 1.523 9.291.548 17.546a50.3 50.3 0 0 1-3.686 15.2c-2.772 6.458-3.808 9.809-7.219 11.636-4.387 2.376-10.235 1.493-14.012-1.31-2.315-1.736-3.29-3.777-5.118-7.768a53.531 53.531 0 0 1-4.173-13.464 18.765 18.765 0 0 1-3.046-.7 17.825 17.825 0 0 1-6.184-3.107 15.419 15.419 0 0 1-4.783-6.854c-.697-2.07-1.002-4.416-.636-4.538Z" data-name="Path 129" opacity=".11"/><path fill="#fff" d="M188.597 110.009a16.846 16.846 0 0 1 6.641 4.691c.731.853 2.711 3.32 4.478 11.971a266.503 266.503 0 0 1 2.8 16.937c.366 2.924.67 5.818 2.8 7.067a5.5 5.5 0 0 0 4.782.091c1.4-.609 2.132-1.736 3.534-3.96 1.066-1.645 1.736-2.742 1.858-4.265.122-1.249-.213-2.01-.822-3.838-1.279-3.838-2.041-6.153-1.98-8.834.03-1.066.091-3.9 1.675-4.691a1.725 1.725 0 0 1 1.675 0c.487.366.366 1.036.426 2.5.061 2.01.122 3.016.609 3.534.822.853 2.528.457 3.534.213.761-.183 3.625-.883 5-3.32.457-.822.274-.944 1.036-6.031.3-2.01.579-3.595 1.34-3.747.64-.122 1.157.762 1.767.518.579-.244.4-1.279.944-1.462s.944.822 1.858.822c.731 0 .944-.609 1.462-.518.7.152 1.005 1.493 1.249 2.589a14.26 14.26 0 0 1 .3 3.625 1.771 1.771 0 0 1 1.34.822c.274.579-.031 1.127-.427 2.406-.487 1.706-.213 1.8-.609 3.016a10.449 10.449 0 0 1-1.675 2.924 17.172 17.172 0 0 1-4.478 4.478 15.525 15.525 0 0 1-7.372 2.406 21.724 21.724 0 0 0-1.249 3.016 29.11 29.11 0 0 0-1.249 6.641 19.508 19.508 0 0 1-5.509 10.509 12.962 12.962 0 0 1-6.641 3.96 11.5 11.5 0 0 1-8.529-1.554c-1.127-.762-2.285-1.919-4.173-5.605a50.636 50.636 0 0 1-4.051-11.027 98.713 98.713 0 0 1-2.8-17.15 106.194 106.194 0 0 1 .456-18.734Z" data-name="Path 130"/><g data-name="Group 238"><g data-name="Group 237"><path fill="#161616" d="M190.486 111.137c5.879 3.259 8.072 9.9 9.139 16.145.579 3.381 1.036 6.823 1.553 10.235.457 3.2.64 6.7 1.706 9.778.67 1.95 2.193 4.326 4.417 4.63 2.132.3 4.478-1.889 5.7-3.412a11.721 11.721 0 0 0 2.589-6.458c.244-3.077-1.066-5.91-1.858-8.834a10.821 10.821 0 0 1-.365-5.118 4.4 4.4 0 0 1 1.005-2.346c1.31-1.219 1.615.853 1.736 1.767.213 1.675 0 5.818 2.894 5a.458.458 0 0 0-.244-.883c-1.889.548-1.675-3.625-1.8-4.508a4.451 4.451 0 0 0-1.154-2.776c-1.432-1.127-2.772 1.706-3.107 2.681-1.828 5.605 3.046 10.784 1.767 16.449a10.912 10.912 0 0 1-4.843 6.823c-3.93 2.376-5.91-2.681-6.458-5.727-1.127-6.367-1.645-12.824-2.924-19.161-1.188-5.91-3.716-11.971-9.26-15.018-.548-.335-1.005.457-.487.731Z" data-name="Path 131"/></g></g><g data-name="Group 240"><g data-name="Group 239"><path fill="#161616" d="M188.566 135.384a84.111 84.111 0 0 0 3.168 14.987c1.31 4.2 2.924 8.651 6.367 11.636a10.918 10.918 0 0 0 10.753 2.224c3.93-1.279 6.884-4.386 8.834-7.951a31.785 31.785 0 0 0 2.742-7.4c.7-2.8.883-6.031 2.346-8.59a.457.457 0 0 0-.792-.457c-1.34 2.315-1.554 5.118-2.163 7.707a32.953 32.953 0 0 1-2.8 8.072c-2.437 4.63-6.945 8.712-12.52 8.286-5.818-.457-9.108-5.971-10.905-10.905a79.219 79.219 0 0 1-4.082-17.576c-.091-.609-1.005-.64-.944-.031Z" data-name="Path 132"/></g></g><g data-name="Group 242"><g data-name="Group 241"><path fill="#161616" d="M218.268 132.551a9.2 9.2 0 0 0 4.508-1.31 7.946 7.946 0 0 0 3.259-2.681 6.61 6.61 0 0 0 1.036-3.991 22.919 22.919 0 0 1-.061-3.229 6.3 6.3 0 0 1 .3-1.31c.183-.548.883-2.5 1.919-.883.3.487 1.1.031.792-.457-2.071-3.229-3.838.944-3.96 3.077-.152 2.5.609 4.874-1.279 6.976-1.4 1.554-4.386 3.077-6.488 2.894a.457.457 0 0 0-.031.914Z" data-name="Path 133"/></g></g><g data-name="Group 244"><g data-name="Group 243"><path fill="#161616" d="M227.68 129.962a13.9 13.9 0 0 0 2.285-5.392 17.855 17.855 0 0 0 .152-2.863 10.721 10.721 0 0 1 .122-1.706 7.073 7.073 0 0 1 .152-.853c.061-.975.579-1.127 1.553-.4.213.548 1.1.3.883-.244-.274-.7-.822-1.554-1.675-1.584-1.066-.03-1.493 1.4-1.675 2.224-.4 1.645-.152 3.32-.366 5a12.809 12.809 0 0 1-2.224 5.361c-.3.487.487.944.792.457Z" data-name="Path 134"/></g></g><g data-name="Group 246"><g data-name="Group 245"><path fill="#161616" d="M230.39 131.484c1.34-1.858 1.767-4.569 2.1-6.763a29.879 29.879 0 0 0 .274-3.32 7.605 7.605 0 0 1 .274-2.193c.152-1.036.7-1.036 1.584 0a8.912 8.912 0 0 1 .152.883c.091.579.975.335.883-.244-.152-1.005-.518-2.62-1.828-2.65-1.127-.03-1.584 1.31-1.767 2.193-.4 1.828-.213 3.747-.518 5.6-.335 1.98-.731 4.356-1.919 6.031-.366.457.426.914.761.457Z" data-name="Path 135"/></g></g><g data-name="Group 248"><g data-name="Group 247"><path fill="#161616" d="M221.679 140.105a15.311 15.311 0 0 0 15.292-12.368c.122-.579-.761-.822-.884-.244a14.4 14.4 0 0 1-14.408 11.7.458.458 0 0 0 0 .914Z" data-name="Path 136"/></g></g><g data-name="Group 250"><g data-name="Group 249"><path fill="#161616" d="M231.761 132.277a35.4 35.4 0 0 0 2.528-5.179c.244-.518.609-1.919 1.127-2.224 1.676-1.066.731 2.467.457 2.955-.274.518.518.975.792.457.579-1.036 1.371-5.575-1.1-4.691-1.127.4-1.614 2.1-2.041 3.046a36.993 36.993 0 0 1-2.528 5.179c-.365.487.426.944.761.457Z" data-name="Path 137"/></g></g><g data-name="Group 252"><g data-name="Group 251"><path fill="#161616" d="M234.718 119.604c.122 1.523.213 3.016.335 4.539.031.579.944.579.914 0-.122-1.523-.213-3.016-.335-4.539-.031-.579-.944-.579-.914 0Z" data-name="Path 138"/></g></g><path fill="#3d3d3d" d="M191.217 115.979c.67 3.991 1.828 10.905 3.229 19.617 2.285 14.012 2.955 18.734 6.641 20.5 3.32 1.584 7.981.3 10.784-1.98 5.91-4.752 2.8-13.068 8.621-16.358 2.589-1.462 4.082-.366 7.737-2.711a20.462 20.462 0 0 0 5.209-5.026c2.132-2.833 2.559-5.514 3.046-5.392.4.091.335 1.889.152 3.138a12.857 12.857 0 0 1-2.437 5.666 15.7 15.7 0 0 1-7.219 5.392 15.943 15.943 0 0 1-4.6.944 40.89 40.89 0 0 0-.944 2.894c-1.584 5.331-1.158 6.488-2.285 9.656a20.789 20.789 0 0 1-4.447 7.28 14.075 14.075 0 0 1-4.935 3.655 11.4 11.4 0 0 1-5.331 1.005c-5.483-.457-8.895-6.4-10.113-8.5-.853-1.493-1.1-2.254-3.777-11.88-4.508-16.114-1.127-4.173-2.955-10.875-2.65-9.626-3.473-11.911-2.1-14.043.758-1.032 2.22-2.434 5.724-2.982Z" data-name="Path 139" opacity=".13"/><path fill="#6fa66d" stroke="#161616" stroke-miterlimit="10" stroke-width="3" d="M151.068 111.533c-2.833 4.112-2.924 9.321-3.046 16.541-.122 7.189 1.036 12.215 2.041 17.241a266.976 266.976 0 0 1 4.051 28.665 68.13 68.13 0 0 0 34.483 0 205.766 205.766 0 0 1 1.523-24.217c.914-7.372 1.584-9.656 2.041-16.053.822-12.276 1.249-18.429-1.675-22.694-7.311-10.541-31.955-10.355-39.418.517Z" data-name="Path 140"/><path fill="#90fbf4" d="M175.559 103.948a130.82 130.82 0 0 1 .731 53.978 124.943 124.943 0 0 1-5.209 18.522c2.8-.244 5.818-.579 8.986-1.066 2.955-.457 5.7-1.005 8.286-1.614.031-2.589.152-6.549.548-11.332.548-6.732 1.127-9.169 2.711-20.5 1.554-11.271 2.01-16.175 1.249-22.481-.67-5.757-1.767-7.859-2.863-9.352-4.326-5.729-12.185-6.125-14.439-6.155Z" data-name="Path 141" opacity=".09"/><path fill="#90fbf4" d="M191.034 111.868c-.487 0-.487 3.991-1.8 12.946-.731 5.118-1.645 9.717-3.412 18.886-1.157 5.91-1.736 8.864-1.98 9.9a67.432 67.432 0 0 1-10.448 22.3c4.843-.67 9.717-1.31 14.561-1.98.457-6.031.914-11.21 1.249-15.292.731-8.225 1.1-12.368 1.615-17.272 1.005-9.169 1.279-9.443 1.432-13.312.367-8.317-.546-16.176-1.217-16.176Z" data-name="Path 142" opacity=".09"/><path fill="#fff" d="M154.084 70.896c-1.889 3.9-1.8 7.311-1.615 13.86.152 6.306.274 11.058 3.412 13.312 2.955 2.132 5.91.122 8.895 3.046.548.518 2.833 2.772 2.62 5.483-.091 1.249-.67 1.919-.274 2.863.64 1.493 2.833 1.828 3.32 1.889a6.474 6.474 0 0 0 4.417-1.066 7.351 7.351 0 0 0 1.706-1.615c2.285-3.046 3.107-7.646 4.326-10.357 2.559-5.7 7.372-3.9 10.174-9.626 2.224-4.6.944-9.474.457-11.332-1.31-4.935-4.234-7.92-6.732-10.509-3.686-3.808-6.7-6.854-11.24-7.646-7.89-1.37-16.146 4.814-19.466 11.698Z" data-name="Path 143"/><path d="M167.64 92.494c.213-.091.427.244 1.036.64a5.21 5.21 0 0 0 3.93.67 5.881 5.881 0 0 0 2.65-1.706c.914-.914 1.1-1.523 1.493-1.462.579.091 1.066 1.706.548 2.955a3.8 3.8 0 0 1-1.432 1.584 6.807 6.807 0 0 1-3.29 1.218 7.847 7.847 0 0 1-2.406-.183 3.5 3.5 0 0 1-1.828-.64c-1.097-.883-1.158-2.863-.701-3.076Z" data-name="Path 144"/><g data-name="Group 254"><g data-name="Group 253"><path fill="#161616" d="M154.602 76.562c1.188 10.6 5.27 22.146 16.023 26.349.548.213.792-.67.244-.883-10.327-4.021-14.2-15.322-15.353-25.466-.091-.579-1.005-.579-.914 0Z" data-name="Path 145"/></g></g><g data-name="Group 256"><g data-name="Group 255"><path fill="#161616" d="M187.592 76.623c-1.31 10.6-5.879 21.6-16.663 25.466-.548.183-.3 1.066.244.883 11.21-4.021 15.993-15.292 17.333-26.349.061-.579-.853-.579-.914 0Z" data-name="Path 146"/></g></g><g data-name="Group 258"><g data-name="Group 257"><path fill="#161616" d="M169.651 78.39a52.165 52.165 0 0 0 .183 9.992c.061.579 0 1.462.762 1.553s1.767-1.1 2.254-1.553c.426-.4-.213-1.036-.64-.64a11.407 11.407 0 0 1-1.462 1.218c-.031 0-.031-1.005-.061-1.158-.122-1.036-.183-2.1-.244-3.138a53.8 53.8 0 0 1 .122-6.275c.061-.609-.853-.579-.914 0Z" data-name="Path 147"/></g></g><g data-name="Group 260"><g data-name="Group 259"><path fill="#161616" d="M160.603 80.218a5.367 5.367 0 0 1 5.849.244c.487.335.944-.457.457-.792a6.314 6.314 0 0 0-6.763-.244c-.487.3-.03 1.1.457.792Z" data-name="Path 148"/></g></g><g data-name="Group 262"><g data-name="Group 261"><path fill="#161616" d="M177.144 80.218a5.367 5.367 0 0 1 5.849.244c.487.335.944-.457.457-.792a6.314 6.314 0 0 0-6.763-.244.457.457 0 0 0 .457.792Z" data-name="Path 149"/></g></g><g data-name="Group 264"><g data-name="Group 263"><path fill="#161616" d="M167.97 94.87q-1.279-2.879 1.554-2.193c.122.091.244.152.365.244.4.122.457.3.883.426a2.634 2.634 0 0 0 1.736-.183 20.128 20.128 0 0 0 2.376-1.584c.762-.457 1.188-.548 1.919.03.914.762.7 1.614.03 2.5-.366.457.426.914.792.457.883-1.158 1.1-3.259-.4-4.082-1.767-.944-3.168.823-4.508 1.554-1.706.944-2.224-.335-3.716-.548a2.137 2.137 0 0 0-1.8.67 2.187 2.187 0 0 0 .366 3.534c.457.244.914-.548.4-.822Z" data-name="Path 150"/></g></g><g data-name="Group 266"><g data-name="Group 265"><path fill="#161616" d="M167.09 95.14c2.711 3.351 8.194 1.828 10.692-.914.4-.426-.244-1.1-.64-.64-2.193 2.406-7.006 3.9-9.382.914-.4-.487-1.036.183-.67.64Z" data-name="Path 151"/></g></g><g data-name="Group 268"><g data-name="Group 267"><path fill="#161616" d="m161.943 83.721.061-.061a.453.453 0 1 0-.64-.64l-.061.061a.453.453 0 0 0 .64.64Z" data-name="Path 152"/></g></g><g data-name="Group 270"><g data-name="Group 269"><path fill="#161616" d="M164.563 82.533v.061a.457.457 0 0 0 .914 0v-.061a.469.469 0 0 0-.457-.457.491.491 0 0 0-.457.457Z" data-name="Path 153"/></g></g><g data-name="Group 272"><g data-name="Group 271"><path fill="#161616" d="M164.197 84.939V85a.457.457 0 1 0 .914 0v-.061a.468.468 0 0 0-.457-.457.449.449 0 0 0-.457.457Z" data-name="Path 154"/></g></g><g data-name="Group 274"><g data-name="Group 273"><path fill="#161616" d="m178.301 81.588-.061.061a.453.453 0 0 0 .64.64l.061-.061a.453.453 0 0 0-.64-.64Z" data-name="Path 155"/></g></g><g data-name="Group 276"><g data-name="Group 275"><path fill="#161616" d="M181.347 81.467v.152a.457.457 0 1 0 .914 0v-.152a.457.457 0 0 0-.914 0Z" data-name="Path 156"/></g></g><g data-name="Group 278"><g data-name="Group 277"><path fill="#161616" d="M180.616 84.208v.061a.457.457 0 1 0 .914 0v-.061a.469.469 0 0 0-.457-.457.449.449 0 0 0-.457.457Z" data-name="Path 157"/></g></g><g data-name="Group 280"><g data-name="Group 279"><path fill="#161616" d="M160.694 74.766a3.892 3.892 0 0 1 5.179-1.31c.518.274.975-.518.457-.792a4.824 4.824 0 0 0-6.427 1.645c-.335.487.457.944.792.457Z" data-name="Path 158"/></g></g><g data-name="Group 282"><g data-name="Group 281"><path fill="#161616" d="M177.327 73.181c1.889-1.554 4.234-.426 5.788 1.005.426.4 1.066-.244.64-.64-1.95-1.8-4.783-2.924-7.067-1.005-.457.366.183 1.005.64.64Z" data-name="Path 159"/></g></g><g data-name="Group 284"><g data-name="Group 283"><path fill="#161616" d="M166.269 100.688a28.011 28.011 0 0 1 .335 8.438c-.061.579.853.579.914 0a28.6 28.6 0 0 0-.4-8.682c-.091-.579-.975-.335-.853.244Z" data-name="Path 160"/></g></g><g data-name="Group 286"><g data-name="Group 285"><path fill="#161616" d="M176.504 99.561a33.25 33.25 0 0 0-.3 9.2c.061.579.975.579.914 0a31.55 31.55 0 0 1 .274-8.956c.091-.579-.792-.822-.883-.244Z" data-name="Path 161"/></g></g><g data-name="Group 288"><g data-name="Group 287"><path fill="#161616" d="M166.786 109.153c-.244.731.731 1.371 1.218 1.736a6.078 6.078 0 0 0 3.259 1.188 5.753 5.753 0 0 0 5.757-3.29c.213-.548-.67-.792-.883-.244a4.774 4.774 0 0 1-4.417 2.65 5.221 5.221 0 0 1-2.437-.579c-.183-.091-1.706-.975-1.645-1.218.213-.579-.67-.823-.853-.244Z" data-name="Path 162"/></g></g><g data-name="Group 290"><g data-name="Group 289"><path fill="#161616" d="M166.725 101.723c1.523 1.036 3.259 2.041 5.148 1.767s3.594-1.706 5-2.894c.457-.4-.213-1.036-.64-.64-1.218 1.036-2.833 2.406-4.478 2.62-1.706.244-3.2-.67-4.569-1.614-.487-.366-.944.426-.457.762Z" data-name="Path 163"/></g></g><g data-name="Group 292"><g data-name="Group 291"><path fill="#161616" d="M167.091 102.455c.975 1.675 2.8 1.767 4.539 1.4 1.858-.366 4.112-1.1 5.117-2.833a.457.457 0 0 0-.792-.457c-1.158 2.041-6.671 3.9-8.1 1.432-.274-.518-1.066-.061-.762.457Z" data-name="Path 164"/></g></g><g data-name="Group 294"><g data-name="Group 293"><path fill="#161616" d="M167.396 102.668c2.437 3.077 7.646 2.132 9.413-1.188.274-.518-.518-.975-.792-.457-1.523 2.863-5.91 3.625-7.981 1.005-.366-.457-1.005.183-.64.64Z" data-name="Path 165"/></g></g><g data-name="Group 296"><g data-name="Group 295"><path fill="#161616" d="M156.825 87.499c-2.711 1.432-5.97-5.3-1.31-5.849.579-.061.579-.975 0-.914a3.556 3.556 0 0 0-3.229 4.417c.548 2.01 2.863 4.234 5 3.138.518-.274.061-1.066-.457-.792Z" data-name="Path 166"/></g></g><g data-name="Group 298"><g data-name="Group 297"><path fill="#161616" d="M187.561 81.162c.944-.457 1.889 1.158 2.071 1.8a4.361 4.361 0 0 1-.122 2.5c-.64 2.132-2.071 2.5-4.082 2.315-.579-.061-.579.853 0 .914 1.249.122 2.711.213 3.716-.731a5.62 5.62 0 0 0 1.493-3.534c.152-1.736-1.279-5.179-3.534-4.051-.518.274-.061 1.066.457.792Z" data-name="Path 167"/></g></g><path fill="#191919" d="M166.177 54.843c-3.442.944-7.433 2.071-10.57 5.3-3.381 3.473-4.143 7.768-4.569 10.083a15.888 15.888 0 0 0-.274 3.229c0 1.919.335 2.681.427 4.691a26.16 26.16 0 0 1-.152 3.473 60.9 60.9 0 0 1-3.96 11.271c-1.767 3.96-2.772 4.173-3.351 6.7-.3 1.34-1.31 5.7 1.31 9.717 3.168 4.843 8.925 5.148 9.352 5.148 5.879.213 9.413-4.112 9.961-4.783a12.671 12.671 0 0 0 2.407-5.118c-.061-.731-.122-1.523-.244-2.315-.091-.579-.183-1.158-.274-1.706-.3-.213-.7-.518-1.158-.883a22.594 22.594 0 0 1-3.96-4.2 28.264 28.264 0 0 1-3.838-7.25 2.744 2.744 0 0 1-1.1.335c-1.675.122-3.229-1.432-3.747-3.016a3.458 3.458 0 0 1-.061-2.224 3.717 3.717 0 0 1 1.249-1.584 4.158 4.158 0 0 1 1.675-.822c-.152-1.036-.335-2.071-.487-3.107a6.951 6.951 0 0 1 .7-2.163c1.31-2.5 3.412-2.711 8.682-5.7 3.046-1.736 4.661-2.985 6.031-4.722a20.492 20.492 0 0 0 1.249-1.8 16.547 16.547 0 0 0 1.8 2.924 17.88 17.88 0 0 0 3.534 3.32c3.2 2.437 6.641 4.508 7.067 4.783 2.346 1.4 3.564 1.98 4.021 3.412a4.4 4.4 0 0 1-.213 2.863 2.79 2.79 0 0 1 2.1.731 2.268 2.268 0 0 1 .427.944 6.568 6.568 0 0 1 .335 1.919 4.079 4.079 0 0 1-5.148 4.326 26.624 26.624 0 0 1-3.107 5.727 24.708 24.708 0 0 1-4.965 5.087c-.183 1.432-.366 2.985-.427 4.63-.061 1.066-.061 2.071-.061 3.046a8.272 8.272 0 0 0 1.31 2.5c2.681 3.473 7.4 3.564 8.59 3.594a19.648 19.648 0 0 0 12.55-5.544 15.475 15.475 0 0 0 3.686-7.494 18.975 18.975 0 0 0-1.036-10.6c-1.523-4.234-2.833-4.2-5.422-8.864-2.924-5.361-1.736-6.4-5.6-15.871-2.163-5.3-3.534-7.4-5.7-9.169a12.484 12.484 0 0 0-6.519-2.924c-1.036-.091-1.8 0-6.031.822-3.991.735-5.941 1.131-6.489 1.284Z" data-name="Path 168"/><g data-name="Group 300"><g data-name="Group 299"><path fill="#232323" d="M171.692 63.707c-.031-.061-.061-.091-.061-.152a3.35 3.35 0 0 0-.061.548c.061-.03.091-.091.152-.122a3.354 3.354 0 0 1-.548.061c.609.274 1.279 1.615 1.736 2.163a33.53 33.53 0 0 0 1.98 2.193 29.251 29.251 0 0 0 4.112 3.381c3.138 2.163 8.682 3.716 8.864 8.286.03.579.944.579.914 0-.152-4.326-4.417-6.092-7.615-7.981a27.544 27.544 0 0 1-5.6-4.326 25.3 25.3 0 0 1-2.528-2.894c-.4-.518-.761-1.371-1.371-1.615a.5.5 0 0 0-.548.061c-.061.03-.091.091-.152.122a.459.459 0 0 0-.061.548c.03.061.061.091.061.152.183.548.944.091.731-.426Z" data-name="Path 169"/></g></g><g data-name="Group 302"><g data-name="Group 301"><path fill="#232323" d="M163.771 55.483a17.553 17.553 0 0 0-12.063 10.266c-2.863 6.945.152 14.713-2.589 21.719-2.254 5.849-7.707 11.789-5.788 18.521a12.451 12.451 0 0 0 10.6 8.864c6.214.548 11.667-4.082 12.855-10.052.122-.579-.762-.822-.883-.244a11.1 11.1 0 0 1-21.872.4c-1.158-6.336 4.021-11.911 6.092-17.455 2.285-6.092.274-12.52 1.615-18.734A16.546 16.546 0 0 1 164.014 56.4a.473.473 0 0 0-.244-.914Z" data-name="Path 170"/></g></g><g data-name="Group 304"><g data-name="Group 303"><path fill="#232323" d="M171.021 54.752a14.614 14.614 0 0 1 7.768-1.462c3.594.4 6.458 2.772 8.56 5.575 4.051 5.453 3.93 12.52 7.037 18.429 2.711 5.209 6.732 9.9 8.164 15.688a16.128 16.128 0 0 1-6.671 17.12 13.55 13.55 0 0 1-10.753 2.285 15.437 15.437 0 0 1-4.813-2.1c-1.1-.731-2.955-2.041-2.65-3.595.122-.579-.762-.822-.883-.244-.457 2.346 2.071 4.082 3.808 5.057a14.379 14.379 0 0 0 9.352 1.919 17.1 17.1 0 0 0 13.708-13.677c1.279-7.1-2.559-13.129-6.123-18.917a37.4 37.4 0 0 1-4.783-10.387c-1.005-3.96-1.706-7.829-4.021-11.271-2.071-3.077-5-5.94-8.773-6.7a15.147 15.147 0 0 0-9.382 1.432.484.484 0 0 0 .457.853Z" data-name="Path 171"/></g></g><g data-name="Group 306"><g data-name="Group 305"><path fill="#232323" d="M171.082 60.478c.548 5.818-5.91 8.072-10.052 10.266-3.808 2.041-7.4 5.026-8.1 9.535-.091.579.792.822.883.244.883-5.7 6.245-8.255 10.875-10.57 3.686-1.858 7.768-4.783 7.311-9.474-.061-.579-.975-.579-.914 0Z" data-name="Path 172"/></g></g><path fill="#3d3d3d" d="M194.019 94.992c-.335.579-4.6 8.072-8.712 6.945-3.107-.853-4.051-6-4.143-6.519-1.34 1.249-2.681 2.5-4.051 3.747a27.673 27.673 0 0 0-.609 4.965c-.091 2.132-.122 3.229.3 4.265.975 2.285 3.412 3.2 5.6 4.051a14.6 14.6 0 0 0 14.926-2.163 16.954 16.954 0 0 0 5.818-8.8 18.876 18.876 0 0 0-.609-11.3c-.914-2.772-2.62-5.453-6-10.784-.914-1.4-1.675-2.559-2.163-3.32.984 2.707 3.847 11.328-.357 18.913Z" data-name="Path 173" opacity=".19"/><path fill="#3d3d3d" d="M149.942 85.64a18.448 18.448 0 0 0-1.036 7.372c.183 2.681.4 5.453 2.5 7.159 2.5 2.041 7.25 2.254 9.108-.426 1.34-1.919.579-4.478.426-4.965l5.818 5.91a11.535 11.535 0 0 1-.091 4.783 11.734 11.734 0 0 1-2.8 5.179 12.391 12.391 0 0 1-4.356 3.2 11.023 11.023 0 0 1-6.641.822 11.6 11.6 0 0 1-5.7-3.107 11.94 11.94 0 0 1-3.93-6.641 12.658 12.658 0 0 1 .731-6.519c.7-2.254 1.432-3.016 3.016-6 .762-1.589 1.858-3.843 2.955-6.767Z" data-name="Path 174" opacity=".23"/><path fill="#3d3d3d" d="M155.912 80.005a40.428 40.428 0 0 0 15.718 20.866c1.066-.213 2.1-.457 3.168-.67.3 1.219.518 2.742-.274 3.534-1.219 1.249-3.655-.213-4.965.853-.822.67-1.31 2.315.091 6.793-.792-.579-1.584-1.158-2.406-1.736-.152-3.107-.3-6.184-.487-9.291a27.846 27.846 0 0 1-9.26-12.733 2.715 2.715 0 0 1-2.193.487 2.924 2.924 0 0 1-1.614-1.523 3.683 3.683 0 0 1-.853-3.077 3.314 3.314 0 0 1 2.681-2.1 6.052 6.052 0 0 1 .394-1.403Z" data-name="Path 175" opacity=".06"/><g data-name="Group 320"><g data-name="Group 319"><path fill="#161616" d="M129.409 36.109c-1.615.914-2.315 2.5-2.924 4.173a14.468 14.468 0 0 1-4.234 6.549c-2.924 2.589-7.859 6.4-5.849 10.966 1.736 3.93 6.854 3.777 9.748 1.371a11.231 11.231 0 0 0 3.473-6c.731-2.924.457-6.031 1.675-8.834.883-2.071 2.406-4.569 1.158-6.854a2.743 2.743 0 0 0-4.112-.944c-.335.274.152.762.487.487a2.071 2.071 0 0 1 2.955.609 3.733 3.733 0 0 1 .365 2.8 17.346 17.346 0 0 1-1.432 3.595 24.763 24.763 0 0 0-1.279 6.488c-.366 2.863-1.218 5.849-3.412 7.89a6.024 6.024 0 0 1-7.219 1.1c-2.742-1.675-2.406-4.965-.883-7.372 1.371-2.132 3.534-3.564 5.361-5.27a12.337 12.337 0 0 0 3.2-4.478c.823-2.041 1.219-4.508 3.29-5.666a.356.356 0 0 0-.365-.609Z" data-name="Path 184"/></g></g><g data-name="Group 322"><g data-name="Group 321"><path fill="#161616" d="M121.428 56.548c-3.168-.366-.579-6 1.828-4.356 2.193 1.493.335 5.818-2.254 4.265-.366-.244-.731.366-.335.579a2.81 2.81 0 0 0 3.96-1.279c.64-1.432.244-3.625-1.31-4.3-3.473-1.493-5.971 5.331-1.889 5.788.457.03.457-.67 0-.7Z" data-name="Path 185"/></g></g><g data-name="Group 324"><g data-name="Group 323"><path fill="#161616" d="M116.127 57.28c.853 3.168 2.833 5.818 6.245 6.245a8.457 8.457 0 0 0 7.981-3.838 11.511 11.511 0 0 0 1.8-4.935c.244-2.01-.091-4.051 0-6.062.213-3.595 3.107-7.646.335-10.936-.274-.335-.762.152-.487.487 2.346 2.833-.091 6.549-.487 9.6-.426 3.32.487 6.519-.853 9.748a8.113 8.113 0 0 1-7.037 5.3c-3.716.152-5.971-2.467-6.884-5.818-.061-.4-.731-.213-.609.213Z" data-name="Path 186"/></g></g><path fill="#3c3a61" d="M231.853 43.846c-.03.061.091.183.031.274-.061.122-.366-.061-.609.03-.213.091-.213.3-.365.518-.335.487-1.036.122-1.8.487a1.949 1.949 0 0 0-1.127 1.31 5.227 5.227 0 0 0 .488 1.523 2.707 2.707 0 0 1 .335 1.218c-.031.518-.244.579-.183.853.152.579 1.158.487 1.432 1.158.122.335-.091.426.061.914a1.7 1.7 0 0 0 .67.883c.426.244.731.061.914.3s-.03.487.122.914a1.348 1.348 0 0 0 .64.67 1.825 1.825 0 0 0 .883.213c.4-.03.609-.152.64-.091.061.091-.579.426-.67 1.005a1.177 1.177 0 0 0 .061.609c.274.609 1.1.518 1.218.944.092.366-.426.579-.3.944.091.244.335.213.914.64.365.274.335.335.64.548.4.274.731.487 1.1.4.518-.152.792-.975.853-1.158a2.08 2.08 0 0 1 .122-.4c.244-.4.579-.335.761-.64a1.186 1.186 0 0 0-.03-.792c-.152-.518-.4-.518-.518-.944a.983.983 0 0 1 .244-1.005c.244-.152.457.061.761-.091a.96.96 0 0 0 .366-.883c-.03-.548-.427-.579-.427-1.1a5.879 5.879 0 0 1 .4-1.158 1.887 1.887 0 0 0 .183-.579c0-.3-.152-.457-.3-.822 0 0-.122-.3-.274-.853-.213-.853.122-1.066 0-1.828s-.457-.64-.64-1.493c-.183-.822.091-1.127-.244-1.584a1.545 1.545 0 0 0-.975-.579c-.518-.061-.64.244-.975.122-.518-.152-.4-.853-.944-1.158a1.437 1.437 0 0 0-1.4.091c-.487.335-.4.853-.792.975-.504.224-1.144-.507-1.266-.385Z" data-name="Path 177"/><g data-name="Group 346"><g data-name="Group 345"><path fill="#161616" d="M228.96 47.927a1.408 1.408 0 0 1-.518-1.828 1.374 1.374 0 0 1 1.919-.366 1.343 1.343 0 0 1 .183 1.889 1.308 1.308 0 0 1-2.041-.091c-.274-.335-.853 0-.579.335a2 2 0 1 0 .092-2.285 2.089 2.089 0 0 0 .64 2.924c.335.213.67-.366.3-.579Z" data-name="Path 197"/></g></g><g data-name="Group 348"><g data-name="Group 347"><path fill="#161616" d="M231.608 47.715a.839.839 0 0 1 .64-1.31 1.081 1.081 0 0 1 1.127 1.005 1.039 1.039 0 0 1-.761 1.127 1.008 1.008 0 0 1-1.157-.853c-.031-.426-.731-.426-.7 0a1.685 1.685 0 0 0 1.919 1.523 1.721 1.721 0 0 0 1.371-2.041 1.761 1.761 0 0 0-2.163-1.4 1.533 1.533 0 0 0-.883 2.285c.244.4.853.061.609-.335Z" data-name="Path 198"/></g></g><g data-name="Group 350"><g data-name="Group 349"><path fill="#161616" d="M231.426 45.613a.743.743 0 0 1 .518-1.34c.914.03 1.1 1.1.67 1.736-.244.366.335.7.579.335a1.723 1.723 0 0 0-1.462-2.742 1.43 1.43 0 0 0-.64 2.62c.366.244.731-.366.335-.609Z" data-name="Path 199"/></g></g><g data-name="Group 352"><g data-name="Group 351"><path fill="#161616" d="M234.076 47.013a.815.815 0 0 1 .792-1.279 1.263 1.263 0 0 1 1.188.944c.426 1.4-1.858 2.041-2.011.518-.03-.426-.731-.426-.7 0a1.712 1.712 0 0 0 2.041 1.554 1.851 1.851 0 0 0 1.31-2.254 2.023 2.023 0 0 0-2.285-1.4 1.485 1.485 0 0 0-.975 2.285c.3.335.883-.03.64-.366Z" data-name="Path 200"/></g></g><g data-name="Group 354"><g data-name="Group 353"><path fill="#161616" d="M229.386 50.548a.793.793 0 0 1 .122-1.432 1.042 1.042 0 0 1 1.432.67.867.867 0 0 1-.518 1.188.875.875 0 0 1-1.1-.548.348.348 0 0 0-.67.183 1.608 1.608 0 0 0 2.071 1.005 1.56 1.56 0 0 0 .731-2.254 1.747 1.747 0 0 0-2.559-.64 1.5 1.5 0 0 0 .091 2.5c.457.152.792-.426.4-.67Z" data-name="Path 201"/></g></g><g data-name="Group 356"><g data-name="Group 355"><path fill="#161616" d="M233.224 51.097a1 1 0 0 1-.731-1.371.952.952 0 1 1 0 .853c-.244-.366-.822-.03-.579.335a1.568 1.568 0 1 1 1.188.792c.365.122.548-.518.122-.609Z" data-name="Path 202"/></g></g><g data-name="Group 358"><g data-name="Group 357"><path fill="#161616" d="M236.301 48.264c.365-.152.487.518.487.731a1.355 1.355 0 0 1-.427.883 1.376 1.376 0 0 1-1.736.03c-.366-.274-.7.335-.335.579a2 2 0 0 0 3.016-.792 1.771 1.771 0 0 0-.061-1.614.962.962 0 0 0-1.279-.4c-.427.183-.061.762.335.579Z" data-name="Path 203"/></g></g><g data-name="Group 360"><g data-name="Group 359"><path fill="#161616" d="M233.65 45.128a1.125 1.125 0 1 1 1.645.426c-.335.274.152.762.487.487a1.808 1.808 0 1 0-2.711-.579c.183.4.762.061.579-.335Z" data-name="Path 204"/></g></g><g data-name="Group 362"><g data-name="Group 361"><path fill="#161616" d="M236.544 45.582a.694.694 0 0 1 .487-1.188 1.181 1.181 0 0 1 1.188 1.005 1.785 1.785 0 0 1-.365 1.554.791.791 0 0 1-1.34-.213.348.348 0 0 0-.67.183 1.452 1.452 0 0 0 2.132.792 2.315 2.315 0 0 0 .792-2.833 1.784 1.784 0 0 0-2.346-1.005 1.384 1.384 0 0 0-.366 2.224.357.357 0 0 0 .487-.518Z" data-name="Path 205"/></g></g><g data-name="Group 364"><g data-name="Group 363"><path fill="#161616" d="M237.823 48.476c-.213-.64.548-1.127.944-.487a1.6 1.6 0 0 1 .091 1.188c-.091.335-.3.792-.7.853-.4.091-.914-.3-.761-.731s-.518-.609-.67-.183a1.314 1.314 0 0 0 1.219 1.614 1.708 1.708 0 0 0 1.584-1.614c.122-.822-.152-1.919-1.1-2.071a1.22 1.22 0 0 0-1.31 1.645c.183.4.853.213.7-.213Z" data-name="Path 206"/></g></g><g data-name="Group 366"><g data-name="Group 365"><path fill="#161616" d="M230.943 51.096a.456.456 0 0 0-.64-.3.936.936 0 0 0-.518.731 1.81 1.81 0 0 0 .7 1.736 1.664 1.664 0 0 0 2.406-2.01c-.152-.4-.823-.213-.67.183a1.051 1.051 0 0 1-.944 1.432.887.887 0 0 1-.7-.518 1.3 1.3 0 0 1-.152-.487c0-.152.122-.366-.031-.457a1.281 1.281 0 0 1-.152-.213v.061c.091.487.761.3.7-.152Z" data-name="Path 207"/></g></g><g data-name="Group 368"><g data-name="Group 367"><path fill="#161616" d="M234.229 50.548a2.039 2.039 0 0 0 2.254 2.681 1.67 1.67 0 0 0 .64-2.985c-.335-.274-.7.335-.335.579a1 1 0 0 1-.67 1.767 1.393 1.393 0 0 1-1.249-1.858c.152-.426-.518-.609-.64-.183Z" data-name="Path 208"/></g></g><g data-name="Group 370"><g data-name="Group 369"><path fill="#161616" d="M232.496 51.675a1.324 1.324 0 0 0 .548 2.01 1.593 1.593 0 0 0 2.041-1.371c.061-.426-.609-.609-.67-.183-.061.457-.457 1.066-1.036.944-.335-.091-.67-.609-.426-.914.3-.335-.183-.822-.457-.487Z" data-name="Path 209"/></g></g><g data-name="Group 372"><g data-name="Group 371"><path fill="#161616" d="M234.838 55.087a.963.963 0 0 1-.122-1.432 1.04 1.04 0 0 1 1.493.183 1.129 1.129 0 0 1-.366 1.523 1.241 1.241 0 0 1-1.553-.4c-.274-.335-.762.152-.487.487a1.886 1.886 0 0 0 2.62.366 1.826 1.826 0 0 0 .213-2.559 1.7 1.7 0 0 0-2.437 0 1.654 1.654 0 0 0 .335 2.406c.335.274.67-.335.3-.579Z" data-name="Path 210"/></g></g><g data-name="Group 374"><g data-name="Group 373"><path fill="#161616" d="M238.128 51.74a.625.625 0 0 1-.183-.975.772.772 0 0 1 1.1.061.88.88 0 0 1 0 1.158.569.569 0 0 1-.853.061c-.274-.335-.762.152-.487.487a1.272 1.272 0 0 0 1.888-.122 1.608 1.608 0 0 0-.183-2.193 1.451 1.451 0 0 0-2.1.3 1.324 1.324 0 0 0 .67 1.889c.4.152.579-.518.152-.67Z" data-name="Path 211"/></g></g><g data-name="Group 376"><g data-name="Group 375"><path fill="#161616" d="M232.889 53.229a.631.631 0 0 0-1.1-.091 1.512 1.512 0 0 0-.091 1.523 1.493 1.493 0 0 0 2.62 0 .334.334 0 1 0-.579-.335.828.828 0 0 1-1.188.3.937.937 0 0 1-.335-.548.52.52 0 0 1 0-.3.774.774 0 0 1 .061-.213c.122-.061.091-.122-.061-.183.152.426.823.244.67-.152Z" data-name="Path 212"/></g></g><g data-name="Group 378"><g data-name="Group 377"><path fill="#161616" d="M237.702 52.741a.9.9 0 0 1-1.005 1.462c-.4-.152-.579.487-.183.67a1.6 1.6 0 0 0 1.919-.609 1.661 1.661 0 0 0-.244-2.01c-.3-.335-.792.152-.487.487Z" data-name="Path 213"/></g></g><g data-name="Group 380"><g data-name="Group 379"><path fill="#161616" d="M233.406 55.421a1.55 1.55 0 0 0 .609 2.467 1.53 1.53 0 0 0 1.767-1.98c-.183-.4-.823-.213-.67.183.213.548-.274 1.371-.914 1.158a.837.837 0 0 1-.3-1.31c.3-.366-.183-.853-.487-.518Z" data-name="Path 214"/></g></g><g data-name="Group 382"><g data-name="Group 381"><path fill="#161616" d="M235.629 55.91a1.176 1.176 0 0 0 .7 1.493 1.426 1.426 0 0 0 1.736-.579c.64-.822.7-2.894-.792-2.8-.427.03-.427.7 0 .7.67-.03.64.975.427 1.371a1.289 1.289 0 0 1-.762.731.586.586 0 0 1-.7-.731c.213-.426-.457-.609-.609-.183Z" data-name="Path 215"/></g></g><g data-name="Group 384"><g data-name="Group 383"><path fill="#161616" d="M239.193 52.985a3.391 3.391 0 0 1-.518-.061 2.259 2.259 0 0 1 .427 1.432c-.091.335-.487.67-.823.426-.365-.244-.7.335-.335.579a1.209 1.209 0 0 0 1.645-.426c.518-.762.061-1.675-.3-2.406a.343.343 0 0 0-.548-.061.694.694 0 0 0 .122 1.066c.366.3.7-.274.335-.548Z" data-name="Path 216"/></g></g><g data-name="Group 386"><g data-name="Group 385"><path fill="#161616" d="M234.564 57.526a1.164 1.164 0 0 0 .579 2.1c1.28.152 1.858-1.188 1.706-2.254-.061-.426-.731-.244-.67.183a1.135 1.135 0 0 1-.761 1.4.534.534 0 0 1-.609-.274.5.5 0 0 1 .091-.579c.365-.244.03-.822-.335-.579Z" data-name="Path 217"/></g></g><g data-name="Group 388"><g data-name="Group 387"><path fill="#161616" d="M236.482 57.493a1.274 1.274 0 0 0 2.071 1.188 1.689 1.689 0 0 0-.548-2.8c-.4-.213-.731.4-.335.579a1.09 1.09 0 0 1 .67 1.371.729.729 0 0 1-.609.457.568.568 0 0 1-.579-.609c.061-.426-.609-.609-.67-.183Z" data-name="Path 218"/></g></g><g data-name="Group 390"><g data-name="Group 389"><path fill="#161616" d="M235.634 59.138a1.088 1.088 0 0 0 1.279 1.432c.944-.183 1.158-1.279 1.036-2.1-.061-.426-.731-.244-.67.183a1.224 1.224 0 0 1-.335 1.158.411.411 0 0 1-.488.03c-.122-.061-.3-.213-.244-.366.183-.4-.4-.731-.579-.335Z" data-name="Path 219"/></g></g><g data-name="Group 392"><g data-name="Group 391"><path fill="#161616" d="M232.98 44.059c-.609-1.736-1.462-5.392 1.432-5.6a2.327 2.327 0 0 0-.335-.244c.3.822-.548 2.163-.64 3.016a7.743 7.743 0 0 0 .091 2.224c.091.426.731.244.67-.183a6.369 6.369 0 0 1 .426-3.686 1.973 1.973 0 0 0 .122-1.554c-.061-.122-.183-.274-.335-.244a2.931 2.931 0 0 0-2.528 1.95c-.579 1.493-.03 3.077.457 4.508.122.4.792.213.64-.183Z" data-name="Path 220"/></g></g><g data-name="Group 394"><g data-name="Group 393"><path fill="#161616" d="M243.339 93.438c-3.32-2.62-3.442-7.311-1.158-10.662 2.5-3.625 7.616-6.245 11.484-3.046 3.534 2.924 3.26 8.1 1.158 11.789-2.62 4.691-8.712 3.93-12.55 1.158-.365-.244-.7.335-.335.579 3.046 2.193 8.133 3.473 11.423 1.066 2.864-2.1 4.112-6.7 3.595-10.083-.548-3.442-3.381-6.61-7.037-6.793-3.625-.152-7.311 2.833-8.925 5.91a8.3 8.3 0 0 0 1.858 10.479c.366.366.853-.122.488-.4Z" data-name="Path 221"/></g></g><g data-name="Group 396"><g data-name="Group 395"><path fill="#161616" d="M252.232 78.36a5.435 5.435 0 0 1 .183-2.711c.457-.914 2.1-.548 2.955-.427-.061-.183-.091-.4-.152-.579a10.812 10.812 0 0 0-2.193 3.625c-.152.426.518.579.67.183a9.6 9.6 0 0 1 2.041-3.32c.152-.183.122-.548-.152-.579a14.963 14.963 0 0 0-2.041-.152 1.842 1.842 0 0 0-1.4.335 2.943 2.943 0 0 0-.518 1.523 8.1 8.1 0 0 0-.061 2.1c.03.426.731.426.67 0Z" data-name="Path 222"/></g></g><g data-name="Group 398"><g data-name="Group 397"><path fill="#161616" d="M245.408 89.569h.061c.091.03.152.061.244.091a.231.231 0 0 1 .031.3l-.122.122c-.061.03-.122.03-.183.061h-.061a.347.347 0 1 0 .183-.67.4.4 0 1 0 0 .792.347.347 0 0 0 .244-.426.323.323 0 0 0-.4-.274Z" data-name="Path 223"/></g></g><g data-name="Group 400"><g data-name="Group 399"><path fill="#161616" d="M247.662 86.524v-.091a.351.351 0 0 0-.7 0v.091a.352.352 0 0 0 .7 0v-.091a.351.351 0 0 0-.7 0v.091a.352.352 0 0 0 .7 0Z" data-name="Path 224"/></g></g><g data-name="Group 402"><g data-name="Group 401"><path fill="#161616" d="M248.124 90.087h-.152a.351.351 0 0 0 0 .7h.152a.35.35 0 0 0 0-.7Z" data-name="Path 225"/></g></g><g data-name="Group 404"><g data-name="Group 403"><path fill="#161616" d="M250.921 86.832v-.152a.351.351 0 0 0-.7 0v.152a.35.35 0 0 0 .7 0Z" data-name="Path 226"/></g></g><g data-name="Group 406"><g data-name="Group 405"><path fill="#161616" d="M252.383 90.579v-.152a.351.351 0 0 0-.7 0v.152a.35.35 0 0 0 .7 0Z" data-name="Path 227"/></g></g><g data-name="Group 408"><g data-name="Group 407"><path fill="#161616" d="M250.739 82.933v-.152a.351.351 0 0 0-.7 0v.152c.031.426.7.426.7 0Z" data-name="Path 228"/></g></g><g data-name="Group 410"><g data-name="Group 409"><path fill="#161616" d="M253.511 87.193a.351.351 0 0 0 0-.7.351.351 0 0 0 0 .7Z" data-name="Path 229"/></g></g><g data-name="Group 412"><g data-name="Group 411"><path fill="#161616" d="M253.999 77.11a6.87 6.87 0 0 0 5-2.285 3.355 3.355 0 0 0-.548-.061 2.293 2.293 0 0 1-.944 2.894c-1.157.64-2.528-.03-3.472-.731-.366-.274-.7.335-.335.579 1.28.975 3.168 1.614 4.569.457a2.985 2.985 0 0 0 .792-3.564.362.362 0 0 0-.548-.061 6.107 6.107 0 0 1-4.508 2.071.35.35 0 0 0 0 .7Z" data-name="Path 230"/></g></g><path fill="#3d3d3d" d="M252.837 79.06a10.484 10.484 0 0 1 .64 4.326 10.742 10.742 0 0 1-2.315 5.94 12.026 12.026 0 0 1-7.829 4.326 9.12 9.12 0 0 0 5.026 1.736 7.952 7.952 0 0 0 5.788-2.01 8.536 8.536 0 0 0 2.1-4.051 9.311 9.311 0 0 0 .274-5.666 8.47 8.47 0 0 0-3.684-4.601Z" data-name="Path 245" opacity=".15"/><g data-name="Group 414"><g data-name="Group 413"><path fill="#161616" d="M105.618 81.679c.7-1.645 1.371-3.29 2.071-4.935.183-.4-.487-.579-.67-.183-.7 1.645-1.371 3.29-2.071 4.935-.152.4.487.579.67.183Z" data-name="Path 231"/></g></g><g data-name="Group 416"><g data-name="Group 415"><path fill="#161616" d="M111.285 69.862c.67-.914 1.34-1.8 2.041-2.711.274-.366-.335-.7-.579-.335-.67.914-1.34 1.8-2.041 2.711-.274.335.335.7.579.335Z" data-name="Path 232"/></g></g><g data-name="Group 418"><g data-name="Group 417"><path fill="#161616" d="M140.008 35.469a8.6 8.6 0 0 1 2.163-1.767c.4-.213.03-.822-.335-.579a8.632 8.632 0 0 0-2.315 1.889c-.274.3.213.792.487.457Z" data-name="Path 233"/></g></g><g data-name="Group 420"><g data-name="Group 419"><path fill="#161616" d="M154.724 25.629c1.036-.366 2.1-.762 3.138-1.127.427-.152.244-.822-.183-.67-1.036.366-2.1.762-3.138 1.127-.426.152-.244.822.183.67Z" data-name="Path 234"/></g></g><g data-name="Group 422"><g data-name="Group 421"><path fill="#161616" d="M203.859 19.325a25.521 25.521 0 0 1 5.087 2.711c.366.244.7-.335.335-.579a26.122 26.122 0 0 0-5.239-2.772c-.426-.183-.609.457-.183.64Z" data-name="Path 235"/></g></g><g data-name="Group 424"><g data-name="Group 423"><path fill="#161616" d="M219.242 31.601c1.432 1.279 2.833 2.559 4.265 3.838.335.3.822-.183.487-.487-1.432-1.279-2.833-2.559-4.265-3.838-.335-.3-.823.183-.487.487Z" data-name="Path 236"/></g></g><g data-name="Group 426"><g data-name="Group 425"><path fill="#161616" d="M241.631 61.759a60.083 60.083 0 0 1 2.407 3.747c.213.366.822.03.579-.335a61.135 61.135 0 0 0-2.406-3.747c-.244-.366-.822-.03-.579.335Z" data-name="Path 237"/></g></g><g data-name="Group 428"><g data-name="Group 427"><path fill="#161616" d="M246.383 74.034c.213.914.426 1.8.67 2.711.091.426.761.244.67-.183-.213-.914-.426-1.8-.67-2.711a.348.348 0 0 0-.67.183Z" data-name="Path 238"/></g></g><path fill="#3d3d3d" d="M123.439 51.98a2.651 2.651 0 0 1 .152 1.523 2.7 2.7 0 0 1-.914 1.554 3.425 3.425 0 0 1-2.711.762 2.986 2.986 0 0 0 2.5 1.161 2.574 2.574 0 0 0 1.8-1.066 2.274 2.274 0 0 0 .3-1.279 3.908 3.908 0 0 0-1.127-2.655Z" data-name="Path 239" opacity=".14"/><path fill="#3d3d3d" d="M132.73 39.521c-.274.03-.4.731-.67 1.767-.609 2.437-.975 2.437-1.584 4.6-.518 1.889-.213 1.8-.762 4.6-.548 2.772-.823 4.173-1.675 5.635a7.97 7.97 0 0 1-3.716 3.625 8.114 8.114 0 0 1-6.823-.518 5.169 5.169 0 0 0 .944 1.98 5.939 5.939 0 0 0 3.259 2.041c.152.061 3.716.975 5.971-.975a14.19 14.19 0 0 0 1.615-2.041 18.1 18.1 0 0 0 1.584-2.467 10.313 10.313 0 0 0 .823-3.93c.3-4.112-.548-3.99 0-6.062a32.1 32.1 0 0 1 1.554-4.691 3.537 3.537 0 0 0 .3-1.614c-.028-.945-.485-1.95-.82-1.95Z" data-name="Path 240" opacity=".22"/><path fill="#565656" d="M95.506 94.596a5.124 5.124 0 0 0-2.65 1.523 6.152 6.152 0 0 0-1.615 3.594 8.578 8.578 0 0 0 .883 4.478 19.748 19.748 0 0 0 3.442 5.544 10.259 10.259 0 0 0 3.838.487 7.659 7.659 0 0 0 4.661-1.523 7.171 7.171 0 0 0 1.919-2.65 11.781 11.781 0 0 0 1.036-5.7c0-2.254 0-3.412-.792-4.326a4.09 4.09 0 0 0-4.326-1.188 3.873 3.873 0 0 0-1.675 1.188 5.675 5.675 0 0 0-4.721-1.427Z" data-name="Path 176"/><path fill="#161616" d="M97.607 94.261c-4.447-.853-7.28 3.046-6.7 7.189a18.655 18.655 0 0 0 3.138 7.219c1.279 1.919 2.833 2.254 5.026 1.828.426-.091.244-.731-.183-.67-2.5.487-3.625-.426-4.783-2.437a20.354 20.354 0 0 1-2.346-5.178c-.914-3.777 1.249-8.164 5.666-7.311.427.122.609-.548.183-.64Z" data-name="Path 178"/><path fill="#161616" d="M96.815 94.991a7.332 7.332 0 0 1 4.082 1.95c.335.3.823-.183.487-.487a8.075 8.075 0 0 0-4.569-2.132c-.426-.091-.426.609 0 .67Z" data-name="Path 179"/><path fill="#161616" d="M98.95 94.291a4.387 4.387 0 0 1-.823-1.462 1.243 1.243 0 0 1 1.371-1.614l-.335-.335a10.853 10.853 0 0 0 .944 4.9c.183.4.762.061.579-.335a10.262 10.262 0 0 1-.853-4.569.32.32 0 0 0-.335-.335 1.869 1.869 0 0 0-2.01 1.188c-.4 1.036.3 2.132.883 2.924.244.335.853 0 .579-.366Z" data-name="Path 180"/><path fill="#161616" d="M100.562 95.419c2.254-.579 5-.883 5.788 1.919a13.546 13.546 0 0 1-.244 6.245c-.365 1.767-.64 3.838-2.163 5a9.273 9.273 0 0 1-4.752 1.371c-.426.03-.426.731 0 .7 1.919-.152 4.082-.426 5.544-1.8 1.736-1.614 2.01-4.6 2.346-6.793.3-2.01.579-4.9-.914-6.58s-3.9-1.218-5.788-.731a.348.348 0 0 0 .183.67Z" data-name="Path 181"/><path fill="#161616" d="M100.014 92.006c-.731-1.493 1.279-2.589 2.041-3.564a7.74 7.74 0 0 0 1.158-2.224h-.67a3.968 3.968 0 0 1-3.138 5.27c-.427.091-.244.731.183.67a4.616 4.616 0 0 0 3.625-6.092.349.349 0 0 0-.67 0c-.548 1.645-1.675 2.437-2.711 3.716a2.342 2.342 0 0 0-.426 2.589c.213.366.822.03.609-.366Z" data-name="Path 182"/><path fill="#161616" d="M103.822 97.702a7.587 7.587 0 0 0-.4 2.863c.03.579.061 1.493.518 1.889a.881.881 0 0 0 1.157-.03c.579-.457.427-1.188.274-1.828a.348.348 0 0 0-.67.183c.183.366.031.67-.426.914a1.08 1.08 0 0 1-.061-.3c-.213-.3-.122-.944-.122-1.31a7.9 7.9 0 0 1 .366-2.224c.152-.4-.487-.548-.64-.152Z" data-name="Path 183"/><path fill="#3d3d3d" d="M102.847 94.962a11.539 11.539 0 0 1 .487 5.026 12.212 12.212 0 0 1-2.163 5.574 14.064 14.064 0 0 1-5.148 4.539 13 13 0 0 0 4.843-.061 5.311 5.311 0 0 0 5.331-4.783 14.948 14.948 0 0 0 .731-6.4c-.213-1.615-.4-3.2-1.615-3.838a3.161 3.161 0 0 0-2.466-.057Z" data-name="Path 241" opacity=".23"/><path fill="#161616" d="M183.018.808a14.807 14.807 0 0 1-.4 6 .348.348 0 0 0 .67.183 16.6 16.6 0 0 0 .4-6.367c-.061-.426-.731-.244-.67.183Z" data-name="Path 187"/><path fill="#161616" d="M183.475.898c1.828-1.31 1.828 2.071 1.828 2.863a17.21 17.21 0 0 1-.4 3.534c-.091.426.579.609.67.183a21.707 21.707 0 0 0 .428-3.716 5.74 5.74 0 0 0-.213-2.5 1.752 1.752 0 0 0-2.65-.944c-.365.244-.03.853.335.579Z" data-name="Path 188"/><path fill="#161616" d="M182.348 6.443a5.6 5.6 0 0 0-3.138 2.65 17.816 17.816 0 0 1-4.3 5.118c-2.955 2.132-10.022 4.417-12.124-.061-.183-.4-.792-.061-.579.335 1.767 3.808 7.25 3.138 10.387 1.8a13.764 13.764 0 0 0 5.24-3.9c1.462-1.767 2.285-4.63 4.691-5.3a.333.333 0 0 0-.183-.64Z" data-name="Path 189"/><path fill="#161616" d="M162.091 14.18c-2.833 5.361 2.924 8.56 7.676 8.56a.351.351 0 0 0 0-.7c-4.143 0-9.656-2.65-7.1-7.555.213-.335-.366-.67-.579-.3Z" data-name="Path 190"/><path fill="#161616" d="M183.109 7.965c-2.315 3.5-3.594 7.433-6.732 10.418a13.628 13.628 0 0 1-12.215 3.843.374.374 0 0 0-.427.244c-1.371 5.179 7.859 5.666 10.905 5.057a13.861 13.861 0 0 0 10.418-9.687.348.348 0 0 0-.67-.183 12.994 12.994 0 0 1-14.622 9.291c-2.071-.335-6.153-1.432-5.392-4.326-.152.091-.274.152-.427.244a14.046 14.046 0 0 0 11.789-3.046 20.09 20.09 0 0 0 4.173-4.752c1.4-2.163 2.315-4.6 3.747-6.763.274-.366-.335-.7-.548-.335Z" data-name="Path 191"/><path fill="#161616" d="M185.39 7.539c5.331 3.107 5 11.88 2.467 16.663a11.608 11.608 0 0 1-16.328 4.447c-.366-.244-.731.366-.335.579a12.336 12.336 0 0 0 17.272-4.722c2.711-5.087 2.955-14.287-2.711-17.576-.4-.213-.762.4-.366.609Z" data-name="Path 192"/><path fill="#161616" d="M172.508 29.106a6.234 6.234 0 0 1-1.554-.944l-.091-.091c-.03-.061.03 0 0 .061a1.041 1.041 0 0 1 .457-.426c.4-.213.03-.792-.335-.579-.426.244-1.005.762-.7 1.279a1.759 1.759 0 0 0 .609.548 10.652 10.652 0 0 0 1.279.731c.4.183.731-.4.335-.579Z" data-name="Path 193"/><path fill="#161616" d="M185.272 9.946a34.263 34.263 0 0 1-1.249 9.139.348.348 0 0 0 .67.183 34.411 34.411 0 0 0 1.279-9.321.35.35 0 0 0-.7 0Z" data-name="Path 194"/><path fill="#161616" d="M183.414 12.382a19.97 19.97 0 0 1-7.981 11.359c-.366.244-.031.853.335.579a20.812 20.812 0 0 0 8.286-11.789c.152-.4-.518-.579-.64-.152Z" data-name="Path 195"/><path fill="#161616" d="M187.283 12.292a18.338 18.338 0 0 1-4.569 14.13c-.3.335.183.822.487.487a19.065 19.065 0 0 0 4.752-14.622c-.03-.426-.7-.426-.67 0Z" data-name="Path 196"/><path fill="#3d3d3d" d="M161.817 16.31a5.936 5.936 0 0 0 1.526 2.44c3.016 2.8 7.8 1.4 8.072 1.31 3.29-1.036 5.209-3.747 6.092-4.965 1.218-1.675 1.919-3.473 4.265-5.757.518-.487.944-.883 1.249-1.127a23.868 23.868 0 0 1-6.031 10.2 12.665 12.665 0 0 1-5.3 3.381 10.407 10.407 0 0 1-4.874.213c-1.34-.274-3.442-.731-4.478-2.589a5.058 5.058 0 0 1-.521-3.106Z" data-name="Path 242" opacity=".2"/><path fill="#3d3d3d" d="M163.979 23.623a8.5 8.5 0 0 0 2.894 1.675 9.269 9.269 0 0 0 4.326.244 17.56 17.56 0 0 0 8.194-2.985c5.818-4.3 6.123-11.7 6.153-12.672a19.3 19.3 0 0 1-.548 6.214 14.691 14.691 0 0 1-3.29 6.823 12.677 12.677 0 0 1-3.564 2.772 13.628 13.628 0 0 1-5.453 1.493c-2.528.244-5.3.518-7.219-1.249a5.373 5.373 0 0 1-1.493-2.315Z" data-name="Path 243" opacity=".18"/><path fill="#3d3d3d" d="M188.532 14.911a16.007 16.007 0 0 1-2.163 8.225 12.45 12.45 0 0 1-5.483 5.392c-4.661 2.163-9.291.122-10.144-.244a10.826 10.826 0 0 0 10.662 1.493 11.117 11.117 0 0 0 4.935-2.772 11.74 11.74 0 0 0 2.711-4.9 16.062 16.062 0 0 0 .426-8.316 15.715 15.715 0 0 0-1.95-4.813 17.8 17.8 0 0 1 1.006 5.935Z" data-name="Path 244" opacity=".2"/><g data-name="Group 430"><g data-name="Group 429"><path d="M270.57 200.785v103.174a.914.914 0 0 0 1.828 0V200.785a.914.914 0 0 0-1.828 0Z" data-name="Path 246"/></g></g><g data-name="Group 432"><g data-name="Group 431"><path d="M67.481 200.785v102.382a.914.914 0 0 0 1.828 0V200.785a.914.914 0 0 0-1.828 0Z" data-name="Path 247"/></g></g><g data-name="Group 434"><g data-name="Group 433"><path d="M89.17 202.156v51.876a.914.914 0 0 0 1.828 0v-51.876a.914.914 0 0 0-1.828 0Z" data-name="Path 248"/></g></g><g data-name="Group 436"><g data-name="Group 435"><path d="M256.436 199.445v51.877a.914.914 0 0 0 1.828 0v-51.877a.914.914 0 0 0-1.828 0Z" data-name="Path 249"/></g></g><path stroke="#161616" stroke-miterlimit="10" stroke-width="3" d="m64.069 201.546 212.593-.274c-2.1-8.347-4.173-16.724-6.275-25.07l-184.233.548q-11.058 12.383-22.085 24.796Z" data-name="Path 250"/><g data-name="Group 438"><g data-name="Group 437"><path fill="#161616" d="M63.125 197.739v3.838a.458.458 0 0 0 .914 0v-3.838a.458.458 0 0 0-.914 0Z" data-name="Path 251"/></g></g><g data-name="Group 440"><g data-name="Group 439"><path fill="#161616" d="M63.369 198.379c.091.853.213 1.736.3 2.589.061.579.975.579.914 0a20.877 20.877 0 0 1-.122-2.772c-.274.091-.579.152-.853.244.3.731.061 1.554.366 2.285.183.457.914.427.883-.122 0-.762.03-1.523.091-2.315-.3.03-.609.091-.883.122a17.527 17.527 0 0 1 .548 1.8.465.465 0 0 0 .883 0 3.63 3.63 0 0 1 .366-1.31c-.091.061-.183.152-.274.213.03 0 .091-.031.122-.031-.122-.031-.244-.031-.366-.061.03.03.061.061.091.061-.061-.122-.152-.274-.213-.4.152-.183.152-.274-.03-.3a1.629 1.629 0 0 1-.335-.152c-.091-.03-.335-.213-.366-.091l-.3.3a5.17 5.17 0 0 1 2.163.122c.579.122.822-.761.244-.883a6.79 6.79 0 0 0-2.224-.091c.03.3.091.609.122.883a8.394 8.394 0 0 1 2.315-.122 7.014 7.014 0 0 1-.426-.579.651.651 0 0 1-.609.579 2.621 2.621 0 0 1-.975 0c-.183-.061-.183-.213-.3-.366a.662.662 0 0 0-.244-.152c-.335-.061.061-.03-.091.244-.183.061-.335.152-.518.213a2.1 2.1 0 0 1 .244.091c.548.183.792-.7.244-.883a2.1 2.1 0 0 1-.244-.091.451.451 0 0 0-.518.213.727.727 0 0 0 .274 1.036c.091.03.213.03.274.061-.152-.091 0 .091.03.152a.879.879 0 0 0 .579.4c1.066.213 2.5.031 2.742-1.218a.463.463 0 0 0-.427-.579 8.057 8.057 0 0 0-2.559.152c-.487.091-.4.975.122.883a5.414 5.414 0 0 1 1.98.061c.091-.3.152-.579.244-.883a6.494 6.494 0 0 0-2.65-.122.438.438 0 0 0-.3.3c-.152.7.457.975 1.005 1.219.457.183 1.1.457 1.432-.091a.563.563 0 0 0-.579-.853c-.7.091-.731 1.279-.853 1.767h.883a17.546 17.546 0 0 0-.548-1.8.451.451 0 0 0-.883.122 28.788 28.788 0 0 0-.091 2.315c.3-.031.609-.091.883-.122-.335-.823-.091-1.706-.457-2.528-.183-.426-.853-.183-.853.244 0 .914.03 1.828.122 2.772h.914c-.091-.853-.213-1.736-.3-2.589-.122-.518-1.036-.518-.975.061Z" data-name="Path 252"/></g></g><g data-name="Group 442"><g data-name="Group 441"><path fill="#161616" d="M276.297 197.282v3.96a.458.458 0 0 0 .914 0v-3.96a.457.457 0 1 0-.914 0Z" data-name="Path 253"/></g></g><g data-name="Group 444"><g data-name="Group 443"><path fill="#161616" d="M275.871 197.434v.944a.457.457 0 1 0 .914 0 4.589 4.589 0 0 0-.031-.914.457.457 0 1 0-.914 0v.64a.458.458 0 0 0 .914 0v-.64h-.914a9.106 9.106 0 0 1 .031.914h.914v-.944c-.031-.579-.944-.579-.914 0Z" data-name="Path 254"/></g></g><path fill="#fff" stroke="#161616" stroke-miterlimit="10" stroke-width="3" d="m64.069 197.282 212.593-.274c-2.1-8.347-4.173-16.724-6.275-25.07l-184.233.548q-11.058 12.429-22.085 24.796Z" data-name="Path 255"/><path fill="#565656" d="M234.656 175.258c-.365.091-.4 1.919.64 7.829a4.465 4.465 0 0 0 1.554 1.615c.975.609 2.1.609 4.265.548 2.5-.03 3.2-.4 3.5-.548a5.118 5.118 0 0 0 1.554-1.4l.548-7.768a2.315 2.315 0 0 1-1.554.975c-1.249.091-1.645-1.4-3.077-1.554-.731-.061-.7.3-3.138 1.188-1.645.609-2.1.579-2.437.487-1.216-.275-1.551-1.433-1.855-1.372Z" data-name="Path 256"/><path fill="#fff" d="M234.26 166.394c.091 2.863.213 5.727.3 8.621a3.674 3.674 0 0 0 2.376 1.8c1.584.152 2.163-1.736 4.051-1.736 1.432 0 1.828 1.066 3.686 1.1a4.623 4.623 0 0 0 2.1-.426 14.258 14.258 0 0 1 .3-5.879c.365-1.279.944-2.559.365-3.259a2.254 2.254 0 0 0-1.889-.427 7.557 7.557 0 0 1 .427-2.1c.609-1.828 1.584-2.589 1.31-3.716-.091-.427-.4-.944-.67-.944-.487 0-.731 1.4-1.523 3.838-.4 1.218-.792 2.224-1.036 2.894a17.813 17.813 0 0 1-4.082-.152c-1.462-.213-2.62-.609-4.143-.213a5.521 5.521 0 0 0-1.572.599Z" data-name="Path 257"/><g data-name="Group 446"><g data-name="Group 445"><path fill="#161616" d="M143.606 180.893c4.691 5.3 13.281 5.635 19.831 5.757a70.014 70.014 0 0 0 12.368-.914 33.627 33.627 0 0 0 11.088-3.473c.518-.274.061-1.066-.457-.792-6.58 3.655-15.048 4.3-22.42 4.234-6.458-.061-15.139-.244-19.77-5.483-.4-.427-1.036.244-.64.67Z" data-name="Path 258"/></g></g><g data-name="Group 448"><g data-name="Group 447"><path fill="#161616" d="M139.158 177.511c.548.792 1.249.67 2.132.914 1.462.366 1.858 1.889 3.2 2.315a5.882 5.882 0 0 0 1.279.152 4.787 4.787 0 0 1 2.437 1.158 5.67 5.67 0 0 0 3.351 1.036.351.351 0 0 0 0-.7 6.142 6.142 0 0 1-3.686-1.462 4.514 4.514 0 0 0-2.315-.731c-1.462-.152-1.8-1.371-2.894-2.01-.762-.457-2.406-.244-2.924-1.005-.244-.366-.823-.03-.579.335Z" data-name="Path 259"/></g></g><g data-name="Group 450"><g data-name="Group 449"><path fill="#161616" d="M139.918 177.39c-.091-.457 2.071-.244 2.437-.457.548-.3.457-.731.762-1.127 1.066-1.34 2.163 0 3.381-.183.914-.152 1.767-1.158 2.711-.914.883.244 1.127 1.34 1.767 1.858.609.518 1.066.3 1.736.457 1.462.366.609 1.554.792 2.528a1.49 1.49 0 0 1-.213 1.432c-.213.366-1.036 1.615-1.493 1.279-.366-.244-.7.335-.335.579.792.579 1.432-.03 1.889-.7.3-.426.914-.944 1.066-1.462.183-.67-.244-1.432-.183-2.163.091-.792.457-1.645-.518-2.1-.823-.365-1.645.091-2.406-.548-.487-.427-.7-1.066-1.188-1.493a2.056 2.056 0 0 0-2.406-.091 3.061 3.061 0 0 1-2.711.335 2.375 2.375 0 0 0-1.767-.152c-.366.152-.457.427-.67.7-.4.579.426.823-1.005 1.219a3.434 3.434 0 0 1-.975-.061c-.853-.03-1.523.274-1.34 1.219.091.457.762.274.67-.152Z" data-name="Path 260"/></g></g><g data-name="Group 452"><g data-name="Group 451"><path fill="#161616" d="M170.412 182.386c1.005-1.371 1.432-3.077 2.5-4.356 1.1-1.31 4.326-3.077 5.788-1.31 1.736 2.1-1.4 3.229-2.742 4.265-.609.457-1.127.975-1.736 1.432a6.49 6.49 0 0 1-.762.487 2.627 2.627 0 0 1-1.158.4c-.822.274-1.279-.244-1.371-1.615.335-.274-.152-.762-.487-.487a1.523 1.523 0 0 0-.3 2.071 2.329 2.329 0 0 0 2.711.609c1.371-.426 2.376-1.523 3.5-2.376s2.8-1.4 3.412-2.772c1.066-2.376-1.8-3.625-3.686-3.32a6.217 6.217 0 0 0-3.655 2.1c-1.127 1.31-1.584 3.077-2.62 4.478-.244.4.335.731.609.4Z" data-name="Path 261"/></g></g><g data-name="Group 454"><g data-name="Group 453"><path fill="#161616" d="M175.104 178.517c-.3-.183.365-.64.518-.731.244-.152.761-.335.883.061.244.792-.883.883-1.371.792-.427-.091-.609.579-.183.67a1.851 1.851 0 0 0 1.95-.487 1.215 1.215 0 0 0-.061-1.645c-1.1-.944-3.442 1.127-2.071 1.919a.334.334 0 1 0 .335-.579Z" data-name="Path 262"/></g></g><g data-name="Group 456"><g data-name="Group 455"><path fill="#161616" d="M171.329 183.819c1.858.944 3.686.183 5.239-1.005 1.432-1.1 3.046-2.376 3.381-4.265.061-.426-.579-.609-.67-.183a5.6 5.6 0 0 1-2.285 3.229c-1.462 1.249-3.32 2.62-5.3 1.615-.426-.152-.761.426-.365.609Z" data-name="Path 263"/></g></g><g data-name="Group 458"><g data-name="Group 457"><path fill="#161616" d="M173.945 183.939a29.287 29.287 0 0 0 4.6-3.838c.3-.3-.183-.792-.487-.487a27.373 27.373 0 0 1-4.478 3.716c-.366.274 0 .853.366.609Z" data-name="Path 264"/></g></g><g data-name="Group 460"><g data-name="Group 459"><path fill="#161616" d="M177.296 181.867c.335-.366.67-.7 1.036-1.066.3-.3-.183-.792-.487-.487-.335.366-.67.7-1.036 1.066-.3.3.183.792.487.487Z" data-name="Path 265"/></g></g><g data-name="Group 462"><g data-name="Group 461"><path fill="#161616" d="M158.257 183.056c-.579-.091-.609-.792-.244-1.158a1.465 1.465 0 0 1 1.523-.213c.518.244.731.792.213 1.158-.274.213-1.158.609-1.462.335-.335-.274-.822.213-.487.487.67.579 1.919.152 2.528-.4a1.32 1.32 0 0 0-.4-2.193 2.1 2.1 0 0 0-2.589.548 1.3 1.3 0 0 0 .762 2.041.314.314 0 1 0 .152-.609Z" data-name="Path 266"/></g></g><g data-name="Group 464"><g data-name="Group 463"><path fill="#161616" d="M157.983 181.348a1.6 1.6 0 0 1 1.584-1.371 1.112 1.112 0 0 1 1.005.548.719.719 0 0 1-.426 1.066c-.427.091-.244.761.183.67 1.523-.335 1.188-2.285 0-2.8a2.253 2.253 0 0 0-3.016 1.919c-.091.427.609.427.67-.03Z" data-name="Path 267"/></g></g><g data-name="Group 466"><g data-name="Group 465"><path fill="#161616" d="M158.684 179.248c-.244-.183.518-.761.609-.822a1.242 1.242 0 0 1 1.036-.122.894.894 0 0 1 .183 1.675c-.4.183-.061.792.335.579a1.6 1.6 0 0 0-.579-2.985 2.1 2.1 0 0 0-1.889.7c-.426.457-.609 1.127-.061 1.553.366.274.7-.335.366-.579Z" data-name="Path 268"/></g></g><g data-name="Group 468"><g data-name="Group 467"><path fill="#161616" d="M151.343 176.263c1.889.061 3.046-2.315 5.026-1.1a3.9 3.9 0 0 0 .914.579 3.726 3.726 0 0 0 .579.061 2.228 2.228 0 0 1 1.828.975c.213.366.823.03.579-.335a2.613 2.613 0 0 0-1.31-1.31c-.366-.122-.762.03-1.1-.031-.762-.091-.883-.487-1.462-.853-2.01-1.218-3.107 1.371-5.057 1.279-.426.03-.426.731 0 .731Z" data-name="Path 269"/></g></g><g data-name="Group 470"><g data-name="Group 469"><path fill="#161616" d="M153.018 182.874c1.249-.183 3.655 1.31 4.112-.731.091-.427-.579-.609-.67-.183-.244 1.036-1.493.548-2.163.365a2.987 2.987 0 0 0-1.462-.091c-.427.03-.244.7.183.64Z" data-name="Path 270"/></g></g><g data-name="Group 472"><g data-name="Group 471"><path fill="#161616" d="M159.659 176.172v1.493a.351.351 0 0 0 .7 0v-1.493a.35.35 0 0 0-.7 0Z" data-name="Path 271"/></g></g><g data-name="Group 474"><g data-name="Group 473"><path fill="#161616" d="M160.36 176.476c4.661-.061 9.352-.03 14.012.122.427 0 .427-.67 0-.7a307.343 307.343 0 0 0-14.012-.122.35.35 0 0 0 0 .7Z" data-name="Path 272"/></g></g><g data-name="Group 476"><g data-name="Group 475"><path fill="#161616" d="M179.459 177.512c1.523.4 7.585 1.8 7.067 3.96a.348.348 0 0 0 .67.183c.3-1.279-.487-2.132-1.584-2.681a31.668 31.668 0 0 0-5.971-2.132.348.348 0 0 0-.183.67Z" data-name="Path 273"/></g></g><g data-name="Group 478"><g data-name="Group 477"><path fill="#161616" d="M164.258 183.814c-.3-.4.183-.975.609-.609.4.366-.183.975-.548.548-.3-.335-.792.152-.487.487a1.1 1.1 0 0 0 1.554.03 1.125 1.125 0 0 0 .03-1.523 1.119 1.119 0 0 0-1.736 1.4c.244.366.853 0 .579-.335Z" data-name="Path 274"/></g></g><g data-name="Group 480"><g data-name="Group 479"><path fill="#161616" d="M166.847 182.051c-.091-.091-.03-.244.03-.335.091-.152.244-.122.366 0a.229.229 0 0 1 .03.366c-.091.061-.274.122-.366.061a.345.345 0 1 0-.487.487 1.015 1.015 0 0 0 1.31-.03.948.948 0 0 0-1.34-1.34 1.015 1.015 0 0 0-.03 1.31c.3.3.762-.183.487-.518Z" data-name="Path 275"/></g></g><g data-name="Group 482"><g data-name="Group 481"><path fill="#161616" d="m164.228 179.491.061.061v-.061a.183.183 0 0 0 .031-.122.623.623 0 0 1 .244-.244.4.4 0 0 1 .518.152.284.284 0 0 1-.457.335c-.274-.335-.761.152-.487.487a.961.961 0 1 0 1.34-1.371 1.067 1.067 0 0 0-1.523.03c-.335.335-.609 1.279.091 1.4.427.091.609-.579.183-.67Z" data-name="Path 276"/></g></g><g data-name="Group 484"><g data-name="Group 483"><path fill="#161616" d="M192.953 176.145a307.938 307.938 0 0 1-3.869 9.23c-.183.4.427.762.579.335a277.897 277.897 0 0 0 3.93-9.382c.183-.4-.457-.579-.64-.183Z" data-name="Path 277"/></g></g><g data-name="Group 486"><g data-name="Group 485"><path fill="#161616" d="M193.471 176.629c.122.183.213.366.335.579l-.366.822c-.152.366-.335.731-.487 1.1l-1.1 2.467a269.72 269.72 0 0 0-1.8 4.234c-.183.4.487.579.67.183 1.158-2.8 2.681-5.575 3.655-8.468.274-.823-.183-2.346-1.279-1.523-.335.274 0 .853.366.609Z" data-name="Path 278"/></g></g><g data-name="Group 488"><g data-name="Group 487"><path fill="#161616" d="M188.963 185.465a4.347 4.347 0 0 0-3.686 4.021c-.031.427.67.427.7 0a3.667 3.667 0 0 1 3.2-3.351c.4-.061.213-.7-.213-.67Z" data-name="Path 279"/></g></g><g data-name="Group 490"><g data-name="Group 489"><path fill="#161616" d="M187.835 187.839a7.6 7.6 0 0 0-.975 2.62c-.061.426.579.609.67.183a7.1 7.1 0 0 1 .914-2.467.348.348 0 0 0-.609-.335Z" data-name="Path 280"/></g></g><g data-name="Group 492"><g data-name="Group 491"><path fill="#161616" d="M188.781 188.174a6.8 6.8 0 0 0-.64 2.163c-.061.427.609.609.67.183a6.624 6.624 0 0 1 .579-2.011c.152-.4-.426-.731-.609-.335Z" data-name="Path 281"/></g></g><g data-name="Group 494"><g data-name="Group 493"><path fill="#161616" d="M189.694 188.479c-.122.64-.274 1.31-.4 1.95-.091.426.579.609.67.183.122-.64.274-1.31.4-1.95.061-.426-.579-.609-.67-.183Z" data-name="Path 282"/></g></g><g data-name="Group 496"><g data-name="Group 495"><path fill="#161616" d="M190.242 186.559a3.311 3.311 0 0 1 .67 3.32c-.152.426.518.609.67.183a3.929 3.929 0 0 0-.853-3.99c-.3-.335-.762.152-.487.487Z" data-name="Path 283"/></g></g><g data-name="Group 498"><g data-name="Group 497"><path fill="#161616" d="M133.279 187.869c3.808-.426 7.433.823 11.18 1.34.944.122 2.254.487 3.107-.091 1.279-.914 2.346-2.62 3.381-3.808.3-.335-.183-.823-.487-.487a22.874 22.874 0 0 1-3.077 3.534c-1.31.975-4.021 0-5.483-.274-2.863-.579-5.666-1.219-8.621-.883-.426.03-.426.731 0 .67Z" data-name="Path 284"/></g></g><g data-name="Group 500"><g data-name="Group 499"><path fill="#161616" d="M133.34 187.717c1.889-1.188 3.716-2.437 5.544-3.716 1.767-1.279 3.96-2.985 6.153-1.615.366.244.731-.365.335-.579-1.706-1.066-3.594-.548-5.209.457-2.467 1.523-4.752 3.351-7.189 4.9-.366.213 0 .792.366.548Z" data-name="Path 285"/></g></g><g data-name="Group 502"><g data-name="Group 501"><path fill="#161616" d="M233.894 166.668a145.646 145.646 0 0 0 .975 16.693c.061.426.731.426.7 0a152.909 152.909 0 0 1-.975-16.693.35.35 0 0 0-.7 0Z" data-name="Path 286"/></g></g><g data-name="Group 504"><g data-name="Group 503"><path fill="#161616" d="M235.052 183.576a6.532 6.532 0 0 0 5.453 2.071c2.01-.03 4.2-.213 5.666-1.736.3-.3-.183-.792-.488-.487-1.34 1.371-3.381 1.493-5.178 1.523a5.917 5.917 0 0 1-4.965-1.889c-.274-.3-.761.183-.487.518Z" data-name="Path 287"/></g></g><g data-name="Group 506"><g data-name="Group 505"><path fill="#161616" d="M246.809 168.161a291.369 291.369 0 0 1-1.158 15.475c-.03.426.64.426.7 0 .518-5.148.883-10.3 1.157-15.475a.35.35 0 0 0-.7 0Z" data-name="Path 288"/></g></g><g data-name="Group 508"><g data-name="Group 507"><path fill="#161616" d="M235.207 167.338a14.58 14.58 0 0 0 10.905.944.348.348 0 0 0-.183-.67 14.032 14.032 0 0 1-10.357-.883c-.427-.183-.762.426-.366.609Z" data-name="Path 289"/></g></g><g data-name="Group 510"><g data-name="Group 509"><path fill="#161616" d="M243.642 168.343c1.158-2.437 1.645-5.087 2.62-7.585.7-1.767.64-.365.4.335-.274.731-.548 1.493-.823 2.224-.548 1.493-1.1 2.955-1.615 4.447-.152.426.518.579.67.183.822-2.224 1.645-4.447 2.437-6.671.244-.64.853-2.224-.244-2.528-1.066-.3-1.523 1.919-1.736 2.589a57.389 57.389 0 0 1-2.285 6.671.334.334 0 1 0 .579.335Z" data-name="Path 290"/></g></g><g data-name="Group 512"><g data-name="Group 511"><path fill="#161616" d="M234.472 166.607c.274-.853 4.052-.335 4.782-.335a46.755 46.755 0 0 1 5.057.183c.426.061.426-.64 0-.7a67.67 67.67 0 0 0-7.463-.213c-1.005 0-2.65-.335-3.046.883-.122.4.518.579.67.183Z" data-name="Path 291"/></g></g><g data-name="Group 514"><g data-name="Group 513"><path fill="#161616" d="M245.166 166.576c.609-.091 1.523-.244 1.858.427.274.487-.3.853-.244 1.4.061.427.731.244.67-.183 0-.091.213-.365.274-.487a1.225 1.225 0 0 0 .091-.457 1.427 1.427 0 0 0-.427-.944 2.693 2.693 0 0 0-2.406-.427c-.426.061-.244.731.183.67Z" data-name="Path 292"/></g></g><g data-name="Group 516"><g data-name="Group 515"><path fill="#161616" d="M234.29 175.258c1.036 2.193 3.442 2.346 5.118.822 1.889-1.706 3.26.366 5.148.64a2.38 2.38 0 0 0 2.315-1.127c.244-.366-.335-.7-.579-.335-1.158 1.675-2.5.274-3.716-.244a3.8 3.8 0 0 0-2.254-.244 3.018 3.018 0 0 0-1.371.823c-1.371 1.218-3.2 1.127-4.051-.7-.213-.366-.792-.031-.609.366Z" data-name="Path 293"/></g></g></svg>